<svg width="482" height="180" viewBox="0 0 482 180" fill="none" xmlns="http://www.w3.org/2000/svg">
<path fill-rule="evenodd" clip-rule="evenodd" d="M13.9424 174.236H7.90369L7.03067 176.842H4.25757L8.89347 163.187H12.8223L17.5516 176.842H14.8335L13.9424 174.236ZM13.322 172.285L10.9046 165.193L8.52043 172.285H13.322ZM24.2475 176.842V165.466H30.6891V163.187H21.5473V176.842H24.2475ZM37.2397 165.357V168.912H43.7788V170.863H37.2397V174.691H44.1692V176.842H34.5959V163.187H44.1108V165.357H37.2397ZM60.4135 163.187V176.842H57.7323V171.009H51.234V176.842H48.5525V163.187H51.234V168.784H57.7323V163.187H60.4135ZM68.5991 176.842V165.466H64.5589V163.187H75.4301V165.466H71.2986V176.842H68.5991ZM88.273 171.957H90.8982V172.756C90.8982 173.813 90.7122 174.646 90.3425 175.259C89.9736 175.873 89.3714 176.314 88.5368 176.584C87.6987 176.855 86.5627 176.989 85.1259 176.989C83.944 176.989 82.9787 176.879 82.2343 176.66C81.4923 176.444 80.8993 176.071 80.4587 175.539C80.0216 175.01 79.7076 174.287 79.5216 173.369C79.3352 172.455 79.2426 171.255 79.2426 169.769C79.2426 168.134 79.4103 166.837 79.7453 165.87C80.0799 164.907 80.6668 164.196 81.5048 163.734C82.3395 163.272 83.5187 163.042 85.0328 163.042C86.5348 163.042 87.6899 163.211 88.5028 163.552C89.3124 163.895 89.8806 164.4 90.2091 165.071C90.5384 165.743 90.743 166.639 90.8208 167.763H88.2167C88.1736 167.044 88.0558 166.512 87.8694 166.171C87.6834 165.834 87.3759 165.603 86.9476 165.482C86.5195 165.363 85.8808 165.302 85.0298 165.302C84.1521 165.302 83.5034 165.415 83.09 165.636C82.6742 165.859 82.386 166.293 82.2217 166.943C82.0598 167.59 81.9797 168.617 81.9797 170.024C81.9797 171.021 82.0262 171.823 82.1195 172.434C82.2095 173.044 82.3707 173.515 82.5971 173.852C82.8269 174.186 83.1338 174.421 83.5214 174.552C83.9134 174.682 84.4348 174.746 85.0892 174.746C85.9239 174.746 86.5664 174.691 87.0189 174.579C87.4727 174.466 87.7948 174.275 87.9876 173.999C88.1763 173.722 88.273 173.327 88.273 172.813V171.957ZM98.2824 176.842V165.466H94.2422V163.187H105.113V165.466H100.983V176.842H98.2824ZM111.942 165.357V168.893H115.332C115.94 168.893 116.405 168.848 116.728 168.757C117.051 168.663 117.286 168.483 117.435 168.213C117.585 167.946 117.659 167.539 117.659 166.998C117.659 166.365 117.516 165.937 117.228 165.703C116.939 165.472 116.458 165.357 115.781 165.357H111.942ZM111.942 170.845V174.673H115.332C116.256 174.673 116.926 174.53 117.348 174.247C117.767 173.962 117.975 173.455 117.975 172.722C117.975 172.239 117.904 171.859 117.761 171.586C117.615 171.316 117.389 171.121 117.081 171.012C116.772 170.899 116.349 170.845 115.816 170.845H111.942ZM109.298 176.842V163.187H116.449C117.296 163.187 118.006 163.306 118.58 163.546C119.155 163.786 119.592 164.159 119.89 164.67C120.188 165.18 120.34 165.828 120.34 166.615C120.34 168.347 119.676 169.395 118.348 169.754V169.842C119.096 169.957 119.663 170.282 120.061 170.811C120.458 171.343 120.656 172.048 120.656 172.923C120.656 173.528 120.576 174.071 120.414 174.554C120.25 175.038 120.005 175.451 119.67 175.791C119.338 176.134 118.921 176.393 118.425 176.572C117.929 176.751 117.342 176.842 116.671 176.842H109.298ZM124.86 169.735C124.86 168.383 124.95 167.283 125.134 166.439C125.313 165.597 125.623 164.925 126.061 164.427C126.499 163.931 127.098 163.576 127.852 163.36C128.61 163.147 129.599 163.042 130.819 163.042C132.032 163.042 133.016 163.147 133.773 163.36C134.531 163.576 135.129 163.929 135.57 164.427C136.011 164.922 136.327 165.594 136.513 166.445C136.703 167.292 136.796 168.392 136.796 169.735C136.796 171.288 136.699 172.531 136.51 173.464C136.321 174.399 136.008 175.125 135.567 175.643C135.126 176.155 134.531 176.518 133.786 176.721C133.037 176.925 132.048 177.025 130.819 177.025C129.515 177.025 128.485 176.925 127.725 176.724C126.967 176.523 126.378 176.168 125.962 175.654C125.547 175.141 125.258 174.421 125.1 173.497C124.941 172.573 124.86 171.318 124.86 169.735ZM127.579 170.024C127.579 171.16 127.62 172.032 127.7 172.637C127.78 173.242 127.929 173.701 128.15 174.011C128.37 174.32 128.681 174.527 129.087 174.627C129.494 174.731 130.072 174.782 130.819 174.782C131.561 174.782 132.138 174.727 132.551 174.615C132.963 174.503 133.28 174.29 133.5 173.974C133.72 173.658 133.873 173.202 133.953 172.603C134.037 172.005 134.077 171.145 134.077 170.024C134.077 168.888 134.034 168.01 133.947 167.392C133.857 166.773 133.698 166.311 133.472 166.01C133.246 165.707 132.935 165.509 132.547 165.421C132.157 165.329 131.579 165.284 130.819 165.284C130.037 165.284 129.45 165.329 129.059 165.418C128.668 165.506 128.364 165.703 128.147 166.007C127.929 166.311 127.78 166.767 127.7 167.368C127.62 167.973 127.579 168.857 127.579 170.024ZM158.873 171.957H161.498V172.756C161.498 173.813 161.312 174.646 160.943 175.259C160.574 175.873 159.972 176.314 159.137 176.584C158.299 176.855 157.163 176.989 155.726 176.989C154.544 176.989 153.579 176.879 152.835 176.66C152.093 176.444 151.5 176.071 151.059 175.539C150.622 175.01 150.308 174.287 150.122 173.369C149.936 172.455 149.843 171.255 149.843 169.769C149.843 168.134 150.011 166.837 150.346 165.87C150.68 164.907 151.267 164.196 152.105 163.734C152.94 163.272 154.119 163.042 155.634 163.042C157.135 163.042 158.29 163.211 159.103 163.552C159.913 163.895 160.481 164.4 160.809 165.071C161.139 165.743 161.343 166.639 161.421 167.763H158.817C158.775 167.044 158.656 166.512 158.47 166.171C158.284 165.834 157.976 165.603 157.548 165.482C157.12 165.363 156.481 165.302 155.63 165.302C154.753 165.302 154.104 165.415 153.69 165.636C153.275 165.859 152.987 166.293 152.822 166.943C152.66 167.59 152.58 168.617 152.58 170.024C152.58 171.021 152.626 171.823 152.72 172.434C152.81 173.044 152.971 173.515 153.197 173.852C153.427 174.186 153.734 174.421 154.122 174.552C154.514 174.682 155.035 174.746 155.689 174.746C156.524 174.746 157.167 174.691 157.619 174.579C158.073 174.466 158.395 174.275 158.588 173.999C158.777 173.722 158.873 173.327 158.873 172.813V171.957ZM165.42 169.735C165.42 168.383 165.51 167.283 165.693 166.439C165.873 165.597 166.183 164.925 166.62 164.427C167.058 163.931 167.658 163.576 168.412 163.36C169.169 163.147 170.159 163.042 171.378 163.042C172.592 163.042 173.576 163.147 174.333 163.36C175.09 163.576 175.689 163.929 176.13 164.427C176.57 164.922 176.886 165.594 177.073 166.445C177.262 167.292 177.355 168.392 177.355 169.735C177.355 171.288 177.259 172.531 177.07 173.464C176.881 174.399 176.567 175.125 176.126 175.643C175.686 176.155 175.09 176.518 174.345 176.721C173.597 176.925 172.608 177.025 171.378 177.025C170.075 177.025 169.045 176.925 168.285 176.724C167.527 176.523 166.938 176.168 166.522 175.654C166.106 175.141 165.818 174.421 165.659 173.497C165.501 172.573 165.42 171.318 165.42 169.735ZM168.139 170.024C168.139 171.16 168.179 172.032 168.26 172.637C168.34 173.242 168.489 173.701 168.709 174.011C168.93 174.32 169.24 174.527 169.647 174.627C170.054 174.731 170.631 174.782 171.378 174.782C172.12 174.782 172.698 174.727 173.11 174.615C173.523 174.503 173.84 174.29 174.06 173.974C174.28 173.658 174.432 173.202 174.513 172.603C174.596 172.005 174.637 171.145 174.637 170.024C174.637 168.888 174.594 168.01 174.507 167.392C174.416 166.773 174.258 166.311 174.032 166.01C173.805 165.707 173.495 165.509 173.107 165.421C172.716 165.329 172.139 165.284 171.378 165.284C170.596 165.284 170.01 165.329 169.619 165.418C169.227 165.506 168.923 165.703 168.706 166.007C168.489 166.311 168.34 166.767 168.26 167.368C168.179 167.973 168.139 168.857 168.139 170.024ZM184.684 174.6H191.201V163.169H193.883V174.6H195.13V180H192.634V176.842H182.003V163.169H184.684V174.6ZM211.362 163.187H207.527L202.778 172.339C202.621 172.653 202.481 172.923 202.363 173.148C202.248 173.372 201.999 173.852 201.624 174.582C201.76 173.926 201.829 173.117 201.829 172.157V163.187H199.148V176.842H202.984L207.732 167.657C207.896 167.332 208.05 167.037 208.19 166.767C208.328 166.499 208.56 166.046 208.886 165.411C208.75 166.068 208.681 166.876 208.681 167.839V176.842H211.362V163.187ZM225.155 174.236H219.116L218.244 176.842H215.47L220.106 163.187H224.035L228.765 176.842H226.046L225.155 174.236ZM224.535 172.285L222.117 165.193L219.734 172.285H224.535ZM244.677 163.187V176.842H242.015V165.43H236.708V173.069C236.708 174.172 236.428 175.083 235.867 175.8C235.308 176.521 234.414 176.879 233.185 176.879C232.739 176.879 232.279 176.837 231.811 176.754V174.6C232.031 174.636 232.311 174.654 232.651 174.654C233.189 174.654 233.564 174.53 233.772 174.284C233.979 174.038 234.082 173.701 234.082 173.269V163.187H244.677ZM249.604 176.842V163.187H252.285V168.511H256.682C257.97 168.511 258.954 168.879 259.64 169.617C260.322 170.355 260.663 171.382 260.663 172.704C260.663 173.573 260.512 174.317 260.211 174.938C259.909 175.557 259.463 176.032 258.87 176.357C258.277 176.682 257.56 176.842 256.716 176.842H249.604ZM252.285 174.673H255.786C256.347 174.673 256.781 174.618 257.095 174.512C257.405 174.406 257.629 174.215 257.771 173.935C257.911 173.655 257.983 173.251 257.983 172.719C257.983 171.944 257.815 171.41 257.483 171.118C257.148 170.826 256.583 170.68 255.786 170.68H252.285V174.673ZM277.061 163.187V176.842H274.379V171.009H267.88V176.842H265.199V163.187H267.88V168.784H274.379V163.187H277.061ZM281.931 176.842V163.187H284.613V168.511H289.01C289.65 168.511 290.217 168.605 290.717 168.797C291.216 168.985 291.635 169.261 291.977 169.626C292.319 169.991 292.576 170.431 292.75 170.95C292.923 171.473 293.01 172.057 293.01 172.704C293.01 173.564 292.856 174.306 292.548 174.929C292.238 175.551 291.785 176.025 291.189 176.353C290.592 176.678 289.88 176.842 289.047 176.842H281.931ZM284.613 174.673H288.113C288.678 174.673 289.116 174.618 289.433 174.512C289.745 174.406 289.972 174.215 290.115 173.935C290.258 173.655 290.329 173.251 290.329 172.719C290.329 171.947 290.162 171.416 289.823 171.121C289.485 170.826 288.914 170.68 288.113 170.68H284.613V174.673ZM298.038 163.187V176.842H295.357V163.187H298.038ZM314.819 163.187L310.688 169.787L315.138 176.842H312.048L308.548 171.1L305.009 176.842H301.862L306.44 169.787L302.195 163.187H305.304L308.548 168.605L311.769 163.187H314.819ZM331.106 176.842V165.466H327.066V163.187H337.937V165.466H333.806V176.842H331.106ZM344.747 165.357V168.912H351.286V170.863H344.747V174.691H351.677V176.842H342.103V163.187H351.619V165.357H344.747ZM367.937 163.187L363.806 169.787L368.256 176.842H365.166L361.665 171.1L358.127 176.842H354.98L359.558 169.787L355.313 163.187H358.422L361.665 168.605L364.886 163.187H367.937ZM384.055 163.187V176.842H381.374V171.009H374.875V176.842H372.193V163.187H374.875V168.784H381.374V163.187H384.055ZM388.776 169.735C388.776 168.383 388.866 167.283 389.05 166.439C389.23 165.597 389.54 164.925 389.977 164.427C390.415 163.931 391.014 163.576 391.769 163.36C392.526 163.147 393.516 163.042 394.735 163.042C395.948 163.042 396.932 163.147 397.69 163.36C398.447 163.576 399.046 163.929 399.486 164.427C399.927 164.922 400.243 165.594 400.429 166.445C400.619 167.292 400.712 168.392 400.712 169.735C400.712 171.288 400.615 172.531 400.427 173.464C400.237 174.399 399.924 175.125 399.483 175.643C399.042 176.155 398.447 176.518 397.702 176.721C396.954 176.925 395.964 177.025 394.735 177.025C393.431 177.025 392.401 176.925 391.641 176.724C390.884 176.523 390.294 176.168 389.879 175.654C389.462 175.141 389.174 174.421 389.016 173.497C388.857 172.573 388.776 171.318 388.776 169.735ZM391.496 170.024C391.496 171.16 391.535 172.032 391.616 172.637C391.697 173.242 391.846 173.701 392.066 174.011C392.287 174.32 392.597 174.527 393.003 174.627C393.41 174.731 393.988 174.782 394.735 174.782C395.477 174.782 396.054 174.727 396.467 174.615C396.879 174.503 397.196 174.29 397.417 173.974C397.637 173.658 397.789 173.202 397.869 172.603C397.953 172.005 397.994 171.145 397.994 170.024C397.994 168.888 397.95 168.01 397.864 167.392C397.773 166.773 397.614 166.311 397.388 166.01C397.162 165.707 396.852 165.509 396.464 165.421C396.073 165.329 395.496 165.284 394.735 165.284C393.953 165.284 393.366 165.329 392.976 165.418C392.584 165.506 392.28 165.703 392.063 166.007C391.846 166.311 391.697 166.767 391.616 167.368C391.535 167.973 391.496 168.857 391.496 170.024ZM417.276 163.187V176.842H414.614V165.43H409.307V173.069C409.307 174.172 409.028 175.083 408.466 175.8C407.907 176.521 407.013 176.879 405.785 176.879C405.338 176.879 404.878 176.837 404.41 176.754V174.6C404.63 174.636 404.909 174.654 405.251 174.654C405.788 174.654 406.163 174.53 406.371 174.284C406.579 174.038 406.681 173.701 406.681 173.269V163.187H417.276ZM422.016 169.735C422.016 168.383 422.106 167.283 422.29 166.439C422.469 165.597 422.779 164.925 423.217 164.427C423.655 163.931 424.254 163.576 425.008 163.36C425.766 163.147 426.755 163.042 427.975 163.042C429.188 163.042 430.172 163.147 430.929 163.36C431.687 163.576 432.285 163.929 432.726 164.427C433.167 164.922 433.483 165.594 433.669 166.445C433.858 167.292 433.952 168.392 433.952 169.735C433.952 171.288 433.855 172.531 433.666 173.464C433.477 174.399 433.164 175.125 432.723 175.643C432.282 176.155 431.687 176.518 430.942 176.721C430.193 176.925 429.204 177.025 427.975 177.025C426.671 177.025 425.641 176.925 424.881 176.724C424.124 176.523 423.534 176.168 423.118 175.654C422.703 175.141 422.414 174.421 422.256 173.497C422.097 172.573 422.016 171.318 422.016 169.735ZM424.735 170.024C424.735 171.16 424.776 172.032 424.856 172.637C424.936 173.242 425.085 173.701 425.306 174.011C425.526 174.32 425.837 174.527 426.243 174.627C426.65 174.731 427.227 174.782 427.975 174.782C428.717 174.782 429.293 174.727 429.707 174.615C430.119 174.503 430.436 174.29 430.656 173.974C430.876 173.658 431.029 173.202 431.109 172.603C431.193 172.005 431.233 171.145 431.233 170.024C431.233 168.888 431.19 168.01 431.103 167.392C431.013 166.773 430.854 166.311 430.628 166.01C430.402 165.707 430.091 165.509 429.703 165.421C429.313 165.329 428.735 165.284 427.975 165.284C427.193 165.284 426.606 165.329 426.215 165.418C425.824 165.506 425.52 165.703 425.303 166.007C425.085 166.311 424.936 166.767 424.856 167.368C424.776 167.973 424.735 168.857 424.735 170.024ZM441.299 176.842V165.466H447.742V163.187H438.599V176.842H441.299ZM463.863 163.187H460.026L455.278 172.339C455.12 172.653 454.98 172.923 454.863 173.148C454.748 173.372 454.499 173.852 454.124 174.582C454.261 173.926 454.329 173.117 454.329 172.157V163.187H451.647V176.842H455.484L460.231 167.657C460.395 167.332 460.55 167.037 460.69 166.767C460.827 166.499 461.06 166.046 461.386 165.411C461.249 166.068 461.181 166.876 461.181 167.839V176.842H463.863V163.187ZM481.079 163.187H477.243L472.494 172.339C472.355 172.601 472.188 172.92 472.002 173.29C471.812 173.661 471.591 174.087 471.34 174.563C471.477 173.931 471.546 173.129 471.546 172.157V163.187H468.863V176.842H472.7L477.447 167.639C477.609 167.326 477.994 166.584 478.602 165.411C478.465 166.055 478.397 166.864 478.397 167.839V176.842H481.079V163.187ZM474.654 162.385C473.664 162.385 472.892 162.19 472.339 161.805C471.787 161.416 471.511 160.735 471.511 159.759H473.243C473.243 160.042 473.279 160.261 473.357 160.416C473.435 160.568 473.575 160.675 473.776 160.738C473.978 160.802 474.27 160.836 474.654 160.836C475.269 160.836 475.679 160.762 475.88 160.614C476.082 160.468 476.181 160.182 476.181 159.759H477.86C477.86 160.738 477.581 161.422 477.023 161.808C476.461 162.194 475.672 162.385 474.654 162.385Z" fill="#008138"/>
<path fill-rule="evenodd" clip-rule="evenodd" d="M3.51807 11.9135H6.92695C6.92695 12.6202 6.97684 13.1694 7.08002 13.5611C7.18355 13.949 7.37363 14.2449 7.64653 14.4405C7.92418 14.6365 8.31282 14.767 8.82162 14.8322C9.33043 14.8974 10.0385 14.9324 10.9441 14.9324C12.057 14.9324 12.9056 14.8438 13.4972 14.6715C14.0882 14.4982 14.4982 14.2294 14.726 13.8648C14.9537 13.4996 15.0651 13.0197 15.0651 12.4207C15.0651 11.7562 14.9286 11.2647 14.6516 10.9461C14.3787 10.6266 13.9317 10.4082 13.3109 10.285C12.6904 10.1621 11.7349 10.0698 10.4478 10.0005C8.89597 9.93906 7.62651 9.76291 6.64149 9.46672C5.65308 9.17147 4.89547 8.66039 4.36596 7.93473C3.83679 7.20906 3.5717 6.19131 3.5717 4.88902C3.5717 3.84794 3.79503 2.97262 4.23765 2.25388C4.68467 1.5361 5.44636 0.979007 6.52574 0.587343C7.60138 0.195679 9.05346 0 10.8694 0C13.2362 0 15.0196 0.310667 16.2191 0.936763C17.4234 1.56317 18.0401 2.76496 18.0727 4.53549V5.2038H14.6391C14.6391 4.47025 14.5352 3.92105 14.3244 3.55995C14.1092 3.19538 13.745 2.9452 13.2237 2.80719C12.7067 2.67264 11.9457 2.60364 10.9441 2.60364C9.45906 2.60364 8.44994 2.79553 7.9201 3.18372C7.38618 3.57161 7.12177 4.14793 7.12177 4.90794C7.12177 5.56113 7.20052 6.03345 7.36107 6.32555C7.51857 6.61701 7.91197 6.8401 8.5321 6.98977C9.15699 7.13975 10.1664 7.23554 11.5693 7.28123C13.1208 7.31274 14.4028 7.47784 15.4123 7.77308C16.4224 8.07305 17.1875 8.57248 17.7089 9.27483C18.2302 9.97403 18.4906 10.9228 18.4906 12.1208C18.4906 13.4921 18.2879 14.5713 17.8827 15.3549C17.4811 16.1345 16.732 16.7146 15.6441 17.0908C14.5563 17.4635 12.9884 17.6517 10.9441 17.6517C9.23979 17.6517 7.86988 17.5329 6.83225 17.2902C5.7936 17.0486 4.98677 16.5608 4.40771 15.8272C3.83272 15.0978 3.5347 14.0218 3.51807 12.6048V11.9135ZM23.3026 8.46062C23.3026 6.75155 23.4231 5.36134 23.6668 4.29316C23.9068 3.22972 24.3202 2.38118 24.9037 1.75131C25.4879 1.1249 26.2862 0.675875 27.2919 0.403317C28.3014 0.134226 29.6211 0 31.2473 0C32.865 0 34.1765 0.134226 35.186 0.403317C36.1951 0.675875 36.9938 1.12111 37.5813 1.75131C38.1685 2.3774 38.5911 3.22563 38.8389 4.30105C39.0918 5.37301 39.2157 6.7632 39.2157 8.46062C39.2157 10.423 39.0874 11.9941 38.8348 13.1735C38.583 14.3561 38.1645 15.2743 37.5769 15.9268C36.9894 16.5762 36.1951 17.0331 35.2026 17.2902C34.205 17.5477 32.886 17.675 31.2473 17.675C29.5098 17.675 28.1357 17.5477 27.1222 17.2943C26.1121 17.041 25.3263 16.592 24.7713 15.9423C24.2174 15.2935 23.8325 14.3832 23.6213 13.2154C23.4106 12.0477 23.3026 10.4621 23.3026 8.46062ZM26.9281 8.82581C26.9281 10.2623 26.9817 11.3639 27.0896 12.1287C27.1966 12.8931 27.3951 13.4725 27.6887 13.8648C27.9827 14.2565 28.3967 14.5174 28.9385 14.6441C29.4805 14.7748 30.2497 14.8401 31.2473 14.8401C32.2357 14.8401 33.0055 14.7707 33.5557 14.6286C34.1063 14.4872 34.5282 14.2177 34.8218 13.8182C35.1157 13.419 35.318 12.8433 35.426 12.0864C35.5373 11.3299 35.5916 10.2428 35.5916 8.82581C35.5916 7.38929 35.5332 6.27923 35.4178 5.49968C35.298 4.71604 35.0862 4.13247 34.7848 3.75183C34.4827 3.36805 34.0686 3.1185 33.5513 3.00665C33.0306 2.89164 32.2608 2.83428 31.2473 2.83428C30.2046 2.83428 29.4229 2.89162 28.9015 3.00285C28.3801 3.11471 27.9749 3.36396 27.6853 3.74806C27.3951 4.13248 27.1966 4.70815 27.0896 5.46879C26.9817 6.23321 26.9281 7.35054 26.9281 8.82581ZM56.3113 11.2684H59.8111V12.2783C59.8111 13.6146 59.5634 14.6674 59.0705 15.4428C58.5783 16.2189 57.7759 16.776 56.6629 17.1179C55.5456 17.4598 54.0314 17.6283 52.116 17.6283C50.54 17.6283 49.2529 17.49 48.2601 17.2134C47.271 16.9408 46.4808 16.4685 45.8932 15.7964C45.3101 15.1281 44.8923 14.2146 44.6438 13.0544C44.396 11.8983 44.2715 10.3811 44.2715 8.50318C44.2715 6.43678 44.4948 4.79669 44.9418 3.57538C45.3885 2.35785 46.1706 1.45921 47.2876 0.875653C48.4006 0.291466 49.9731 0 51.9921 0C53.9947 0 55.5337 0.21457 56.6175 0.64499C57.6972 1.07919 58.4544 1.71633 58.893 2.56551C59.3315 3.41375 59.6044 4.54713 59.7083 5.96822H56.2366C56.1789 5.05791 56.0218 4.3858 55.7733 3.95538C55.5255 3.52937 55.1155 3.23729 54.5446 3.08353C53.9737 2.93385 53.1217 2.8576 51.9877 2.8576C50.817 2.8576 49.9524 2.99906 49.4016 3.2795C48.8476 3.55993 48.4627 4.10915 48.2434 4.93123C48.0282 5.74922 47.921 7.04741 47.921 8.82581C47.921 10.0853 47.9831 11.0993 48.107 11.8712C48.2268 12.6435 48.4417 13.2387 48.7438 13.6651C49.0503 14.0873 49.4603 14.3832 49.9766 14.5486C50.4979 14.7134 51.1934 14.7941 52.0664 14.7941C53.1794 14.7941 54.0358 14.725 54.64 14.5829C55.2441 14.4405 55.6742 14.1988 55.9304 13.8494C56.1833 13.4997 56.3113 13.0002 56.3113 12.3514V11.2684ZM68.2194 0.184001V17.4443H64.6694V0.184001H68.2194ZM85.8449 14.1484H77.7937L76.6311 17.4443H72.9321L79.1137 0.184001H84.3511L90.6563 17.4443H87.0325L85.8449 14.1484ZM85.0174 11.6834L81.7942 2.71927L78.6171 11.6834H85.0174ZM98.9903 0.184001V14.5634H107.608V17.4443H95.39V0.184001H98.9903ZM127.453 17.4443V3.06492H122.066V0.184001H136.559V3.06492H131.052V17.4443H127.453ZM144.971 2.92659V7.41955H153.689V9.88549H144.971V14.725H154.21V17.4443H141.446V0.184001H154.131V2.92659H144.971ZM170.954 11.2684H174.455V12.2783C174.455 13.6146 174.207 14.6674 173.714 15.4428C173.222 16.2189 172.419 16.776 171.306 17.1179C170.188 17.4598 168.674 17.6283 166.759 17.6283C165.183 17.6283 163.896 17.49 162.903 17.2134C161.914 16.9408 161.124 16.4685 160.536 15.7964C159.953 15.1281 159.535 14.2146 159.287 13.0544C159.039 11.8983 158.914 10.3811 158.914 8.50318C158.914 6.43678 159.138 4.79669 159.585 3.57538C160.032 2.35785 160.813 1.45921 161.931 0.875653C163.044 0.291466 164.616 0 166.635 0C168.637 0 170.177 0.21457 171.261 0.64499C172.341 1.07919 173.098 1.71633 173.537 2.56551C173.975 3.41375 174.248 4.54713 174.352 5.96822H170.88C170.822 5.05791 170.664 4.3858 170.416 3.95538C170.168 3.52937 169.758 3.23729 169.187 3.08353C168.617 2.93385 167.764 2.8576 166.631 2.8576C165.46 2.8576 164.595 2.99906 164.045 3.2795C163.49 3.55993 163.105 4.10915 162.886 4.93123C162.671 5.74922 162.564 7.04741 162.564 8.82581C162.564 10.0853 162.626 11.0993 162.75 11.8712C162.87 12.6435 163.085 13.2387 163.387 13.6651C163.693 14.0873 164.103 14.3832 164.62 14.5486C165.141 14.7134 165.836 14.7941 166.709 14.7941C167.822 14.7941 168.678 14.725 169.283 14.5829C169.887 14.4405 170.317 14.1988 170.574 13.8494C170.826 13.4997 170.954 13.0002 170.954 12.3514V11.2684ZM195.075 0.184001V17.4443H191.501V10.0698H182.837V17.4443H179.263V0.184001H182.837V7.25885H191.501V0.184001H195.075ZM218.254 0.184001V17.4443H212.296L204.427 2.99561H204.323L204.427 17.4443H200.902V0.184001H206.855L214.733 14.6324H214.828L214.733 0.184001H218.254ZM223.852 8.46062C223.852 6.75155 223.973 5.36134 224.217 4.29316C224.457 3.22972 224.87 2.38118 225.454 1.75131C226.038 1.1249 226.836 0.675875 227.841 0.403317C228.851 0.134226 230.17 0 231.796 0C233.414 0 234.726 0.134226 235.735 0.403317C236.744 0.675875 237.543 1.12111 238.13 1.75131C238.718 2.3774 239.14 3.22563 239.388 4.30105C239.641 5.37301 239.765 6.7632 239.765 8.46062C239.765 10.423 239.637 11.9941 239.384 13.1735C239.132 14.3561 238.714 15.2743 238.126 15.9268C237.539 16.5762 236.744 17.0331 235.752 17.2902C234.754 17.5477 233.435 17.675 231.796 17.675C230.059 17.675 228.685 17.5477 227.671 17.2943C226.662 17.041 225.876 16.592 225.321 15.9423C224.767 15.2935 224.382 14.3832 224.171 13.2154C223.96 12.0477 223.852 10.4621 223.852 8.46062ZM227.477 8.82581C227.477 10.2623 227.531 11.3639 227.639 12.1287C227.746 12.8931 227.944 13.4725 228.238 13.8648C228.532 14.2565 228.946 14.5174 229.488 14.6441C230.03 14.7748 230.799 14.8401 231.796 14.8401C232.785 14.8401 233.555 14.7707 234.105 14.6286C234.655 14.4872 235.077 14.2177 235.371 13.8182C235.665 13.419 235.867 12.8433 235.975 12.0864C236.086 11.3299 236.141 10.2428 236.141 8.82581C236.141 7.38929 236.082 6.27923 235.967 5.49968C235.847 4.71604 235.635 4.13247 235.334 3.75183C235.032 3.36805 234.618 3.1185 234.1 3.00665C233.58 2.89164 232.81 2.83428 231.796 2.83428C230.754 2.83428 229.972 2.89162 229.451 3.00285C228.929 3.11471 228.524 3.36396 228.234 3.74806C227.944 4.13248 227.746 4.70815 227.639 5.46879C227.531 6.23321 227.477 7.35054 227.477 8.82581ZM248.967 0.184001V14.5634H257.585V17.4443H245.368V0.184001H248.967ZM262.215 8.46062C262.215 6.75155 262.335 5.36134 262.579 4.29316C262.819 3.22972 263.232 2.38118 263.816 1.75131C264.4 1.1249 265.198 0.675875 266.204 0.403317C267.213 0.134226 268.533 0 270.159 0C271.777 0 273.088 0.134226 274.097 0.403317C275.107 0.675875 275.905 1.12111 276.493 1.75131C277.08 2.3774 277.503 3.22563 277.75 4.30105C278.003 5.37301 278.127 6.7632 278.127 8.46062C278.127 10.423 277.999 11.9941 277.746 13.1735C277.494 14.3561 277.076 15.2743 276.489 15.9268C275.901 16.5762 275.107 17.0331 274.114 17.2902C273.117 17.5477 271.797 17.675 270.159 17.675C268.421 17.675 267.047 17.5477 266.034 17.2943C265.024 17.041 264.238 16.592 263.684 15.9423C263.13 15.2935 262.744 14.3832 262.534 13.2154C262.323 12.0477 262.215 10.4621 262.215 8.46062ZM265.839 8.82581C265.839 10.2623 265.893 11.3639 266.001 12.1287C266.108 12.8931 266.306 13.4725 266.6 13.8648C266.894 14.2565 267.308 14.5174 267.85 14.6441C268.392 14.7748 269.161 14.8401 270.159 14.8401C271.147 14.8401 271.917 14.7707 272.467 14.6286C273.018 14.4872 273.439 14.2177 273.733 13.8182C274.027 13.419 274.23 12.8433 274.338 12.0864C274.449 11.3299 274.503 10.2428 274.503 8.82581C274.503 7.38929 274.445 6.27923 274.329 5.49968C274.209 4.71604 273.998 4.13247 273.696 3.75183C273.394 3.36805 272.98 3.1185 272.463 3.00665C271.942 2.89164 271.172 2.83428 270.159 2.83428C269.116 2.83428 268.334 2.89162 267.813 3.00285C267.291 3.11471 266.886 3.36396 266.597 3.74806C266.306 4.13248 266.108 4.70815 266.001 5.46879C265.893 6.23321 265.839 7.35054 265.839 8.82581ZM291.103 8.29583H299.319V10.1855C299.319 11.633 299.208 12.8162 298.984 13.7382C298.765 14.6598 298.364 15.4047 297.793 15.9813C297.218 16.5532 296.407 16.9717 295.36 17.2329C294.309 17.4979 292.952 17.6283 291.276 17.6283C289.502 17.6283 288.083 17.4784 287.019 17.1831C285.956 16.8872 285.145 16.407 284.586 15.7466C284.028 15.0861 283.643 14.2146 283.44 13.1385C283.238 12.0593 283.134 10.6228 283.134 8.82581C283.134 7.13974 283.246 5.75301 283.465 4.66624C283.685 3.57916 284.082 2.69186 284.657 2.00433C285.227 1.31679 286.047 0.810409 287.11 0.48712C288.177 0.160681 289.563 0 291.276 0C292.758 0 293.986 0.083804 294.963 0.257107C295.939 0.425683 296.733 0.710208 297.338 1.11322C297.942 1.51276 298.397 2.06198 298.695 2.7574C298.993 3.44872 299.166 4.33602 299.216 5.41523H295.815C295.745 4.8386 295.641 4.39336 295.513 4.0789C295.385 3.76349 295.17 3.51395 294.868 3.32993C294.565 3.14497 294.139 3.0183 293.581 2.9452C293.022 2.87241 292.257 2.83428 291.276 2.83428C290.246 2.83428 289.444 2.91495 288.869 3.07187C288.298 3.23351 287.859 3.52181 287.549 3.94057C287.239 4.3587 287.031 4.93882 286.924 5.68402C286.812 6.4289 286.759 7.47405 286.759 8.82581C286.759 10.2195 286.812 11.2949 286.924 12.0439C287.031 12.7929 287.239 13.373 287.545 13.7801C287.855 14.1872 288.294 14.4601 288.869 14.6022C289.439 14.7443 290.246 14.8174 291.276 14.8174C292.539 14.8174 293.478 14.7326 294.102 14.5596C294.723 14.3907 295.166 14.0567 295.426 13.5535C295.687 13.0544 295.815 12.2824 295.815 11.2451V10.7611H291.103V8.29583ZM307.901 0.184001V17.4443H304.351V0.184001H307.901ZM317.331 2.92659V7.41955H326.048V9.88549H317.331V14.725H326.57V17.4443H313.805V0.184001H326.491V2.92659H317.331ZM331.022 11.9135H334.431C334.431 12.6202 334.481 13.1694 334.584 13.5611C334.688 13.949 334.878 14.2449 335.15 14.4405C335.428 14.6365 335.817 14.767 336.326 14.8322C336.834 14.8974 337.542 14.9324 338.448 14.9324C339.561 14.9324 340.41 14.8438 341.002 14.6715C341.592 14.4982 342.002 14.2294 342.23 13.8648C342.458 13.4996 342.569 13.0197 342.569 12.4207C342.569 11.7562 342.433 11.2647 342.156 10.9461C341.883 10.6266 341.436 10.4082 340.815 10.285C340.195 10.1621 339.239 10.0698 337.952 10.0005C336.4 9.93906 335.13 9.76291 334.145 9.46672C333.157 9.17147 332.4 8.66039 331.87 7.93473C331.341 7.20906 331.076 6.19131 331.076 4.88902C331.076 3.84794 331.299 2.97262 331.742 2.25388C332.189 1.5361 332.95 0.979007 334.03 0.587343C335.105 0.195679 336.557 0 338.374 0C340.74 0 342.524 0.310667 343.723 0.936763C344.927 1.56317 345.544 2.76496 345.577 4.53549V5.2038H342.143C342.143 4.47025 342.039 3.92105 341.828 3.55995C341.613 3.19538 341.249 2.9452 340.728 2.80719C340.211 2.67264 339.45 2.60364 338.448 2.60364C336.963 2.60364 335.954 2.79553 335.424 3.18372C334.89 3.57161 334.626 4.14793 334.626 4.90794C334.626 5.56113 334.704 6.03345 334.865 6.32555C335.023 6.61701 335.416 6.8401 336.036 6.98977C336.661 7.13975 337.67 7.23554 339.073 7.28123C340.625 7.31274 341.907 7.47784 342.916 7.77308C343.926 8.07305 344.691 8.57248 345.213 9.27483C345.734 9.97403 345.995 10.9228 345.995 12.1208C345.995 13.4921 345.792 14.5713 345.387 15.3549C344.985 16.1345 344.236 16.7146 343.148 17.0908C342.06 17.4635 340.492 17.6517 338.448 17.6517C336.744 17.6517 335.374 17.5329 334.336 17.2902C333.297 17.0486 332.491 16.5608 331.912 15.8272C331.337 15.0978 331.039 14.0218 331.022 12.6048V11.9135ZM373.374 14.1484H365.323L364.161 17.4443H360.462L366.643 0.184001H371.881L378.186 17.4443H374.562L373.374 14.1484ZM372.547 11.6834L369.324 2.71927L366.147 11.6834H372.547ZM390.293 8.29583H398.509V10.1855C398.509 11.633 398.398 12.8162 398.174 13.7382C397.955 14.6598 397.554 15.4047 396.983 15.9813C396.408 16.5532 395.597 16.9717 394.55 17.2329C393.499 17.4979 392.142 17.6283 390.467 17.6283C388.691 17.6283 387.272 17.4784 386.209 17.1831C385.145 16.8872 384.335 16.407 383.776 15.7466C383.217 15.0861 382.832 14.2146 382.63 13.1385C382.427 12.0593 382.323 10.6228 382.323 8.82581C382.323 7.13974 382.435 5.75301 382.655 4.66624C382.874 3.57916 383.271 2.69186 383.846 2.00433C384.417 1.31679 385.236 0.810409 386.299 0.48712C387.367 0.160681 388.754 0 390.467 0C391.948 0 393.177 0.083804 394.153 0.257107C395.129 0.425683 395.923 0.710208 396.527 1.11322C397.132 1.51276 397.587 2.06198 397.885 2.7574C398.183 3.44872 398.356 4.33602 398.406 5.41523H395.005C394.935 4.8386 394.831 4.39336 394.703 4.0789C394.575 3.76349 394.36 3.51395 394.058 3.32993C393.756 3.14497 393.33 3.0183 392.771 2.9452C392.212 2.87241 391.447 2.83428 390.467 2.83428C389.436 2.83428 388.634 2.91495 388.059 3.07187C387.487 3.23351 387.049 3.52181 386.738 3.94057C386.428 4.3587 386.221 4.93882 386.113 5.68402C386.002 6.4289 385.948 7.47405 385.948 8.82581C385.948 10.2195 386.002 11.2949 386.113 12.0439C386.221 12.7929 386.428 13.373 386.734 13.7801C387.045 14.1872 387.483 14.4601 388.059 14.6022C388.63 14.7443 389.436 14.8174 390.467 14.8174C391.729 14.8174 392.667 14.7326 393.292 14.5596C393.913 14.3907 394.356 14.0567 394.616 13.5535C394.877 13.0544 395.005 12.2824 395.005 11.2451V10.7611H390.293V8.29583ZM407.016 2.92659V7.41955H415.734V9.88549H407.016V14.725H416.255V17.4443H403.491V0.184001H416.177V2.92659H407.016ZM438.734 0.184001V17.4443H432.776L424.908 2.99561H424.804L424.908 17.4443H421.382V0.184001H427.336L435.213 14.6324H435.308L435.213 0.184001H438.734ZM456.149 11.2684H459.649V12.2783C459.649 13.6146 459.401 14.6674 458.908 15.4428C458.416 16.2189 457.614 16.776 456.5 17.1179C455.383 17.4598 453.869 17.6283 451.954 17.6283C450.377 17.6283 449.09 17.49 448.098 17.2134C447.109 16.9408 446.318 16.4685 445.731 15.7964C445.148 15.1281 444.73 14.2146 444.481 13.0544C444.234 11.8983 444.109 10.3811 444.109 8.50318C444.109 6.43678 444.332 4.79669 444.779 3.57538C445.226 2.35785 446.008 1.45921 447.125 0.875653C448.238 0.291466 449.811 0 451.829 0C453.832 0 455.371 0.21457 456.455 0.64499C457.535 1.07919 458.292 1.71633 458.731 2.56551C459.169 3.41375 459.442 4.54713 459.546 5.96822H456.074C456.017 5.05791 455.859 4.3858 455.611 3.95538C455.363 3.52937 454.953 3.23729 454.382 3.08353C453.811 2.93385 452.959 2.8576 451.825 2.8576C450.655 2.8576 449.79 2.99906 449.239 3.2795C448.685 3.55993 448.3 4.10915 448.081 4.93123C447.866 5.74922 447.759 7.04741 447.759 8.82581C447.759 10.0853 447.821 11.0993 447.945 11.8712C448.065 12.6435 448.279 13.2387 448.581 13.6651C448.888 14.0873 449.298 14.3832 449.814 14.5486C450.336 14.7134 451.031 14.7941 451.904 14.7941C453.017 14.7941 453.873 14.725 454.478 14.5829C455.082 14.4405 455.512 14.1988 455.768 13.8494C456.021 13.4997 456.149 13.0002 456.149 12.3514V11.2684ZM480.345 0.184001L473.444 10.8078V17.4443H469.869V10.8078L463.212 0.184001H467.238L471.731 7.55788L476.204 0.184001H480.345Z" fill="#F0AD00"/>
<path fill-rule="evenodd" clip-rule="evenodd" d="M199.095 81.6498L199.335 94.9585C192.431 95.4872 183.78 95.0657 176.86 95.0644C170.93 95.0638 161.536 95.9142 161.654 88.3626C161.782 80.2127 170.517 81.3876 176.86 81.3876C183.167 81.3876 193.241 80.8444 199.095 81.6498ZM0.15401 61.9806C2.58839 71.045 6.6357 77.6052 16.8335 80.2253C26.4287 82.6906 44.9588 79.5412 52.2874 81.8871C56.9667 83.3857 58.4001 90.6275 54.7713 93.4817C49.93 97.2893 10.5999 93.1678 1.03075 95.3218L0.980516 110.887C5.10117 111.893 28.6931 111.188 34.7583 111.188C43.3754 111.188 59.2025 112.24 66.6184 108.608C81.8485 101.149 83.9614 76.1889 65.8757 68.3099C50.9636 61.8142 25.365 71.027 23.1288 60.3711C21.8852 54.4404 24.9309 52.0447 30.8525 51.8317C38.3508 51.5626 95.2905 51.2862 99.0636 51.9315L99.1796 112.243C102.595 112.729 119.206 112.822 122.1 112.155L122.16 51.6952C137.413 52.0242 152.818 51.7595 167.943 51.7595C179.783 51.7595 202.075 48.2582 199.087 65.0638C192.07 66.5079 166.45 63.4726 153.376 67.0174C140.455 70.52 136.316 86.6211 140.276 97.4689C145.332 111.323 160.337 111.131 173.516 111.174C180.544 111.196 218.122 111.64 221.811 110.926C221.968 103.217 222.16 68.3969 221.55 60.8488C221.02 54.2752 218.644 52.304 217.558 47.5032L480.312 47.4969V45.1841C440.494 44.8255 384.932 45.3461 345.152 45.3461H227.571L217.513 45.3335C215.587 45.3309 214.184 44.3223 213.965 42.9466C215.946 42.2496 422.184 42.3523 480.312 42.5959V40.6174C479.616 40.6395 479.026 40.6555 478.588 40.6555L219.769 40.6618C211.93 40.664 212.566 41.6815 206.024 37.9117L240.387 37.6325C297.785 37.6325 355.183 37.6325 412.581 37.6325C417.462 37.6325 461.81 37.9857 480.312 37.7689V35.6348L35.873 35.6411C27.6762 35.6424 15.1767 34.5985 8.52666 39.6932C0.822336 45.5969 -0.523148 53.1948 0.15401 61.9806Z" fill="#F0AD00"/>
<path fill-rule="evenodd" clip-rule="evenodd" d="M392.302 141.172C393.06 139.115 392.866 125.816 392.413 123.246C379.508 122.004 363.674 124.424 350.796 122.474C342.867 121.274 342.179 118.017 342.031 111.024C341.913 105.405 341.589 96.7737 342.577 91.396C343.777 84.8597 349.537 84.3048 355.672 83.8384C363.362 83.2536 412.64 83.3478 419.512 83.5873L419.685 141.317L443.287 141.427L443.5 83.7171L480.312 83.5439L480.309 66.1386C477.603 65.1312 379.005 65.734 362.042 65.7283C331.454 65.7189 319.603 68.9117 319.094 99.6049C318.629 127.648 322.933 139.876 353.201 141.255C358.152 141.48 389.637 141.938 392.302 141.172Z" fill="#008138"/>
<path fill-rule="evenodd" clip-rule="evenodd" d="M290.393 124.956C285.845 125.827 273.116 125.211 267.664 125.229C261.776 125.248 252.284 125.961 252.586 118.294C252.905 110.237 261.966 111.545 268.222 111.539C274.654 111.533 284.342 111.019 290.458 111.708L290.393 124.956ZM0 130.693L222.988 130.696L229.83 130.668C232.111 130.658 234.14 131.526 234.094 133.723L0 133.856V135.8C4.20721 135.753 8.36622 135.72 12.4427 135.72H215.728L234.825 135.844C237.038 135.857 241.478 137.695 242.205 139.437L0 139.564V141.375L312.695 141.473C313.416 136.695 312.912 128.557 312.905 123.458C312.884 107.462 315.405 84.8338 305.919 74.4625C297.597 65.3622 287.409 65.7712 275.482 65.7337C268.988 65.7117 239.654 65.3745 235.737 65.9316C235.234 68.539 235.033 80.9462 235.949 83.1393C239.539 84.4639 263.513 83.6217 269.339 83.6267C279.929 83.6362 291.514 81.8414 290.304 95.2103C277.404 97.0303 256.17 93.1092 243.944 97.2776C238.004 99.3018 234.198 103.257 231.711 108.757C227.585 117.878 231.006 123.872 231.043 128.661L0 128.75V130.693Z" fill="#008138"/>
</svg>
