<svg width="151" height="150" viewBox="0 0 151 150" fill="none" xmlns="http://www.w3.org/2000/svg">
<path d="M12.6479 63.0188C19.2629 63.0188 24.6261 68.385 24.6261 75C24.6261 81.618 19.2629 86.9812 12.6479 86.9812C6.02992 86.9812 0.666748 81.618 0.666748 75C0.666748 68.385 6.02992 63.0188 12.6479 63.0188ZM138.686 63.0188C145.301 63.0188 150.667 68.385 150.667 75C150.667 81.618 145.301 86.9812 138.686 86.9812C132.068 86.9812 126.701 81.618 126.701 75C126.701 68.385 132.068 63.0188 138.686 63.0188ZM63.6856 138.019C63.6856 131.401 69.0487 126.038 75.6667 126.038C82.2817 126.038 87.6449 131.401 87.6449 138.019C87.6449 144.637 82.2817 150 75.6667 150C69.0487 150 63.6856 144.637 63.6856 138.019ZM63.6856 11.9812C63.6856 5.36318 69.0487 0 75.6667 0C82.2817 0 87.6449 5.36318 87.6449 11.9812C87.6449 18.5992 82.2817 23.9624 75.6667 23.9624C69.0487 23.9624 63.6856 18.5992 63.6856 11.9812ZM92.7909 80.0826C92.9598 78.4085 93.0533 76.7163 93.0533 75C93.0533 73.2837 92.9598 71.5915 92.7909 69.9174C95.8526 71.2777 98.7272 72.9881 101.358 75C98.7272 77.015 95.8526 78.7222 92.7909 80.0826ZM75.6667 100.694C73.6518 98.0635 71.9415 95.1888 70.5841 92.1272C72.2552 92.2931 73.9504 92.3896 75.6667 92.3896C77.3801 92.3896 79.0753 92.2931 80.7464 92.1272C79.389 95.1888 77.6787 98.0635 75.6667 100.694ZM49.973 75C52.6033 72.9881 55.4749 71.2777 58.5366 69.9174C58.3707 71.5915 58.2771 73.2837 58.2771 75C58.2771 76.7163 58.3707 78.4085 58.5366 80.0826C55.4749 78.7222 52.6033 77.015 49.973 75ZM84.3721 75C84.3721 77.7178 84.1067 80.3722 83.615 82.9482C81.039 83.4399 78.3845 83.7054 75.6667 83.7054C72.949 83.7054 70.2915 83.4399 67.7155 82.9482C67.2238 80.3722 66.9584 77.7178 66.9584 75C66.9584 72.2822 67.2238 69.6278 67.7155 67.0518C70.2915 66.5601 72.949 66.2946 75.6667 66.2946C78.3845 66.2946 81.039 66.5601 83.615 67.0518C84.1067 69.6278 84.3721 72.2822 84.3721 75ZM75.6667 49.3092C77.6787 51.9365 79.389 54.8112 80.7464 57.8728C79.0753 57.7069 77.3801 57.6134 75.6667 57.6134C73.9504 57.6134 72.2552 57.7069 70.5841 57.8728C71.9415 54.8112 73.6518 51.9365 75.6667 49.3092ZM118.02 41.352C118.02 51.9003 114.144 61.5589 107.74 68.9823C102.766 64.9523 97.0229 61.8394 90.7699 59.8968C88.8273 53.6438 85.7114 47.8976 81.6845 42.9235C89.1048 36.5197 98.7664 32.6436 109.315 32.6436V23.9624C96.4347 23.9624 84.6556 28.7615 75.6667 36.6614C66.6748 28.7615 54.8957 23.9624 42.0157 23.9624V32.6436C52.5641 32.6436 62.2256 36.5197 69.649 42.9235C65.6191 47.8976 62.5061 53.6438 60.5636 59.8968C54.3075 61.8394 48.5643 64.9523 43.5903 68.9823C37.1864 61.5589 33.3103 51.9003 33.3103 41.352H24.6261C24.6261 54.232 29.4252 66.0111 37.3252 75C29.4252 83.9889 24.6261 95.771 24.6261 108.651H33.3103C33.3103 98.0997 37.1864 88.4411 43.5903 81.0177C48.5643 85.0477 54.3075 88.1606 60.5636 90.1032C62.5061 96.3562 65.6191 102.102 69.649 107.076C62.2256 113.477 52.5641 117.356 42.0157 117.356V126.038C54.8957 126.038 66.6748 121.239 75.6667 113.342C84.6556 121.239 96.4347 126.038 109.315 126.038V117.356C98.7664 117.356 89.1048 113.477 81.6845 107.076C85.7114 102.102 88.8273 96.3562 90.7699 90.1032C97.0229 88.1606 102.766 85.0477 107.74 81.0177C114.144 88.4411 118.02 98.0997 118.02 108.651H126.701C126.701 95.771 121.905 83.9889 114.005 75C121.905 66.0111 126.701 54.232 126.701 41.352H118.02Z" fill="white"/>
</svg>
