<svg width="136" height="120" viewBox="0 0 136 120" fill="none" xmlns="http://www.w3.org/2000/svg">
<path d="M127.387 94.8571V89.1429L134.122 84.5714C134.734 84 135.346 83.4286 134.734 82.8571L128.612 73.1429C128.612 72.5714 127.387 72.5714 126.775 72.5714L119.428 75.4286C117.591 74.2857 115.754 73.1429 113.918 72.5714L112.693 65.1429C112.693 64.5714 112.081 64 111.469 64H99.2238C97.9993 64 97.387 64.5714 97.387 65.1429L96.1626 72.5714C94.3258 73.7143 93.1013 74.2857 91.2646 75.4286L83.9176 72.5714C83.3054 72.5714 82.6932 72.5714 82.0809 73.1429L75.9585 82.8571C75.9585 83.4286 75.9585 84 76.5707 84.5714L83.3054 89.1429V94.8571L76.5707 99.4286C75.9585 100 75.3462 100.571 75.9585 101.143L82.0809 110.857C82.6932 111.429 83.3054 111.429 83.9176 111.429L91.2646 108.571C92.4891 109.714 94.3258 110.857 96.1626 111.429L97.387 118.857C97.9993 119.429 98.6115 120 99.2238 120H111.469C112.081 120 112.693 119.429 112.693 118.857L113.918 111.429C115.754 110.286 116.979 109.714 118.816 108.571L126.163 110.857C126.775 110.857 127.387 110.857 127.999 110.286L134.122 100.571C134.734 100 134.734 99.4286 134.122 99.4286L127.387 94.8571ZM104.734 100C99.836 100 95.5503 96 95.5503 91.4286C95.5503 86.8571 99.836 82.8571 104.734 82.8571C109.632 82.8571 113.918 86.8571 113.918 91.4286C113.918 96 109.632 100 104.734 100ZM69.836 114.286H12.8972C6.16255 114.286 0.652344 109.143 0.652344 102.857V11.4286C0.652344 5.14286 6.16255 0 12.8972 0H123.101C129.836 0 135.346 5.14286 135.346 11.4286V63.4286C131.673 60 127.387 57.1429 123.101 55.4286V22.8571H12.8972V102.857H63.7136C64.9381 106.857 66.7748 110.857 69.836 114.286Z" fill="white"/>
</svg>
