<svg width="155" height="150" viewBox="0 0 155 150" fill="none" xmlns="http://www.w3.org/2000/svg">
<path fill-rule="evenodd" clip-rule="evenodd" d="M93.4281 7.8125C85.4179 7.8125 78.9427 14.0987 78.9427 21.875V53.125C78.9427 60.9013 85.4179 67.1875 93.4281 67.1875C101.438 67.1875 107.914 60.9013 107.914 53.125V21.875C107.914 14.0987 101.438 7.8125 93.4281 7.8125ZM88.5996 21.875C88.5996 19.2763 90.7513 17.1875 93.4281 17.1875C96.1049 17.1875 98.2566 19.2763 98.2566 21.875V53.125C98.2566 55.7237 96.1049 57.8125 93.4281 57.8125C90.7513 57.8125 88.5996 55.7237 88.5996 53.125V21.875Z" fill="white"/>
<path fill-rule="evenodd" clip-rule="evenodd" d="M132.056 39.0625C124.046 39.0625 117.57 45.3487 117.57 53.125V62.5C117.57 65.0888 119.732 67.1875 122.399 67.1875H132.056C140.066 67.1875 146.541 60.9013 146.541 53.125C146.541 45.3487 140.066 39.0625 132.056 39.0625ZM127.227 53.125C127.227 50.5263 129.379 48.4375 132.056 48.4375C134.733 48.4375 136.884 50.5263 136.884 53.125C136.884 55.7237 134.733 57.8125 132.056 57.8125H127.227V53.125Z" fill="white"/>
<path fill-rule="evenodd" clip-rule="evenodd" d="M46.7528 96.875C46.7528 89.0987 53.228 82.8125 61.2383 82.8125C69.2485 82.8125 75.7237 89.0987 75.7237 96.875V128.125C75.7237 135.901 69.2485 142.188 61.2383 142.188C53.228 142.188 46.7528 135.901 46.7528 128.125V96.875ZM61.2383 92.1875C58.5614 92.1875 56.4098 94.2763 56.4098 96.875V128.125C56.4098 130.724 58.5614 132.812 61.2383 132.812C63.9151 132.812 66.0667 130.724 66.0667 128.125V96.875C66.0667 94.2763 63.9151 92.1875 61.2383 92.1875Z" fill="white"/>
<path fill-rule="evenodd" clip-rule="evenodd" d="M22.6104 82.8125C14.6002 82.8125 8.125 89.0987 8.125 96.875C8.125 104.651 14.6002 110.938 22.6104 110.938C30.6206 110.938 37.0959 104.651 37.0959 96.875V87.5C37.0959 84.9112 34.9341 82.8125 32.2674 82.8125H22.6104ZM17.782 96.875C17.782 94.2763 19.9336 92.1875 22.6104 92.1875H27.4389V96.875C27.4389 99.4737 25.2873 101.562 22.6104 101.562C19.9336 101.562 17.782 99.4737 17.782 96.875Z" fill="white"/>
<path fill-rule="evenodd" clip-rule="evenodd" d="M85.3806 90.625C85.3806 82.8487 91.8559 76.5625 99.8661 76.5625H132.056C140.066 76.5625 146.541 82.8487 146.541 90.625C146.541 98.4013 140.066 104.688 132.056 104.688H99.8661C91.8559 104.688 85.3806 98.4013 85.3806 90.625ZM99.8661 85.9375C97.1892 85.9375 95.0376 88.0263 95.0376 90.625C95.0376 93.2237 97.1892 95.3125 99.8661 95.3125H132.056C134.733 95.3125 136.884 93.2237 136.884 90.625C136.884 88.0263 134.733 85.9375 132.056 85.9375H99.8661Z" fill="white"/>
<path fill-rule="evenodd" clip-rule="evenodd" d="M90.2091 114.062C87.5424 114.062 85.3806 116.161 85.3806 118.75V128.125C85.3806 135.901 91.8559 142.188 99.8661 142.188C107.876 142.188 114.352 135.901 114.352 128.125C114.352 120.349 107.876 114.062 99.8661 114.062H90.2091ZM95.0376 128.125V123.438H99.8661C102.543 123.438 104.695 125.526 104.695 128.125C104.695 130.724 102.543 132.812 99.8661 132.812C97.1892 132.812 95.0376 130.724 95.0376 128.125Z" fill="white"/>
<path fill-rule="evenodd" clip-rule="evenodd" d="M8.125 59.375C8.125 51.5987 14.6002 45.3125 22.6104 45.3125H54.8003C62.8105 45.3125 69.2857 51.5987 69.2857 59.375C69.2857 67.1513 62.8105 73.4375 54.8003 73.4375H22.6104C14.6002 73.4375 8.125 67.1513 8.125 59.375ZM22.6104 54.6875C19.9336 54.6875 17.782 56.7763 17.782 59.375C17.782 61.9737 19.9336 64.0625 22.6104 64.0625H54.8003C57.4771 64.0625 59.6288 61.9737 59.6288 59.375C59.6288 56.7763 57.4771 54.6875 54.8003 54.6875H22.6104Z" fill="white"/>
<path fill-rule="evenodd" clip-rule="evenodd" d="M54.8003 7.8125C46.7901 7.8125 40.3148 14.0987 40.3148 21.875C40.3148 29.6513 46.7901 35.9375 54.8003 35.9375H64.4572C67.1239 35.9375 69.2857 33.8388 69.2857 31.25V21.875C69.2857 14.0987 62.8105 7.8125 54.8003 7.8125ZM49.9718 21.875C49.9718 19.2763 52.1235 17.1875 54.8003 17.1875C57.4771 17.1875 59.6288 19.2763 59.6288 21.875V26.5625H54.8003C52.1235 26.5625 49.9718 24.4737 49.9718 21.875Z" fill="white"/>
</svg>
