<svg width="152" height="151" viewBox="0 0 152 151" fill="none" xmlns="http://www.w3.org/2000/svg">
<mask id="mask0_19_251" style="mask-type:luminance" maskUnits="userSpaceOnUse" x="0" y="0" width="152" height="151">
<path d="M0.679932 0H151.32V150.175H0.679932V0Z" fill="white"/>
</mask>
<g mask="url(#mask0_19_251)">
<path d="M123.622 0C113.675 0 104.143 3.94642 97.1132 10.9761C94.7425 13.3468 98.2852 16.8896 100.641 14.531C106.747 8.43751 115.002 5.00172 123.622 5.00172C132.242 5.00172 140.509 8.43751 146.603 14.531C149.025 16.8094 152.436 13.3468 150.146 10.9761C143.101 3.94642 133.57 0 123.622 0ZM75.9271 5.00172C73.6609 4.98715 72.5691 7.70804 74.1301 9.25937L74.8718 10.001H70.901C37.4914 10.001 8.76742 33.6066 2.25571 66.3548C-4.26573 99.0884 13.2853 131.9 44.132 144.661C74.9642 157.446 110.562 146.64 129.103 118.879C144.665 95.5991 144.82 65.3506 129.665 41.9663C130.601 40.6508 131.121 39.1675 131.121 37.4995C131.121 33.3853 127.802 30.0127 123.622 30.0127C119.442 30.0127 116.135 33.3853 116.135 37.4995C116.135 41.6672 119.508 45.0008 123.622 45.0008C124.259 45.0008 124.938 44.9084 125.524 44.7528C139.52 66.4059 139.391 94.5049 124.95 116.119C107.737 141.874 74.6894 151.926 46.0189 140.05C17.4773 128.228 1.11044 97.7608 7.16502 67.3298C13.2196 36.9013 39.8743 15.0003 70.901 15.0003H74.8475L74.1301 15.7176C71.7618 18.0859 75.3167 21.6287 77.6729 19.2579L82.6722 14.2587C83.6618 13.2812 83.6618 11.6934 82.6722 10.7159L77.6729 5.74334C77.2036 5.2473 76.6055 5.00172 75.9271 5.00172ZM123.622 10.001C116.33 10.001 109.325 12.8921 104.17 18.047C101.903 20.5467 105.288 23.8414 107.71 21.5898C111.929 17.371 117.66 15.0003 123.622 15.0003C129.587 15.0003 135.315 17.371 139.534 21.5898C141.956 23.8949 145.38 20.43 143.075 18.047C137.92 12.8921 130.914 10.001 123.622 10.001ZM123.622 19.9996C118.973 19.9996 114.521 21.8354 111.241 25.118C108.87 27.4742 112.425 31.0291 114.781 28.6583C117.125 26.3168 120.303 25.0134 123.622 25.0134C126.929 25.0134 130.119 26.3168 132.463 28.6583C134.873 30.8978 138.27 27.5909 136.006 25.118C132.723 21.8354 128.257 19.9996 123.622 19.9996ZM70.901 25.0134C40.4725 25.0134 15.9016 49.6621 15.9016 80.0007C15.9016 110.351 40.5625 135 70.901 135C101.24 135 125.888 110.351 125.888 80.0007C125.888 49.6621 101.332 25.0134 70.901 25.0134ZM60.6812 31.0559C55.9542 34.5184 51.8011 38.6326 48.2973 43.2307C46.0578 42.0976 43.9107 40.7943 41.8512 39.3232C47.4 35.3646 53.7537 32.4735 60.6812 31.0559ZM81.1233 31.0559C87.9852 32.4735 94.4166 35.3524 99.963 39.311C97.9059 40.7821 95.7443 42.083 93.5048 43.2161C90.0033 38.6204 85.7189 34.3895 81.1233 31.0559ZM73.3885 31.9264C79.3653 35.4302 84.5858 40.0405 88.7924 45.3121C83.9099 47.1868 78.6869 48.2956 73.4007 48.5679L73.3885 31.9264ZM68.3892 31.9531L68.4014 48.5558C63.1152 48.2956 57.8946 47.1747 53.012 45.3121C57.2162 40.0259 62.4125 35.457 68.3892 31.9531ZM123.61 34.9877C124.964 34.9877 126.122 36.0941 126.122 37.4995C126.122 38.9074 124.964 39.987 123.61 39.987C122.256 39.987 121.122 38.9074 121.122 37.4995C121.122 36.0941 122.256 34.9877 123.61 34.9877ZM37.7905 42.5401C40.1977 44.3492 42.763 45.9759 45.4061 47.3692C39.7309 56.2639 36.3972 66.6004 35.9547 77.4865H20.9811C21.6571 63.5537 27.9986 51.1722 37.7905 42.5401ZM104.026 42.5401C113.806 51.1722 120.133 63.5537 120.823 77.4865H105.85C105.393 66.6004 102.074 56.2493 96.3959 47.3571C99.039 45.9759 101.616 44.3492 104.026 42.5401ZM49.9896 49.492C55.8108 51.8749 62.0599 53.2949 68.4136 53.5818V77.4865H40.954C41.4087 67.3299 44.5989 57.7082 49.9896 49.492ZM91.8124 49.492C97.2032 57.7204 100.381 67.3299 100.836 77.4865H73.3885V53.5673C79.7422 53.2803 85.9937 51.887 91.8124 49.492ZM20.9811 82.5004H35.9668C36.3972 92.9804 39.4829 102.942 44.7691 111.601C42.0482 113.072 39.4172 114.791 36.9686 116.717C27.7117 108.178 21.6304 96.0417 20.9811 82.5004ZM40.9661 82.5004H68.4014L68.4135 105.051C61.7997 105.352 55.3293 106.862 49.299 109.427C44.3265 101.445 41.3965 92.2144 40.9661 82.5004ZM73.4007 82.5004H100.836C100.406 92.2144 97.4755 101.418 92.503 109.413C86.4752 106.835 80.0024 105.352 73.3885 105.065L73.4007 82.5004ZM105.85 82.5004H120.823C120.16 96.0417 114.156 108.112 104.833 116.717C102.373 114.791 99.7563 113.06 97.033 111.601C102.322 102.93 105.419 92.9804 105.85 82.5004ZM68.4136 110.064V128.058C62.0477 124.323 56.5257 119.36 52.1902 113.632C57.3208 111.562 62.8283 110.339 68.4136 110.064ZM73.3885 110.064C78.9738 110.339 84.4813 111.574 89.6119 113.646C85.2764 119.375 79.82 124.27 73.3885 128.073V110.064ZM94.2464 115.781C96.5394 116.992 98.8056 118.424 100.902 120C95.1461 124.309 88.3742 127.448 81.1355 128.946C86.215 125.22 90.6015 120.78 94.2464 115.781ZM47.5678 115.781C51.2151 120.793 55.6017 125.233 60.6812 128.946C53.4789 127.46 46.6706 124.309 40.9029 120C43.0111 118.424 45.2627 117.004 47.5678 115.781Z" fill="white"/>
</g>
</svg>
