<svg width="156" height="120" viewBox="0 0 156 120" fill="none" xmlns="http://www.w3.org/2000/svg">
<path d="M141.53 3.52941C133.695 1.05882 125.083 0 116.824 0C103.059 0 88.2359 2.82353 78.0006 10.5882C67.7653 2.82353 52.9418 0 39.177 0C25.4123 0 10.5888 2.82353 0.353516 10.5882V114C0.353516 115.765 2.11822 117.529 3.88293 117.529C4.58881 117.529 4.94175 117.176 5.64763 117.176C15.177 112.588 28.9418 109.412 39.177 109.412C52.9418 109.412 67.7653 112.235 78.0006 120C87.53 114 104.824 109.412 116.824 109.412C128.471 109.412 140.471 111.529 150.354 116.824C151.059 117.176 151.412 117.176 152.118 117.176C153.883 117.176 155.648 115.412 155.648 113.647V10.5882C151.412 7.41176 146.824 5.29412 141.53 3.52941ZM141.53 98.8235C133.765 96.3529 125.295 95.2941 116.824 95.2941C104.824 95.2941 87.53 99.8824 78.0006 105.882V24.7059C87.53 18.7059 104.824 14.1176 116.824 14.1176C125.295 14.1176 133.765 15.1765 141.53 17.6471V98.8235Z" fill="white"/>
</svg>
