<svg width="539" height="429" viewBox="0 0 539 429" fill="none" xmlns="http://www.w3.org/2000/svg">
<path d="M278.177 391.432C292.255 380.14 288.021 375.354 322.401 345.125C352.937 318.276 441.859 324.156 446.385 202.698C452.172 47.2394 288.021 -22.5054 131.552 42.0415C80.3385 63.1665 48.0417 99.979 30.1198 130.234C2.1979 177.375 -14.0156 245.25 20.401 318.859C49.5885 381.281 113.422 422.594 181.167 421.068C211.964 420.375 248.661 415.114 278.177 391.432Z" fill="#8BC5C6"/>
<mask id="mask0_40_566" style="mask-type:luminance" maskUnits="userSpaceOnUse" x="313" y="169" width="119" height="127">
<path d="M313.51 169.089H431.245V295.589H313.51V169.089Z" fill="white"/>
</mask>
<g mask="url(#mask0_40_566)">
<mask id="mask1_40_566" style="mask-type:luminance" maskUnits="userSpaceOnUse" x="42" y="-30" width="529" height="459">
<path d="M368.271 419.995C407.005 433.48 450.865 432.688 484.469 403.146C514.307 376.907 577.448 312.719 569.74 194.188C554.354 -42.5777 273.656 -81.3382 139.406 29.8441C60.7603 94.9796 0.020752 239.12 79.4739 342.48C129.995 408.198 151.406 374.042 187.88 390.959C210.338 401.375 235.016 406.886 260.25 406.318C279.521 405.886 301.156 403.625 321.807 395.969C333.396 391.677 355.719 415.625 368.271 419.995Z" fill="white"/>
</mask>
<g mask="url(#mask1_40_566)">
<path d="M409.708 197.516C409.37 197.979 401.75 194.282 386.526 186.87C384.125 185.698 381.614 184.459 381.807 183.532C382.088 182.203 387.833 181.844 392.37 182.813C403.135 185.115 410.995 195.75 409.708 197.516ZM422.026 195.459C412.901 180.631 398.036 171.729 383.854 169.75C380.125 169.229 373.734 168.427 369.687 172.177C363.354 178.047 367.583 190.657 364.812 191.511C361.354 192.584 357.052 173.401 345.219 170.453C336.469 168.271 325.656 173.854 320.385 181.188C307.005 199.823 315.776 230.042 327.87 247.87C334.948 258.297 354.906 281.782 375.5 283.12C379.62 283.391 393.948 283.433 399.042 291.901C400.14 293.719 400.26 295.016 401.422 295.407C406.401 297.084 419.286 278.36 425.359 260.709C428.104 252.719 438.557 222.328 422.026 195.459Z" fill="#229E8E"/>
</g>
</g>
<mask id="mask2_40_566" style="mask-type:luminance" maskUnits="userSpaceOnUse" x="258" y="262" width="148" height="144">
<path d="M258.844 262.979H405.755V405.521H258.844V262.979Z" fill="white"/>
</mask>
<g mask="url(#mask2_40_566)">
<mask id="mask3_40_566" style="mask-type:luminance" maskUnits="userSpaceOnUse" x="42" y="-30" width="529" height="459">
<path d="M368.271 419.995C407.005 433.48 450.865 432.688 484.469 403.146C514.307 376.907 577.448 312.719 569.74 194.188C554.354 -42.5777 273.656 -81.3382 139.406 29.8441C60.7603 94.9796 0.020752 239.12 79.4739 342.48C129.995 408.198 151.406 374.042 187.88 390.959C210.338 401.375 235.016 406.886 260.25 406.318C279.521 405.886 301.156 403.625 321.807 395.969C333.396 391.677 355.719 415.625 368.271 419.995Z" fill="white"/>
</mask>
<g mask="url(#mask3_40_566)">
<path d="M370.677 289.151C370.401 289.776 360.599 287.344 341.015 282.459C337.932 281.693 334.698 280.86 334.693 279.735C334.693 278.115 341.302 276.276 346.833 276.287C359.958 276.313 371.739 286.776 370.677 289.151ZM384.531 283.709C370.234 268.672 350.698 261.959 333.677 263.162C329.203 263.474 321.547 264.12 317.755 269.49C311.818 277.901 319.859 291.558 316.849 293.24C313.078 295.344 303.323 274.042 288.792 273.526C278.052 273.146 266.818 282.323 262.484 292.183C251.479 317.214 269.161 350.287 287.672 368.084C298.495 378.495 327.562 400.954 351.901 397.433C356.776 396.724 373.495 393.235 381.526 401.849C383.255 403.698 383.713 405.183 385.161 405.349C391.39 406.079 401.792 381.058 404.515 358.98C405.745 348.985 410.437 310.959 384.531 283.709Z" fill="#229E8E"/>
</g>
</g>
<mask id="mask4_40_566" style="mask-type:luminance" maskUnits="userSpaceOnUse" x="444" y="192" width="95" height="75">
<path d="M444.125 192.761H539V266.922H444.125V192.761Z" fill="white"/>
</mask>
<g mask="url(#mask4_40_566)">
<mask id="mask5_40_566" style="mask-type:luminance" maskUnits="userSpaceOnUse" x="42" y="-30" width="529" height="459">
<path d="M368.271 419.995C407.005 433.48 450.865 432.688 484.469 403.146C514.307 376.907 577.448 312.719 569.74 194.188C554.354 -42.5777 273.656 -81.3382 139.406 29.8441C60.7603 94.9796 0.020752 239.12 79.4739 342.48C129.995 408.198 151.406 374.042 187.88 390.959C210.338 401.375 235.016 406.886 260.25 406.318C279.521 405.886 301.156 403.625 321.807 395.969C333.396 391.677 355.719 415.625 368.271 419.995Z" fill="white"/>
</mask>
<g mask="url(#mask5_40_566)">
<path d="M518.74 232.677C518.703 232.855 518.547 233.032 517.797 233.313C517.167 233.552 513.208 234.948 510.266 232.677C509.755 232.287 509.219 231.875 509.281 231.422C509.411 230.506 511.953 229.917 514.083 230.167C516.479 230.454 518.891 231.865 518.74 232.677ZM537.562 244.485C535.469 245.386 531.125 241.829 530.151 240.834C526.917 237.521 524.349 232.49 521.807 226.714C516.828 226.235 514 227.917 509.807 228.323C501.542 229.136 502.292 225.813 502.38 225.552C503.802 221.5 514.146 220.047 519.396 221.073C518.047 217.875 516.661 214.563 515.135 211.266C514.776 210.49 514.354 209.735 513.875 208.995C513.5 208.927 513.115 208.87 512.687 208.834C500.969 207.901 497.547 212.271 490.562 214.521C479.781 217.99 479.823 213.344 479.87 212.974C480.609 207.011 494.687 201.974 501.812 202.084C503.026 202.105 505.427 202.146 508.156 202.756C492.365 189.886 459.766 186.537 459.198 210.938C459.068 216.537 453.531 212.943 447.807 218.771C442.948 223.719 444.542 231.896 444.943 234.506C446.958 247.688 458.448 260.365 472.656 264.917C486.208 269.261 501.49 265.964 511.036 259.282C514.359 256.959 523.542 247.063 527.911 247.355C533.203 247.704 536.24 246.834 537.948 246.037C539.354 245.375 539.042 243.849 537.562 244.485Z" fill="#DBEFEC"/>
</g>
</g>
<mask id="mask6_40_566" style="mask-type:luminance" maskUnits="userSpaceOnUse" x="70" y="246" width="145" height="96">
<path d="M70.6768 246.667H214.432V341.334H70.6768V246.667Z" fill="white"/>
</mask>
<g mask="url(#mask6_40_566)">
<mask id="mask7_40_566" style="mask-type:luminance" maskUnits="userSpaceOnUse" x="42" y="-30" width="529" height="459">
<path d="M368.271 419.995C407.005 433.48 450.864 432.688 484.468 403.146C514.307 376.907 577.448 312.719 569.739 194.188C554.354 -42.5777 273.656 -81.3382 139.406 29.8441C60.7601 94.9796 0.0205078 239.12 79.4736 342.48C129.994 408.198 151.406 374.042 187.88 390.959C210.338 401.375 235.015 406.886 260.25 406.318C279.521 405.886 301.156 403.625 321.807 395.969C333.396 391.677 355.718 415.625 368.271 419.995Z" fill="white"/>
</mask>
<g mask="url(#mask7_40_566)">
<path d="M153.63 314.193C154.276 311.068 153.781 310.412 152.682 307.813C150.359 302.313 138.505 301.459 131.026 291.115C126.276 284.537 114.036 288.714 105.573 282.943C99.5465 278.839 105.672 275.459 91.2705 269.495C69.3798 260.433 70.4684 247.209 71.2548 246.761C72.5048 246.042 72.8486 249.912 74.6715 251.636C83.2028 259.704 128.291 236.193 172.437 257.141C191.651 266.256 206.172 280.625 212.38 300.396C216.927 314.886 213.151 323.105 207.677 322.5C201.213 321.782 206.406 325.266 203.328 331.407C190.526 356.907 151.224 325.87 153.63 314.193Z" fill="#42B2A3"/>
</g>
</g>
<mask id="mask8_40_566" style="mask-type:luminance" maskUnits="userSpaceOnUse" x="138" y="40" width="124" height="162">
<path d="M138.479 40.4844H261.474V201.698H138.479V40.4844Z" fill="white"/>
</mask>
<g mask="url(#mask8_40_566)">
<mask id="mask9_40_566" style="mask-type:luminance" maskUnits="userSpaceOnUse" x="42" y="-30" width="529" height="459">
<path d="M368.271 419.995C407.005 433.479 450.865 432.688 484.469 403.146C514.307 376.906 577.448 312.719 569.74 194.188C554.354 -42.5781 273.656 -81.3385 139.406 29.8438C60.7603 94.9792 0.020752 239.12 79.4739 342.479C129.995 408.198 151.406 374.042 187.88 390.958C210.338 401.375 235.016 406.885 260.25 406.318C279.521 405.885 301.156 403.625 321.807 395.969C333.396 391.677 355.719 415.625 368.271 419.995Z" fill="white"/>
</mask>
<g mask="url(#mask9_40_566)">
<path d="M242.443 94.1041C227.818 109.432 209.385 109.896 209.177 109.292C208.917 108.542 226.161 105.557 238.333 89.7552C231.693 83.3802 223.391 78.3958 213.146 75.5573C193.594 70.1302 201.755 66.9218 186.443 58.2656C166.359 46.9114 157.687 44.6875 152.698 45.2864C144.635 46.2552 145.62 39.7291 144.167 40.6875C143.219 41.3125 133.802 55.4948 142.104 68.1145C146.484 74.776 153.526 73.6823 159.365 83.3489C162.484 88.5052 161.583 91.3802 163.365 97.5833C167.208 110.995 182.302 111.906 182.302 122.979C182.307 188.667 204.115 196.932 224.411 201.135C235.589 203.453 235.672 193.432 242.427 196.125C260.115 203.172 274.115 131.156 242.443 94.1041Z" fill="#A7D8D1"/>
</g>
</g>
<mask id="mask10_40_566" style="mask-type:luminance" maskUnits="userSpaceOnUse" x="191" y="0" width="168" height="291">
<path d="M191.828 0H358.714V290.854H191.828V0Z" fill="white"/>
</mask>
<g mask="url(#mask10_40_566)">
<mask id="mask11_40_566" style="mask-type:luminance" maskUnits="userSpaceOnUse" x="42" y="-30" width="529" height="459">
<path d="M368.271 419.995C407.005 433.479 450.865 432.688 484.469 403.146C514.307 376.906 577.448 312.719 569.74 194.188C554.354 -42.5781 273.656 -81.3385 139.406 29.8438C60.7603 94.9792 0.020752 239.12 79.4739 342.479C129.995 408.198 151.406 374.042 187.88 390.958C210.338 401.375 235.016 406.885 260.25 406.318C279.521 405.885 301.156 403.625 321.807 395.969C333.396 391.677 355.719 415.625 368.271 419.995Z" fill="white"/>
</mask>
<g mask="url(#mask11_40_566)">
<path d="M233.083 50.4166C250.776 31.6823 257.396 14.9687 269.969 11.5104C276.88 9.60935 276.583 12.7187 282.594 6.55206C285.359 3.71352 287.307 -0.369816 288.312 0.0416424C289.255 0.432268 287.432 3.97914 288.427 7.73956C289.974 13.6146 296.906 14.3854 301.932 19.1041C305.677 22.6198 306.969 27.026 307.661 31.7031C296.13 38.9635 274.396 40.1614 277.531 41.0104C280.765 41.8906 297.88 42.8125 308.739 40.776C311.417 59.6927 320.26 63.7916 328.672 85.0729C335.099 101.328 334.276 109.906 337.344 133.156C346.703 203.958 366.583 216.979 355.37 247.74C354.114 251.161 337.14 279.057 318.536 282.01C307.359 283.781 302.734 275.401 287.953 276.781C273.515 278.13 270.385 286.823 256.031 290.26C256.031 290.26 246.411 293.188 225.505 283.484C172.745 258.979 187.338 98.8698 233.083 50.4166Z" fill="#62BFB3"/>
</g>
</g>
<mask id="mask12_40_566" style="mask-type:luminance" maskUnits="userSpaceOnUse" x="115" y="161" width="162" height="153">
<path d="M115.286 161.989H276.192V314H115.286V161.989Z" fill="white"/>
</mask>
<g mask="url(#mask12_40_566)">
<mask id="mask13_40_566" style="mask-type:luminance" maskUnits="userSpaceOnUse" x="42" y="-30" width="529" height="459">
<path d="M368.271 419.994C407.005 433.479 450.864 432.687 484.468 403.145C514.307 376.906 577.448 312.718 569.739 194.187C554.354 -42.5785 273.656 -81.3389 139.406 29.8434C60.7601 94.9788 0.0205078 239.119 79.4736 342.479C129.994 408.198 151.406 374.041 187.88 390.958C210.338 401.375 235.015 406.885 260.25 406.317C279.521 405.885 301.156 403.625 321.807 395.968C333.396 391.677 355.718 415.625 368.271 419.994Z" fill="white"/>
</mask>
<g mask="url(#mask13_40_566)">
<path d="M115.89 186.625C116.046 178.614 119.526 174.911 117.109 167.974C116.244 165.495 114.796 163.078 115.557 162.411C116.583 161.51 120.604 164.62 121.802 165.463C131.942 172.614 151.677 166.562 155.823 165.484C180.869 158.958 218.427 182.448 236.692 198.375C245.156 205.755 278.843 235.13 275.921 272.578C275.817 273.968 277.51 300.437 259.5 305.802C248.083 309.203 241.078 296.521 228.781 301.765C220.713 305.208 218.062 311.578 210.338 313.463C200.057 315.974 189.057 304.578 186.531 301.791C177.416 291.739 180.645 285.755 170.854 266.817C166.26 257.953 162.411 250.51 154.619 242.797C147.468 235.708 141.979 233.328 138.27 229.646C144.599 230.682 152.114 229.172 160.062 225.172C165.489 222.437 169.833 217.713 169.145 217.13C168.573 216.64 162.755 221.713 154.323 222.354C142.911 223.218 136.916 220.495 133.26 218.172C132.52 211.114 134.484 204.885 131.833 203.807C129.677 202.932 127.812 206.823 124.604 206.333C119.796 205.599 115.724 195.583 115.89 186.625Z" fill="#42B2A3"/>
</g>
</g>
<mask id="mask14_40_566" style="mask-type:luminance" maskUnits="userSpaceOnUse" x="147" y="308" width="86" height="77">
<path d="M147.417 308H232.036V384.479H147.417V308Z" fill="white"/>
</mask>
<g mask="url(#mask14_40_566)">
<mask id="mask15_40_566" style="mask-type:luminance" maskUnits="userSpaceOnUse" x="42" y="-30" width="529" height="459">
<path d="M368.271 419.995C407.005 433.479 450.865 432.688 484.469 403.146C514.307 376.906 577.448 312.719 569.74 194.188C554.354 -42.5781 273.656 -81.3385 139.406 29.8438C60.7603 94.9792 0.020752 239.12 79.4739 342.479C129.995 408.198 151.406 374.042 187.88 390.958C210.338 401.375 235.016 406.885 260.25 406.318C279.521 405.885 301.156 403.625 321.807 395.969C333.396 391.677 355.719 415.625 368.271 419.995Z" fill="white"/>
</mask>
<g mask="url(#mask15_40_566)">
<path d="M161.839 361.479C161.932 361.635 162.141 361.739 162.943 361.729C163.615 361.719 167.807 361.568 169.719 358.37C170.047 357.818 170.396 357.234 170.167 356.838C169.708 356.036 167.13 356.417 165.24 357.437C163.12 358.583 161.401 360.781 161.839 361.479ZM148.656 379.38C150.932 379.448 153.672 374.547 154.208 373.26C156.005 368.995 156.547 363.364 156.797 357.062C161.25 354.792 164.495 355.312 168.542 354.156C176.531 351.87 174.615 349.052 174.432 348.844C171.625 345.594 161.469 348.052 156.969 350.927C157.042 347.458 157.125 343.87 157.328 340.239C157.375 339.391 157.495 338.531 157.667 337.667C157.99 337.463 158.333 337.266 158.714 337.078C169.271 331.906 174.057 334.713 181.38 334.239C192.682 333.505 190.938 329.203 190.76 328.87C187.88 323.599 172.943 324.088 166.354 326.807C165.229 327.271 163.01 328.193 160.698 329.766C170.667 311.989 199.76 296.896 209.24 319.385C211.417 324.542 215.25 319.172 222.714 322.489C229.047 325.302 230.557 333.495 231.146 336.068C234.109 349.073 228.073 365.083 216.531 374.536C205.51 383.557 190.089 386.109 178.755 383.401C174.818 382.458 162.641 376.63 158.682 378.505C153.891 380.776 150.745 381.078 148.87 380.963C147.318 380.87 147.047 379.333 148.656 379.38Z" fill="#229E8E"/>
</g>
</g>
<mask id="mask16_40_566" style="mask-type:luminance" maskUnits="userSpaceOnUse" x="311" y="28" width="97" height="127">
<path d="M311.672 28.9111H407.594V154.625H311.672V28.9111Z" fill="white"/>
</mask>
<g mask="url(#mask16_40_566)">
<mask id="mask17_40_566" style="mask-type:luminance" maskUnits="userSpaceOnUse" x="42" y="-30" width="529" height="459">
<path d="M368.271 419.994C407.005 433.479 450.865 432.687 484.469 403.145C514.307 376.906 577.448 312.718 569.74 194.187C554.354 -42.5785 273.656 -81.3389 139.406 29.8434C60.7603 94.9788 0.020752 239.119 79.4739 342.479C129.995 408.198 151.406 374.041 187.88 390.958C210.338 401.375 235.016 406.885 260.25 406.317C279.521 405.885 301.156 403.625 321.807 395.968C333.396 391.677 355.719 415.625 368.271 419.994Z" fill="white"/>
</mask>
<g mask="url(#mask17_40_566)">
<path d="M354.672 30.7549C356.672 32.9736 354.094 39.8695 353.266 41.4997C350.516 46.9111 345.359 52.2236 339.26 57.8174C340.766 64.2028 344.036 67.0101 346.312 72.0414C350.802 81.9736 346.354 82.4424 346 82.4372C340.37 82.3799 334.219 70.1351 333.276 63.1872C329.875 66.208 326.354 69.3278 322.901 72.6091C322.094 73.3799 321.333 74.2236 320.609 75.1299C320.687 75.6247 320.776 76.1351 320.917 76.6716C324.693 91.6299 331.552 94.0361 337.281 101.771C346.13 113.703 340.349 115.609 339.87 115.708C332.161 117.302 319.984 101.927 317.12 93.0309C316.63 91.5101 315.672 88.5101 315.286 84.8643C305.964 109.906 315.531 151.823 346.047 142.255C353.047 140.057 350.927 148.448 360.568 153.109C368.75 157.062 378.224 151.635 381.292 150.041C396.802 141.984 407.693 122.375 407.354 102.802C407.036 84.1299 396.516 66.5309 384.203 57.4789C379.922 54.333 363.776 47.083 362.297 41.5361C360.505 34.8122 358.146 31.4059 356.437 29.6247C355.026 28.1507 353.26 29.1872 354.672 30.7549Z" fill="#DBEFEC"/>
</g>
</g>
<mask id="mask18_40_566" style="mask-type:luminance" maskUnits="userSpaceOnUse" x="340" y="76" width="156" height="165">
<path d="M340.62 76.25H495.286V240.099H340.62V76.25Z" fill="white"/>
</mask>
<g mask="url(#mask18_40_566)">
<mask id="mask19_40_566" style="mask-type:luminance" maskUnits="userSpaceOnUse" x="42" y="-30" width="529" height="459">
<path d="M368.271 419.995C407.005 433.479 450.865 432.688 484.469 403.146C514.307 376.906 577.448 312.719 569.74 194.188C554.354 -42.5781 273.656 -81.3385 139.406 29.8438C60.7603 94.9792 0.020752 239.12 79.4739 342.479C129.995 408.198 151.406 374.042 187.88 390.958C210.338 401.375 235.016 406.885 260.25 406.318C279.521 405.885 301.156 403.625 321.807 395.969C333.396 391.677 355.719 415.625 368.271 419.995Z" fill="white"/>
</mask>
<g mask="url(#mask19_40_566)">
<path d="M375.812 186.688C371.323 183.182 364.911 190.563 355.724 186.734C346.859 183.037 338.484 170.953 341.411 162.37C346.396 147.719 344.135 134.125 348.099 125.333C354.479 111.162 370.651 100.891 410.802 88.3699C415.219 86.9897 419.172 85.7657 422.729 84.7032C420.755 87.5365 418.865 90.7345 417.271 94.2813C416.38 96.2657 412.823 104.5 413.62 114.927C413.896 118.542 414.443 125.635 418.833 127.62C419.172 127.776 420.76 128.141 422.5 127.339C425.792 125.823 425.896 120.021 425.911 109.875C425.932 93.3595 426.724 86.8334 427.776 83.2501C437.844 80.4688 444.484 79.4532 450.203 80.8126C458.625 82.8178 470.208 87.922 476.354 83.1615C479.911 80.4115 478.276 76.4011 479.849 76.422C483.078 76.4584 483.167 94.8126 488.266 115.208C496.109 146.589 495.323 144.156 494.964 152.573C494.906 154.031 494.786 155.464 494.625 156.87C461.87 173.01 439.891 164.995 432.083 166.787C430.677 167.109 425.484 168.302 425.323 170.375C425.099 173.349 435.354 176.391 437.547 177.042C450.833 180.99 475.057 183.318 490.167 173.438C484.786 186.156 475.771 196.708 467.484 206.401C453.573 222.677 440.839 237.568 420.297 239.839C407.828 241.214 391.057 236.537 382.802 227.182C370.76 213.537 386.646 195.151 375.812 186.688Z" fill="#A7D8D1"/>
</g>
</g>
<mask id="mask20_40_566" style="mask-type:luminance" maskUnits="userSpaceOnUse" x="268" y="88" width="208" height="341">
<path d="M268.62 88.875H475.135V428.401H268.62V88.875Z" fill="white"/>
</mask>
<g mask="url(#mask20_40_566)">
<mask id="mask21_40_566" style="mask-type:luminance" maskUnits="userSpaceOnUse" x="42" y="-30" width="529" height="459">
<path d="M368.271 419.995C407.005 433.479 450.865 432.688 484.469 403.146C514.307 376.906 577.448 312.719 569.74 194.188C554.354 -42.5781 273.656 -81.3385 139.406 29.8438C60.7603 94.9792 0.020752 239.12 79.4739 342.479C129.995 408.198 151.406 374.042 187.88 390.958C210.338 401.375 235.016 406.885 260.25 406.318C279.521 405.885 301.156 403.625 321.807 395.969C333.396 391.677 355.719 415.625 368.271 419.995Z" fill="white"/>
</mask>
<g mask="url(#mask21_40_566)">
<path d="M475.104 88.9792C473.094 92.7865 470.526 96.2605 467.87 99.6251C465.198 102.984 462.359 106.208 459.458 109.37C453.635 115.682 447.531 121.734 441.323 127.656C428.88 139.5 415.979 150.854 402.943 162.037C396.422 167.63 389.854 173.167 383.271 178.688L373.385 186.979C371.745 188.37 370.099 189.76 368.458 191.193C367.64 191.901 366.828 192.682 366.015 193.443C365.234 194.234 364.437 195.016 363.703 195.865C362.203 197.526 360.818 199.302 359.583 201.172C358.338 203.037 357.213 204.979 356.229 206.974C354.224 210.958 352.745 215.12 351.396 219.276C350.739 221.37 350.125 223.432 349.547 225.563C348.969 227.75 348.552 229.917 348.177 232.078C347.448 236.401 346.917 240.698 346.422 244.99C345.432 253.563 344.573 262.104 343.547 270.615C342.526 279.125 341.359 287.594 339.937 296.016C337.068 312.839 333.198 329.479 327.536 345.443C321.88 361.396 314.437 376.693 304.646 390.287C294.896 403.88 282.724 415.62 268.713 424.547L273.687 432.172C277.364 429.677 280.958 427.057 284.401 424.245C287.823 421.412 291.13 418.453 294.276 415.318C297.406 412.177 300.406 408.906 303.239 405.51C306.057 402.094 308.729 398.568 311.245 394.943C321.286 380.396 328.698 364.287 334.198 347.734C339.713 331.156 343.312 314.083 345.88 296.958C347.156 288.396 348.156 279.802 349.015 271.219C349.885 262.635 350.578 254.042 351.385 245.516C351.797 241.255 352.239 237.005 352.854 232.833C353.172 230.75 353.531 228.688 354.01 226.708C354.515 224.677 355.078 222.604 355.661 220.578C356.864 216.531 358.193 212.531 359.969 208.792C360.838 206.906 361.833 205.094 362.932 203.359C364.026 201.615 365.255 199.969 366.599 198.401C367.255 197.609 367.979 196.87 368.682 196.115C369.427 195.385 370.146 194.656 370.932 193.943C372.495 192.505 374.094 191.078 375.703 189.651L385.364 181.125C391.812 175.438 398.25 169.729 404.64 163.974C417.417 152.448 430.047 140.75 442.219 128.578C448.292 122.484 454.26 116.271 459.932 109.797C462.76 106.557 465.526 103.255 468.125 99.823C470.703 96.3803 473.187 92.8386 475.104 88.9792Z" fill="#42B2A3"/>
</g>
</g>
<mask id="mask22_40_566" style="mask-type:luminance" maskUnits="userSpaceOnUse" x="344" y="215" width="163" height="182">
<path d="M344.255 215.375H506.937V396.578H344.255V215.375Z" fill="white"/>
</mask>
<g mask="url(#mask22_40_566)">
<mask id="mask23_40_566" style="mask-type:luminance" maskUnits="userSpaceOnUse" x="42" y="-30" width="529" height="459">
<path d="M368.271 419.995C407.005 433.479 450.864 432.688 484.468 403.146C514.307 376.906 577.448 312.719 569.739 194.188C554.354 -42.5781 273.656 -81.3385 139.406 29.8438C60.7601 94.9792 0.0205078 239.12 79.4736 342.479C129.994 408.198 151.406 374.042 187.88 390.958C210.338 401.375 235.015 406.885 260.25 406.318C279.521 405.885 301.156 403.625 321.807 395.969C333.396 391.677 355.718 415.625 368.271 419.995Z" fill="white"/>
</mask>
<g mask="url(#mask23_40_566)">
<path d="M380.354 342.193C383.817 317.38 395.052 299.703 395.687 295.578C395.734 295.271 396.156 292.354 394.718 291.448C393.291 290.547 390.692 291.953 389.833 292.797C369.833 312.495 379.942 344.448 374.875 362.094C374.541 361.646 374.203 361.177 373.833 360.687C366.593 351.13 341.411 323.193 344.729 286.927C345.182 281.969 347.822 267.687 358.125 262.349C371.744 255.281 379.468 256.25 395.692 263.01C402.385 265.802 395.947 250.922 401.427 238.484C401.942 237.297 408.479 223.026 423.125 217.588C446.395 208.943 469.052 230.437 469.989 231.354C475.859 237.083 478.989 243.094 483.281 251.312C486.89 258.224 491.166 266.588 492.744 277.948C494.286 289.078 491.156 288.094 493.072 298.359C495.057 308.995 499.26 314.542 496.635 322.682C496.322 323.661 495.989 324.427 495.713 325.135C491.213 321.115 485.234 316.891 478.645 314.078C475.791 312.854 467.963 309.51 465.39 312.344C464.546 313.276 464.401 314.719 464.656 315.823C465.599 319.906 472.52 321.411 476.395 322.469C485.187 324.87 491.677 328.63 496.161 331.625C498.338 334.932 503.255 336.026 505.609 340.578C510.953 350.911 497.578 368.417 496.052 370.375C492.432 375.016 491.338 374.661 489.166 378.604C485.364 385.5 486.062 391.427 480.859 394.88C479.671 395.661 477.151 397.297 477.635 396.203C478.255 394.812 478.322 386.255 472.369 381.495C467.01 377.203 433.843 389.297 403.354 380.281C401.911 371.469 399.609 356.536 403.208 337.687C404.474 331.094 407.302 319.615 401.885 315.198C400.421 314.01 398.151 313.161 396.145 313.745C390.01 315.521 389.265 329.719 388.994 334.891C388.156 350.943 391.937 367.187 396.01 377.651C389.765 375 383.75 371.302 378.239 366.198C377.682 365.682 377.182 365.125 376.692 364.521C377.697 359.823 378.88 352.75 380.354 342.193Z" fill="#62BFB3"/>
</g>
</g>
<mask id="mask24_40_566" style="mask-type:luminance" maskUnits="userSpaceOnUse" x="171" y="76" width="149" height="353">
<path d="M171.594 76.5156H319.026V428.401H171.594V76.5156Z" fill="white"/>
</mask>
<g mask="url(#mask24_40_566)">
<mask id="mask25_40_566" style="mask-type:luminance" maskUnits="userSpaceOnUse" x="42" y="-30" width="529" height="459">
<path d="M368.271 419.995C407.005 433.479 450.865 432.688 484.469 403.146C514.307 376.906 577.448 312.719 569.74 194.188C554.354 -42.5781 273.656 -81.3385 139.406 29.8438C60.7603 94.9792 0.020752 239.12 79.4739 342.479C129.995 408.198 151.406 374.042 187.88 390.958C210.338 401.375 235.016 406.885 260.25 406.318C279.521 405.885 301.156 403.625 321.807 395.969C333.396 391.677 355.719 415.625 368.271 419.995Z" fill="white"/>
</mask>
<g mask="url(#mask25_40_566)">
<path d="M216.797 119.87C219.104 121.229 221.427 122.469 223.625 123.906C224.75 124.589 225.797 125.38 226.87 126.13C227.911 126.927 228.943 127.74 229.948 128.573C230.927 129.453 231.932 130.292 232.88 131.203L235.693 133.974L238.37 136.87C239.266 137.833 240.078 138.87 240.943 139.865C247.63 147.995 253.068 157.109 257.875 166.495C260.255 171.208 262.463 176.01 264.547 180.859C266.63 185.719 268.542 190.646 270.396 195.599C274.026 205.531 277.266 215.609 280.156 225.792C283.062 235.969 285.656 246.234 287.995 256.557C290.338 266.885 292.458 277.266 294.359 287.682C301.937 329.359 306.568 371.562 309.031 413.839C309.776 426.854 310.318 439.88 310.635 452.911H318.937C318.359 439.698 317.552 426.505 316.536 413.328C313.219 370.839 307.729 328.505 299.286 286.724C297.161 276.286 294.828 265.885 292.266 255.542C289.708 245.198 286.891 234.911 283.76 224.724C280.656 214.526 277.187 204.432 273.323 194.484C271.359 189.526 269.328 184.589 267.13 179.729C264.927 174.865 262.599 170.057 260.099 165.339C255.047 155.932 249.354 146.802 242.38 138.651C241.484 137.651 240.635 136.615 239.698 135.656L236.917 132.76L234 129.99C233.016 129.083 231.963 128.245 230.948 127.365C229.896 126.531 228.823 125.719 227.74 124.927C226.63 124.172 225.536 123.391 224.38 122.708C222.104 121.286 219.713 120.073 217.422 118.786C215.13 117.5 212.984 116.026 211.177 114.156C209.375 112.297 207.818 110.167 206.526 107.88C205.854 106.755 205.198 105.594 204.542 104.427C203.849 103.281 203.151 102.141 202.385 101.042C200.87 98.8385 199.182 96.7448 197.292 94.8542C195.391 92.9688 193.271 91.2969 191 89.8958C188.729 88.4896 186.312 87.3594 183.896 86.2552C181.495 85.1458 179.073 84.026 176.953 82.4375C175.891 81.651 174.906 80.7552 174.026 79.7656C173.156 78.7656 172.401 77.6719 171.724 76.5312C172.38 77.6823 173.12 78.7969 173.969 79.8177C174.828 80.8281 175.802 81.75 176.859 82.5625C178.963 84.2083 181.38 85.3802 183.766 86.5365C186.156 87.6875 188.531 88.8594 190.75 90.2969C192.969 91.724 195.016 93.4063 196.844 95.2969C198.667 97.1927 200.292 99.2813 201.734 101.479C202.469 102.578 203.135 103.714 203.792 104.859C204.417 106.016 205.047 107.177 205.708 108.349C206.984 110.703 208.536 112.938 210.391 114.917C212.234 116.917 214.484 118.516 216.797 119.87Z" fill="#42B2A3"/>
</g>
</g>
<mask id="mask26_40_566" style="mask-type:luminance" maskUnits="userSpaceOnUse" x="135" y="184" width="131" height="245">
<path d="M135.849 184.078H265.151V428.401H135.849V184.078Z" fill="white"/>
</mask>
<g mask="url(#mask26_40_566)">
<mask id="mask27_40_566" style="mask-type:luminance" maskUnits="userSpaceOnUse" x="42" y="-30" width="529" height="459">
<path d="M368.271 419.995C407.005 433.479 450.864 432.688 484.468 403.146C514.307 376.906 577.448 312.719 569.739 194.188C554.354 -42.5781 273.656 -81.3385 139.406 29.8438C60.7601 94.9792 0.0205078 239.12 79.4736 342.479C129.994 408.198 151.406 374.042 187.88 390.958C210.338 401.375 235.015 406.885 260.25 406.318C279.521 405.885 301.156 403.625 321.807 395.969C333.396 391.677 355.718 415.625 368.271 419.995Z" fill="white"/>
</mask>
<g mask="url(#mask27_40_566)">
<path d="M226.291 263.344L227.489 266.432L228.614 269.542C231.526 277.87 233.692 286.448 235.13 295.146C236.552 303.839 237.276 312.646 237.323 321.458C237.354 325.859 237.208 330.266 236.937 334.667C236.802 336.87 236.625 339.068 236.442 341.286C236.25 343.51 236.099 345.776 235.963 348.021C235.453 357.026 235.51 366.057 236.026 375.057C236.557 384.057 237.573 393.026 238.968 401.922C241.771 419.729 246.187 437.24 251.651 454.38C253.213 459.255 254.869 464.104 256.593 468.922H265.036C262.843 463.323 260.744 457.688 258.776 452.01C253.01 435.307 248.286 418.24 245.13 400.88C243.562 392.198 242.359 383.448 241.63 374.667C240.916 365.88 240.656 357.057 240.948 348.245C241.031 346.036 241.125 343.854 241.26 341.625C241.39 339.401 241.515 337.151 241.604 334.901C241.776 330.401 241.817 325.885 241.682 321.375C241.422 312.359 240.468 303.354 238.802 294.49C237.119 285.63 234.698 276.911 231.526 268.479L230.302 265.333L229.005 262.214C228.13 260.161 227.229 258.104 226.297 256.068C224.432 251.984 222.427 247.958 220.244 244.031C215.89 236.172 210.864 228.677 205.078 221.807C199.302 214.932 192.76 208.688 185.521 203.406C181.896 200.76 178.109 198.354 174.172 196.219L171.187 194.682C170.192 194.172 169.172 193.714 168.161 193.229C166.119 192.318 164.067 191.432 161.979 190.646C153.63 187.443 144.896 185.323 136.052 184.25C144.869 185.531 153.531 187.844 161.75 191.224C163.812 192.052 165.828 192.984 167.833 193.932C168.823 194.438 169.828 194.911 170.802 195.443L173.724 197.031C177.573 199.234 181.26 201.703 184.776 204.396C191.812 209.781 198.114 216.089 203.646 222.984C209.182 229.885 213.958 237.375 218.067 245.208C220.119 249.125 222.005 253.13 223.75 257.198C224.625 259.229 225.463 261.281 226.291 263.344Z" fill="#42B2A3"/>
</g>
</g>
<mask id="mask28_40_566" style="mask-type:luminance" maskUnits="userSpaceOnUse" x="79" y="256" width="208" height="173">
<path d="M79.3486 256.141H286.437V428.401H79.3486V256.141Z" fill="white"/>
</mask>
<g mask="url(#mask28_40_566)">
<mask id="mask29_40_566" style="mask-type:luminance" maskUnits="userSpaceOnUse" x="42" y="-30" width="529" height="459">
<path d="M368.271 419.995C407.005 433.479 450.864 432.688 484.468 403.146C514.307 376.906 577.448 312.719 569.739 194.188C554.354 -42.5781 273.656 -81.3385 139.406 29.8438C60.7601 94.9792 0.0205078 239.12 79.4736 342.479C129.994 408.198 151.406 374.042 187.88 390.958C210.338 401.375 235.015 406.885 260.25 406.318C279.521 405.885 301.156 403.625 321.807 395.969C333.396 391.677 355.718 415.625 368.271 419.995Z" fill="white"/>
</mask>
<g mask="url(#mask29_40_566)">
<path d="M260.396 414.427C267.203 429.625 273.187 445.188 278.552 460.958C279.453 463.609 280.328 466.26 281.192 468.922H286.302C285.218 465.745 284.119 462.573 282.989 459.411C277.333 443.609 271.062 428.016 263.958 412.797C256.854 397.583 248.88 382.75 239.838 368.594C230.797 354.443 220.651 340.958 209.187 328.661C197.724 316.396 184.906 305.339 170.823 296.193C156.76 287.036 141.427 279.833 125.38 275.021C123.364 274.453 121.354 273.859 119.338 273.307L113.286 271.688C109.26 270.589 105.244 269.432 101.302 268.083C97.3538 266.729 93.4684 265.177 89.7601 263.266C86.057 261.359 82.5309 259.047 79.5049 256.156C82.4841 259.094 85.9841 261.469 89.6715 263.438C93.3643 265.417 97.2341 267.031 101.172 268.448C105.109 269.87 109.114 271.089 113.13 272.25L119.156 273.964C121.161 274.547 123.151 275.167 125.151 275.766C141.052 280.807 156.161 288.208 169.963 297.5C183.786 306.786 196.302 317.927 207.463 330.255C218.614 342.604 228.448 356.104 237.187 370.26C245.927 384.422 253.593 399.234 260.396 414.427Z" fill="#42B2A3"/>
</g>
</g>
<mask id="mask30_40_566" style="mask-type:luminance" maskUnits="userSpaceOnUse" x="267" y="15" width="40" height="414">
<path d="M267.286 15.7656H306.937V428.401H267.286V15.7656Z" fill="white"/>
</mask>
<g mask="url(#mask30_40_566)">
<mask id="mask31_40_566" style="mask-type:luminance" maskUnits="userSpaceOnUse" x="42" y="-30" width="529" height="459">
<path d="M368.271 419.995C407.005 433.479 450.864 432.688 484.468 403.146C514.307 376.906 577.448 312.719 569.739 194.188C554.354 -42.5781 273.656 -81.3385 139.406 29.8438C60.7601 94.9792 0.0205078 239.12 79.4736 342.479C129.994 408.198 151.406 374.042 187.88 390.958C210.338 401.375 235.015 406.885 260.25 406.318C279.521 405.885 301.156 403.625 321.807 395.969C333.396 391.677 355.718 415.625 368.271 419.995Z" fill="white"/>
</mask>
<g mask="url(#mask31_40_566)">
<path d="M267.947 115.823C268.333 127.208 268.864 138.589 269.432 149.964C271.76 195.464 274.979 240.911 278.729 286.323C282.515 331.729 286.885 377.099 292.244 422.38C294.093 437.911 296.062 453.422 298.203 468.922H306.687C304.198 453.125 301.89 437.286 299.708 421.427C293.536 376.365 288.338 331.146 283.724 285.859C279.151 240.578 275.099 195.224 271.932 149.812C271.161 138.464 270.427 127.104 269.828 115.74L269.421 107.219L269.088 98.6979C269.01 95.875 269.031 93.0521 269.296 90.2604C269.552 87.4688 270.198 84.776 271.041 82.0521C271.453 80.6875 271.828 79.2917 272.145 77.8802C272.442 76.4688 272.677 75.0469 272.849 73.6146C273.208 70.7604 273.27 67.8958 273.328 65.0365C273.38 59.3385 273.291 53.651 273.614 47.9792C273.927 42.3177 274.697 36.6615 276.302 31.2083C277.901 25.7604 280.369 20.5729 283.541 15.8438C280.286 20.5104 277.708 25.6719 276.005 31.1198C274.291 36.5677 273.406 42.2552 272.989 47.9427C272.562 53.6354 272.541 59.3385 272.385 65.0208C272.276 67.8542 272.161 70.6927 271.76 73.474C271.567 74.875 271.312 76.2552 271 77.625C270.666 78.9844 270.276 80.3281 269.843 81.6875C268.947 84.375 268.208 87.2344 267.895 90.1094C267.562 92.9844 267.494 95.8646 267.52 98.7292L267.692 107.276L267.947 115.823Z" fill="#229E8E"/>
</g>
</g>
<mask id="mask32_40_566" style="mask-type:luminance" maskUnits="userSpaceOnUse" x="205" y="253" width="133" height="133">
<path d="M205.755 253.511H337.948V385.797H205.755V253.511Z" fill="white"/>
</mask>
<g mask="url(#mask32_40_566)">
<mask id="mask33_40_566" style="mask-type:luminance" maskUnits="userSpaceOnUse" x="42" y="-30" width="529" height="459">
<path d="M368.271 419.995C407.005 433.48 450.864 432.688 484.468 403.146C514.307 376.907 577.448 312.719 569.739 194.188C554.354 -42.5777 273.656 -81.3382 139.406 29.8441C60.7601 94.9796 0.0205078 239.12 79.4736 342.48C129.994 408.198 151.406 374.042 187.88 390.959C210.338 401.375 235.015 406.886 260.25 406.318C279.521 405.886 301.156 403.625 321.807 395.969C333.396 391.677 355.718 415.625 368.271 419.995Z" fill="white"/>
</mask>
<g mask="url(#mask33_40_566)">
<path d="M235.229 279.23C235.515 279.787 244.307 277.073 261.885 271.636C264.646 270.776 267.547 269.855 267.495 268.828C267.411 267.36 261.302 266.021 256.271 266.313C244.333 267.006 234.14 277.12 235.229 279.23ZM222.343 274.98C234.588 260.568 252.026 253.474 267.578 253.698C271.661 253.756 278.661 253.948 282.38 258.646C288.213 265.995 281.593 278.834 284.422 280.209C287.958 281.933 295.755 262.052 308.942 260.844C318.698 259.953 329.385 267.73 333.828 276.48C345.12 298.703 330.708 329.693 314.776 346.834C305.453 356.86 280.146 378.776 257.812 376.808C253.343 376.412 237.953 374.089 231.083 382.334C229.604 384.105 229.265 385.48 227.948 385.709C222.323 386.683 211.583 364.443 207.984 344.495C206.354 335.459 200.156 301.099 222.343 274.98Z" fill="#42B2A3"/>
</g>
</g>
<mask id="mask34_40_566" style="mask-type:luminance" maskUnits="userSpaceOnUse" x="264" y="253" width="216" height="176">
<path d="M264.891 253.511H479.286V428.401H264.891V253.511Z" fill="white"/>
</mask>
<g mask="url(#mask34_40_566)">
<mask id="mask35_40_566" style="mask-type:luminance" maskUnits="userSpaceOnUse" x="42" y="-30" width="529" height="459">
<path d="M368.271 419.995C407.005 433.48 450.865 432.688 484.469 403.146C514.307 376.907 577.448 312.719 569.74 194.188C554.354 -42.5777 273.656 -81.3382 139.406 29.8441C60.7603 94.9796 0.020752 239.12 79.4739 342.48C129.995 408.198 151.406 374.042 187.88 390.959C210.338 401.375 235.016 406.886 260.25 406.318C279.521 405.886 301.156 403.625 321.807 395.969C333.396 391.677 355.719 415.625 368.271 419.995Z" fill="white"/>
</mask>
<g mask="url(#mask35_40_566)">
<path d="M273.547 438.235C274.875 437.094 276.51 435.865 278.135 434.631C279.771 433.391 281.443 432.131 283.094 430.829C286.411 428.23 289.682 425.49 292.812 422.584C299.078 416.771 304.792 410.25 309.568 403.068C314.365 395.902 318.198 388.079 320.943 379.933C323.713 371.782 325.37 363.313 326.115 354.823C326.286 352.704 326.427 350.579 326.5 348.454L326.656 342.292C326.781 338.25 327 334.209 327.338 330.188C328.005 322.141 329.135 314.152 330.969 306.365C332.807 298.589 335.365 290.99 339.073 284.053C342.76 277.131 347.635 270.058 353.906 265.532C357.026 263.266 360.5 262.261 364.141 260.912C365.958 260.24 367.823 259.678 369.724 259.235C370.693 259.016 371.599 258.834 372.531 258.704C373.458 258.573 374.406 258.485 375.359 258.448C379.161 258.287 383.047 258.823 386.838 259.839C390.641 260.834 394.349 262.308 397.937 264.063C405.104 267.605 411.776 272.266 417.932 277.527C424.094 282.787 429.766 288.667 435.005 294.912C445.479 307.417 454.245 321.375 461.542 336.047C468.844 350.73 474.698 366.146 479.25 381.943C475.146 366.021 469.724 350.412 462.802 335.438C455.885 320.48 447.453 306.146 437.177 293.136C432.031 286.646 426.422 280.485 420.24 274.896C414.068 269.308 407.307 264.271 399.844 260.313C396.104 258.355 392.187 256.662 388.073 255.448C383.958 254.23 379.641 253.485 375.224 253.547C374.12 253.563 373.016 253.625 371.911 253.75C370.807 253.87 369.687 254.063 368.646 254.271C366.536 254.698 364.443 255.266 362.385 255.959C358.276 257.349 354.333 259.313 350.734 261.771C343.49 266.693 337.802 273.558 333.562 280.995C329.302 288.459 326.354 296.506 324.177 304.652C322.016 312.818 320.604 321.12 319.672 329.438C319.203 333.594 318.859 337.761 318.615 341.928C318.484 343.99 318.401 346.152 318.292 348.089C318.187 350.073 318.016 352.047 317.812 354.016C316.953 361.891 315.266 369.636 312.588 377.011C309.922 384.381 306.307 391.381 301.828 397.787C297.359 404.204 292.052 410.027 286.161 415.266C283.213 417.891 280.125 420.375 276.922 422.777C275.323 423.98 273.693 425.167 272.021 426.37C270.349 427.594 268.672 428.787 266.838 430.282C264.62 432.099 264.292 435.375 266.109 437.599C267.927 439.829 271.203 440.157 273.427 438.339C273.453 438.313 273.479 438.292 273.5 438.271L273.547 438.235Z" fill="#229E8E"/>
</g>
</g>
<path d="M369.979 414.005H144.713C141.005 414.005 138.005 411.005 138.005 407.297V82.9215C138.005 79.2132 141.005 76.208 144.713 76.208H369.979C373.682 76.208 376.682 79.2132 376.682 82.9215V407.297C376.682 411.005 373.682 414.005 369.979 414.005Z" fill="#1D1538"/>
<path d="M367.385 397.807H147.302V86.333H367.385V397.807Z" fill="white"/>
<path d="M317.141 242.536C317.141 243.781 316.135 244.791 314.891 244.791C313.646 244.791 312.641 243.781 312.641 242.536C312.641 241.291 313.646 240.286 314.891 240.286C316.135 240.286 317.141 241.291 317.141 242.536Z" fill="#42B2A3"/>
<path d="M326.474 242.536C326.474 243.781 325.468 244.791 324.224 244.791C322.979 244.791 321.974 243.781 321.974 242.536C321.974 241.291 322.979 240.286 324.224 240.286C325.468 240.286 326.474 241.291 326.474 242.536Z" fill="#42B2A3"/>
<path d="M335.802 242.536C335.802 243.781 334.797 244.791 333.557 244.791C332.312 244.791 331.307 243.781 331.307 242.536C331.307 241.297 332.312 240.286 333.557 240.286C334.797 240.286 335.802 241.297 335.802 242.536Z" fill="#42B2A3"/>
<path d="M335.698 234.078H226.427C225.177 234.078 224.167 233.062 224.167 231.812C224.167 230.567 225.177 229.552 226.427 229.552H335.698C336.948 229.552 337.958 230.567 337.958 231.812C337.958 233.062 336.948 234.078 335.698 234.078Z" fill="#42B2A3"/>
<path d="M335.698 223.041H226.427C225.177 223.041 224.167 222.031 224.167 220.781C224.167 219.531 225.177 218.521 226.427 218.521H335.698C336.948 218.521 337.958 219.531 337.958 220.781C337.958 222.031 336.948 223.041 335.698 223.041Z" fill="#42B2A3"/>
<path d="M305.984 244.817H226.427C225.172 244.817 224.161 243.802 224.161 242.552C224.161 241.302 225.172 240.286 226.427 240.286H305.984C307.234 240.286 308.244 241.302 308.244 242.552C308.244 243.802 307.234 244.817 305.984 244.817Z" fill="#42B2A3"/>
<path d="M317.141 150.979C317.141 152.224 316.135 153.229 314.891 153.229C313.646 153.229 312.641 152.224 312.641 150.979C312.641 149.735 313.646 148.729 314.891 148.729C316.135 148.729 317.141 149.735 317.141 150.979Z" fill="#42B2A3"/>
<path d="M326.474 150.979C326.474 152.224 325.468 153.235 324.224 153.235C322.979 153.235 321.974 152.224 321.974 150.979C321.974 149.735 322.979 148.729 324.224 148.729C325.468 148.729 326.474 149.735 326.474 150.979Z" fill="#42B2A3"/>
<path d="M335.802 150.979C335.802 152.224 334.797 153.235 333.557 153.235C332.312 153.235 331.307 152.224 331.307 150.979C331.307 149.74 332.312 148.729 333.557 148.729C334.797 148.729 335.802 149.74 335.802 150.979Z" fill="#42B2A3"/>
<path d="M335.698 120.833H250C248.75 120.833 247.739 119.823 247.739 118.573C247.739 117.323 248.75 116.312 250 116.312H335.698C336.948 116.312 337.958 117.323 337.958 118.573C337.958 119.823 336.948 120.833 335.698 120.833Z" fill="#42B2A3"/>
<path d="M335.698 131.641H226.427C225.177 131.641 224.167 130.631 224.167 129.381C224.167 128.131 225.177 127.12 226.427 127.12H335.698C336.948 127.12 337.958 128.131 337.958 129.381C337.958 130.631 336.948 131.641 335.698 131.641Z" fill="#42B2A3"/>
<path d="M335.698 142.448H226.427C225.177 142.448 224.167 141.437 224.167 140.187C224.167 138.937 225.177 137.927 226.427 137.927H335.698C336.948 137.927 337.958 138.937 337.958 140.187C337.958 141.437 336.948 142.448 335.698 142.448Z" fill="#42B2A3"/>
<path d="M305.984 153.255H226.427C225.172 153.255 224.161 152.245 224.161 150.995C224.161 149.745 225.172 148.734 226.427 148.734H305.984C307.234 148.734 308.244 149.745 308.244 150.995C308.244 152.245 307.234 153.255 305.984 153.255Z" fill="#42B2A3"/>
<path d="M317.141 356.495C317.141 357.74 316.135 358.75 314.891 358.75C313.646 358.75 312.641 357.74 312.641 356.495C312.641 355.256 313.646 354.245 314.891 354.245C316.135 354.245 317.141 355.256 317.141 356.495Z" fill="#42B2A3"/>
<path d="M326.474 356.495C326.474 357.74 325.468 358.75 324.224 358.75C322.979 358.75 321.974 357.74 321.974 356.495C321.974 355.256 322.979 354.245 324.224 354.245C325.468 354.245 326.474 355.256 326.474 356.495Z" fill="#42B2A3"/>
<path d="M335.802 356.5C335.802 357.74 334.797 358.75 333.557 358.75C332.312 358.75 331.307 357.74 331.307 356.5C331.307 355.256 332.312 354.245 333.557 354.245C334.797 354.245 335.802 355.256 335.802 356.5Z" fill="#42B2A3"/>
<path d="M335.698 326.354H250C248.75 326.354 247.739 325.339 247.739 324.094C247.739 322.844 248.75 321.828 250 321.828H335.698C336.948 321.828 337.958 322.844 337.958 324.094C337.958 325.339 336.948 326.354 335.698 326.354Z" fill="#42B2A3"/>
<path d="M335.698 337.162H226.427C225.177 337.162 224.167 336.146 224.167 334.896C224.167 333.646 225.177 332.636 226.427 332.636H335.698C336.948 332.636 337.958 333.646 337.958 334.896C337.958 336.146 336.948 337.162 335.698 337.162Z" fill="#42B2A3"/>
<path d="M335.698 347.963H226.427C225.177 347.963 224.167 346.953 224.167 345.703C224.167 344.453 225.177 343.442 226.427 343.442H335.698C336.948 343.442 337.958 344.453 337.958 345.703C337.958 346.953 336.948 347.963 335.698 347.963Z" fill="#42B2A3"/>
<path d="M305.984 358.771H226.427C225.172 358.771 224.161 357.76 224.161 356.51C224.161 355.26 225.172 354.25 226.427 354.25H305.984C307.234 354.25 308.244 355.26 308.244 356.51C308.244 357.76 307.234 358.771 305.984 358.771Z" fill="#42B2A3"/>
<path d="M176.073 153.818H209.843V120.026H176.073V153.818ZM211.698 157.531H174.218C173.192 157.531 172.364 156.703 172.364 155.677V118.167C172.364 117.141 173.192 116.312 174.218 116.312H211.698C212.724 116.312 213.557 117.141 213.557 118.167V155.677C213.557 156.703 212.724 157.531 211.698 157.531Z" fill="#42B2A3"/>
<path d="M176.073 205.032H209.843V171.24H176.073V205.032ZM211.698 208.745H174.218C173.192 208.745 172.364 207.917 172.364 206.891V169.381C172.364 168.354 173.192 167.526 174.218 167.526H211.698C212.724 167.526 213.557 168.354 213.557 169.381V206.891C213.557 207.917 212.724 208.745 211.698 208.745Z" fill="#42B2A3"/>
<path d="M176.276 256.026H210.047V222.234H176.276V256.026ZM211.901 259.739H174.422C173.396 259.739 172.562 258.911 172.562 257.885V220.375C172.562 219.354 173.396 218.521 174.422 218.521H211.901C212.927 218.521 213.76 219.354 213.76 220.375V257.885C213.76 258.911 212.927 259.739 211.901 259.739Z" fill="#42B2A3"/>
<path d="M176.234 307.927H210V274.135H176.234V307.927ZM211.859 311.641H174.38C173.349 311.641 172.521 310.812 172.521 309.786V272.276C172.521 271.25 173.349 270.422 174.38 270.422H211.859C212.88 270.422 213.713 271.25 213.713 272.276V309.786C213.713 310.812 212.88 311.641 211.859 311.641Z" fill="#42B2A3"/>
<path d="M176.234 359.333H210V325.542H176.234V359.333ZM211.859 363.052H174.38C173.349 363.052 172.521 362.219 172.521 361.193V323.688C172.521 322.661 173.349 321.828 174.38 321.828H211.859C212.88 321.828 213.713 322.661 213.713 323.688V361.193C213.713 362.219 212.88 363.052 211.859 363.052Z" fill="#42B2A3"/>
<path d="M192.755 199.166C192.14 199.166 191.552 198.922 191.114 198.484L178.729 186.083C177.823 185.182 177.823 183.713 178.729 182.802C179.63 181.896 181.099 181.896 182.005 182.802L192.755 193.557L203.505 182.802C204.411 181.896 205.88 181.896 206.781 182.802C207.687 183.713 207.687 185.182 206.781 186.083L194.396 198.484C193.958 198.922 193.37 199.166 192.755 199.166Z" fill="#1D1538"/>
<path d="M192.755 148.036C192.14 148.036 191.552 147.791 191.114 147.354L178.729 134.958C177.823 134.052 177.823 132.578 178.729 131.677C179.63 130.765 181.099 130.765 182.005 131.677L192.755 142.427L203.505 131.677C204.411 130.765 205.88 130.765 206.781 131.677C207.687 132.578 207.687 134.052 206.781 134.958L194.396 147.354C193.958 147.791 193.37 148.036 192.755 148.036Z" fill="#1D1538"/>
<path d="M192.755 250.427C192.14 250.427 191.552 250.182 191.114 249.744L178.729 237.349C177.823 236.442 177.823 234.974 178.729 234.067C179.63 233.161 181.099 233.161 182.005 234.067L192.755 244.823L203.505 234.067C204.411 233.161 205.88 233.161 206.781 234.067C207.687 234.974 207.687 236.442 206.781 237.349L194.396 249.744C193.958 250.182 193.37 250.427 192.755 250.427Z" fill="#1D1538"/>
<path d="M192.755 354.089C192.14 354.089 191.552 353.849 191.114 353.411L178.729 341.016C177.823 340.109 177.823 338.641 178.729 337.734C179.63 336.828 181.099 336.828 182.005 337.734L192.755 348.484L203.505 337.734C204.411 336.828 205.88 336.828 206.781 337.734C207.687 338.641 207.687 340.109 206.781 341.016L194.396 353.411C193.958 353.849 193.37 354.089 192.755 354.089Z" fill="#1D1538"/>
<path d="M317.141 191.312C317.141 192.557 316.135 193.568 314.891 193.568C313.646 193.568 312.641 192.557 312.641 191.312C312.641 190.073 313.646 189.062 314.891 189.062C316.135 189.062 317.141 190.073 317.141 191.312Z" fill="#42B2A3"/>
<path d="M326.474 191.318C326.474 192.557 325.468 193.568 324.224 193.568C322.979 193.568 321.974 192.557 321.974 191.318C321.974 190.073 322.979 189.062 324.224 189.062C325.468 189.062 326.474 190.073 326.474 191.318Z" fill="#42B2A3"/>
<path d="M335.802 191.317C335.802 192.562 334.797 193.567 333.557 193.567C332.312 193.567 331.307 192.562 331.307 191.317C331.307 190.073 332.312 189.067 333.557 189.067C334.797 189.067 335.802 190.073 335.802 191.317Z" fill="#42B2A3"/>
<path d="M335.698 172.047H250C248.75 172.047 247.739 171.036 247.739 169.786C247.739 168.536 248.75 167.521 250 167.521H335.698C336.948 167.521 337.958 168.536 337.958 169.786C337.958 171.036 336.948 172.047 335.698 172.047Z" fill="#42B2A3"/>
<path d="M335.698 182.854H226.427C225.177 182.854 224.167 181.844 224.167 180.594C224.167 179.344 225.177 178.328 226.427 178.328H335.698C336.948 178.328 337.958 179.344 337.958 180.594C337.958 181.844 336.948 182.854 335.698 182.854Z" fill="#42B2A3"/>
<path d="M305.984 193.593H226.427C225.172 193.593 224.161 192.578 224.161 191.328C224.161 190.078 225.172 189.067 226.427 189.067H305.984C307.234 189.067 308.244 190.078 308.244 191.328C308.244 192.578 307.234 193.593 305.984 193.593Z" fill="#42B2A3"/>
<path d="M317.141 294.208C317.141 295.458 316.135 296.463 314.891 296.463C313.646 296.463 312.641 295.458 312.641 294.208C312.641 292.968 313.646 291.958 314.891 291.958C316.135 291.958 317.141 292.968 317.141 294.208Z" fill="#42B2A3"/>
<path d="M326.474 294.208C326.474 295.458 325.468 296.463 324.224 296.463C322.979 296.463 321.974 295.458 321.974 294.208C321.974 292.968 322.979 291.958 324.224 291.958C325.468 291.958 326.474 292.968 326.474 294.208Z" fill="#42B2A3"/>
<path d="M335.802 294.208C335.802 295.458 334.797 296.463 333.557 296.463C332.312 296.463 331.307 295.458 331.307 294.208C331.307 292.968 332.312 291.958 333.557 291.958C334.797 291.958 335.802 292.968 335.802 294.208Z" fill="#42B2A3"/>
<path d="M335.698 274.943H250C248.75 274.943 247.739 273.933 247.739 272.683C247.739 271.433 248.75 270.417 250 270.417H335.698C336.948 270.417 337.958 271.433 337.958 272.683C337.958 273.933 336.948 274.943 335.698 274.943Z" fill="#42B2A3"/>
<path d="M335.698 285.75H226.427C225.177 285.75 224.167 284.734 224.167 283.489C224.167 282.239 225.177 281.224 226.427 281.224H335.698C336.948 281.224 337.958 282.239 337.958 283.489C337.958 284.734 336.948 285.75 335.698 285.75Z" fill="#42B2A3"/>
<path d="M305.984 296.49H226.427C225.172 296.49 224.161 295.474 224.161 294.224C224.161 292.979 225.172 291.964 226.427 291.964H305.984C307.234 291.964 308.244 292.979 308.244 294.224C308.244 295.474 307.234 296.49 305.984 296.49Z" fill="#42B2A3"/>
<path d="M303.188 94.4743H211.5V79.4691C211.5 70.1149 219.078 62.5264 228.432 62.5264H286.255C295.604 62.5264 303.188 70.1149 303.188 79.4691V94.4743Z" fill="#E69601"/>
<path d="M296.391 62.5264H218.297C214.542 62.5264 211.5 65.5732 211.5 69.3285V86.1149H303.188V69.3285C303.188 65.5732 300.146 62.5264 296.391 62.5264Z" fill="#FCCC44"/>
<path d="M270.802 62.0625C270.802 69.5 264.776 75.526 257.344 75.526C249.911 75.526 243.891 69.5 243.891 62.0625C243.891 54.625 249.911 48.5938 257.344 48.5938C264.776 48.5938 270.802 54.625 270.802 62.0625Z" fill="#FCCC44"/>
<path d="M264.646 62.0622C264.646 66.0986 261.375 69.3695 257.344 69.3695C253.312 69.3695 250.042 66.0986 250.042 62.0622C250.042 58.0257 253.312 54.7549 257.344 54.7549C261.375 54.7549 264.646 58.0257 264.646 62.0622Z" fill="#42B2A3"/>
<mask id="mask36_40_566" style="mask-type:luminance" maskUnits="userSpaceOnUse" x="100" y="225" width="87" height="71">
<path d="M100.37 225.37H186.573V295.589H100.37V225.37Z" fill="white"/>
</mask>
<g mask="url(#mask36_40_566)">
<mask id="mask37_40_566" style="mask-type:luminance" maskUnits="userSpaceOnUse" x="2" y="16" width="445" height="406">
<path d="M278.177 391.433C292.255 380.136 288.021 375.354 322.401 345.125C352.937 318.276 441.859 324.157 446.385 202.698C452.172 47.2347 281.698 -25.2132 131.552 42.042C80.9947 64.6878 48.0415 99.9795 30.1197 130.235C2.19779 177.375 -11.3178 249.032 20.4009 318.86C48.9009 381.594 113.427 422.594 181.172 421.068C211.963 420.375 248.656 415.115 278.177 391.433Z" fill="white"/>
</mask>
<g mask="url(#mask37_40_566)">
<path d="M186.229 232.266C185.786 231.474 184.766 231.375 184.49 231.349C183.411 231.24 181.875 232 182.802 231.412C182.948 231.318 183.448 231.235 183.729 230.823C183.766 230.771 184.016 230.386 183.917 229.985C183.76 229.37 182.901 229.146 182.62 229.073C181.328 228.74 179.385 229.151 172.99 231.865C169.411 233.38 166.531 234.552 163.656 234.896C162.104 235.084 161.318 235.167 161.193 234.87C161.042 234.531 161.854 233.87 162.615 233.25C164.297 231.875 164.651 231.531 165.62 230.479C166.052 230 166.734 229.24 166.859 228.104C166.958 227.167 166.693 225.828 166 225.615C165.51 225.459 165.094 225.964 163.286 227.479C163.286 227.479 162.354 228.266 160.703 229.552C159.234 230.698 158.958 230.776 157.339 231.974C156.562 232.547 155.292 233.49 153.792 234.802C151.859 236.49 149.76 240.156 149.12 241.089C149.115 241.099 149.109 241.099 149.104 241.104C146.391 244.865 124.375 263.849 106.703 271.198C98.1093 274.766 99.9114 293.011 104.01 295.156C106.01 296.198 109.521 293.834 116.464 289.063C120.776 286.099 125.552 282.781 131.604 276.823C139.307 269.245 143.641 263.927 146.917 259.985C149.292 257.13 150.729 254.922 153.062 253.469C154.464 252.839 155.62 252.584 156.193 252.479C157.214 252.292 162.047 251.521 165.62 250.974C167.396 250.698 167.464 250.802 170.161 250.401C172.276 250.084 172.135 250.037 173.182 249.927C175 249.735 175.365 249.886 178.359 249.677C181.562 249.453 182.312 248.901 182.51 248.485C182.656 248.177 182.516 247.834 182.495 247.776C182.297 247.302 181.792 247.031 181.026 246.828C179.906 246.531 179.021 246.589 178.161 246.625C177.458 246.656 176.083 246.61 173.328 246.516C172.302 246.479 171.422 246.438 171.312 246.063C171.245 245.828 171.5 245.563 171.63 245.427C172.198 244.834 177.078 243.229 178.698 242.24C181.375 240.604 182.719 239.787 183.255 239.641C183.531 239.563 184.312 239.375 184.693 238.724C184.745 238.641 184.953 238.287 184.885 237.886C184.734 237.047 183.479 236.693 183.391 236.667C181.818 236.24 180.125 237.391 179.099 238.089C178.177 238.714 175.151 239.886 175.109 239.755C175.052 239.589 176.219 239.203 177.708 238.396C183.208 235.406 183.224 235.042 185.172 234.24C185.354 234.162 185.969 234.13 186.26 233.688C186.536 233.271 186.453 232.672 186.229 232.266Z" fill="#EC7D40"/>
</g>
</g>
<mask id="mask38_40_566" style="mask-type:luminance" maskUnits="userSpaceOnUse" x="46" y="295" width="82" height="127">
<path d="M46.4946 295.323H127.703V421.297H46.4946V295.323Z" fill="white"/>
</mask>
<g mask="url(#mask38_40_566)">
<mask id="mask39_40_566" style="mask-type:luminance" maskUnits="userSpaceOnUse" x="2" y="16" width="445" height="406">
<path d="M278.177 391.433C292.255 380.136 288.021 375.354 322.401 345.125C352.937 318.276 441.859 324.157 446.385 202.698C452.172 47.2347 281.698 -25.2132 131.552 42.042C80.9947 64.6878 48.0415 99.9795 30.1197 130.235C2.19779 177.375 -11.3178 249.032 20.4009 318.86C48.9009 381.594 113.427 422.594 181.172 421.068C211.963 420.375 248.656 415.115 278.177 391.433Z" fill="white"/>
</mask>
<g mask="url(#mask39_40_566)">
<path d="M50.9218 380.047C52.25 386.959 53.3802 416.339 53.9896 427.453C54.1094 429.657 55.8333 431.433 58.0312 431.61C72.5104 432.761 88.5573 433.422 107.62 427.151C115.177 424.667 121.193 420.724 126.286 416.334C127.531 415.261 127.698 413.625 127.703 411.985C127.74 396.771 125.74 383.688 124.807 379.495C121.573 364.933 120.505 357.479 120.396 349.146C120.297 341.412 120.615 338.094 119.849 329.834C118.87 319.323 117.62 311.844 113.229 306.104C103.214 293.026 76.651 291.771 63.6041 303.901C59.8125 307.422 57.7708 312.87 53.6771 323.761C50.3125 332.724 46.3489 343.568 46.5104 356.87C46.6093 364.953 48.125 365.5 50.9218 380.047Z" fill="#1D1538"/>
</g>
</g>
<mask id="mask40_40_566" style="mask-type:luminance" maskUnits="userSpaceOnUse" x="33" y="132" width="71" height="88">
<path d="M33.6196 132.005H103.526V219.843H33.6196V132.005Z" fill="white"/>
</mask>
<g mask="url(#mask40_40_566)">
<mask id="mask41_40_566" style="mask-type:luminance" maskUnits="userSpaceOnUse" x="2" y="16" width="445" height="406">
<path d="M278.177 391.432C292.255 380.135 288.021 375.354 322.401 345.125C352.937 318.276 441.859 324.156 446.385 202.698C452.172 47.2341 281.698 -25.2138 131.552 42.0414C80.9947 64.6872 48.0415 99.9789 30.1197 130.234C2.19779 177.375 -11.3178 249.031 20.4009 318.859C48.9009 381.593 113.427 422.593 181.172 421.067C211.963 420.375 248.656 415.114 278.177 391.432Z" fill="white"/>
</mask>
<g mask="url(#mask41_40_566)">
<path d="M65.5103 134.052C66.7239 133.672 67.1041 132.974 67.9739 132.682C74.5468 130.489 84.0989 134.604 87.9635 137.067C97.0781 142.87 99.8072 153.458 101.656 160.63C104.755 172.651 103.12 182.422 102.75 184.468C101.521 191.307 98.9843 205.385 86.5937 213.791C76.302 220.771 65.1145 219.833 61.677 219.547C57.5468 219.198 51.552 218.62 45.5208 214.338C43.5468 212.932 37.9999 208.599 35.3905 200.911C32.6041 192.703 33.6978 185.437 35.3905 179.812C37.2343 173.687 41.651 170.109 45.2499 160.906C47.7135 154.604 45.5208 145.562 57.2968 137.067C62.0208 133.656 63.4791 134.682 65.5103 134.052Z" fill="#1D1538"/>
</g>
</g>
<mask id="mask42_40_566" style="mask-type:luminance" maskUnits="userSpaceOnUse" x="55" y="158" width="31" height="58">
<path d="M55.6924 158.308H85.9163V215.115H55.6924V158.308Z" fill="white"/>
</mask>
<g mask="url(#mask42_40_566)">
<mask id="mask43_40_566" style="mask-type:luminance" maskUnits="userSpaceOnUse" x="2" y="16" width="445" height="406">
<path d="M278.177 391.433C292.255 380.136 288.02 375.354 322.401 345.125C352.937 318.276 441.859 324.157 446.385 202.698C452.172 47.2347 281.698 -25.2132 131.552 42.042C80.9944 64.6878 48.0413 99.9795 30.1194 130.235C2.19754 177.375 -11.3181 249.032 20.4007 318.86C48.9007 381.594 113.427 422.594 181.172 421.068C211.963 420.375 248.656 415.115 278.177 391.433Z" fill="white"/>
</mask>
<g mask="url(#mask43_40_566)">
<path d="M55.9839 162.297C58.2652 175.61 58.8329 178.37 59.286 187.349C59.9214 199.886 58.4058 203.193 59.8589 207.5C61.5725 212.579 65.7912 215.105 72.885 215.105C77.7808 215.105 82.9422 211.011 82.135 206.912C80.3225 197.677 82.786 192.131 84.3172 184.079C86.0204 175.146 86.5777 169.323 83.7704 165.016C78.4475 156.865 54.9839 156.469 55.9839 162.297Z" fill="#EC7D40"/>
</g>
</g>
<mask id="mask44_40_566" style="mask-type:luminance" maskUnits="userSpaceOnUse" x="35" y="198" width="86" height="115">
<path d="M35.2861 198.808H120.609V312.948H35.2861V198.808Z" fill="white"/>
</mask>
<g mask="url(#mask44_40_566)">
<mask id="mask45_40_566" style="mask-type:luminance" maskUnits="userSpaceOnUse" x="2" y="16" width="445" height="406">
<path d="M278.177 391.433C292.255 380.136 288.02 375.354 322.401 345.125C352.937 318.276 441.859 324.157 446.385 202.698C452.172 47.2347 281.698 -25.2132 131.552 42.042C80.9944 64.6878 48.0413 99.9795 30.1194 130.235C2.19754 177.375 -11.3181 249.032 20.4007 318.86C48.9007 381.594 113.427 422.594 181.172 421.068C211.963 420.375 248.656 415.115 278.177 391.433Z" fill="white"/>
</mask>
<g mask="url(#mask45_40_566)">
<path d="M42.6506 260.308C39.5829 253.339 35.8537 249.756 35.4839 241.547C35.3225 238 35.0048 234.584 36.5829 227.75C38.9735 217.401 41.0725 212.912 43.7548 208.438C47.8902 201.542 62.2235 194.922 77.9371 201.818C89.4371 206.865 88.4631 214.49 96.1923 223.334C109.39 238.433 120.119 247.891 120.395 296.73C120.406 298.521 119.213 300.954 117.088 302.245C113.77 304.261 109.687 301.849 104.958 300.589C99.8642 299.235 68.8433 297.006 60.8433 309.417C59.4892 311.526 57.6506 312.532 55.3329 312.73C49.4162 313.235 44.2131 304.495 43.2027 302.797C33.9631 287.282 50.6194 278.401 42.6506 260.308Z" fill="white"/>
</g>
</g>
<mask id="mask46_40_566" style="mask-type:luminance" maskUnits="userSpaceOnUse" x="63" y="203" width="54" height="69">
<path d="M63.0518 203.016H116.14V271.917H63.0518V203.016Z" fill="white"/>
</mask>
<g mask="url(#mask46_40_566)">
<mask id="mask47_40_566" style="mask-type:luminance" maskUnits="userSpaceOnUse" x="2" y="16" width="445" height="406">
<path d="M278.177 391.432C292.255 380.135 288.02 375.354 322.401 345.125C352.937 318.276 441.859 324.156 446.385 202.698C452.172 47.2343 281.698 -25.2136 131.552 42.0416C80.9944 64.6874 48.0413 99.9791 30.1194 130.234C2.19754 177.375 -11.3181 249.031 20.4007 318.859C48.9007 381.594 113.427 422.594 181.172 421.068C211.963 420.375 248.656 415.115 278.177 391.432Z" fill="white"/>
</mask>
<g mask="url(#mask47_40_566)">
<path d="M72.0412 204.271C76.536 202.094 83.0308 201.167 91.5464 215.344C100.39 230.062 112.567 239.302 114.171 242C118.364 249.052 115.541 261.516 107.765 267.615C99.3589 274.208 86.9579 271.969 79.6245 267.552C57.9318 254.505 59.9891 210.109 72.0412 204.271Z" fill="white"/>
</g>
</g>
<mask id="mask48_40_566" style="mask-type:luminance" maskUnits="userSpaceOnUse" x="87" y="138" width="20" height="78">
<path d="M87.4946 138.317H106.156V215.375H87.4946V138.317Z" fill="white"/>
</mask>
<g mask="url(#mask48_40_566)">
<mask id="mask49_40_566" style="mask-type:luminance" maskUnits="userSpaceOnUse" x="2" y="16" width="445" height="406">
<path d="M278.177 391.432C292.255 380.135 288.021 375.354 322.401 345.125C352.937 318.276 441.859 324.156 446.385 202.698C452.172 47.2341 281.698 -25.2138 131.552 42.0414C80.9947 64.6872 48.0415 99.9789 30.1197 130.234C2.19779 177.375 -11.3178 249.031 20.4009 318.859C48.9009 381.593 113.427 422.593 181.172 421.067C211.963 420.375 248.656 415.114 278.177 391.432Z" fill="white"/>
</mask>
<g mask="url(#mask49_40_566)">
<path d="M89.0363 138.406C90.6092 139.286 92.1509 140.291 93.4946 141.541C94.8488 142.776 96.0936 144.151 97.1561 145.656C99.3228 148.661 100.87 152.062 102.094 155.515C102.698 157.245 103.229 158.995 103.719 160.739C103.969 161.599 104.198 162.5 104.422 163.39C104.542 163.838 104.635 164.291 104.729 164.739L105.015 166.094C105.693 169.719 106.047 173.406 106.015 177.099C106 178.948 105.901 180.791 105.703 182.635C105.599 183.552 105.469 184.469 105.312 185.39L105.187 186.078L105.062 186.745C104.979 187.187 104.885 187.635 104.797 188.083C104.062 191.656 103.088 195.239 101.656 198.646C100.234 202.047 98.3644 205.291 96.0103 208.125C93.6509 210.948 90.8332 213.375 87.6665 215.13C90.4686 212.849 92.9217 210.219 94.88 207.271C96.854 204.338 98.3853 201.151 99.5415 197.828C100.125 196.172 100.609 194.474 101.036 192.765C101.448 191.052 101.807 189.323 102.114 187.567L102.338 186.25L102.453 185.583L102.557 184.937C102.687 184.078 102.792 183.213 102.875 182.338C103.047 180.594 103.13 178.838 103.135 177.083C103.151 176.198 103.13 175.323 103.109 174.442C103.094 174.005 103.062 173.562 103.042 173.125C103.026 172.687 102.989 172.25 102.953 171.812C102.838 170.052 102.588 168.312 102.333 166.567L102.099 165.271C102.021 164.833 101.948 164.401 101.844 163.974C101.651 163.114 101.484 162.255 101.265 161.38C100.849 159.63 100.427 157.906 99.9425 156.203C98.9634 152.802 97.7446 149.479 95.979 146.422C95.13 144.875 94.0675 143.458 92.9321 142.094L92.0415 141.099C91.7342 140.781 91.4009 140.484 91.078 140.172L90.5988 139.703C90.4269 139.552 90.2498 139.416 90.078 139.271L89.0363 138.406Z" fill="#1D1538"/>
</g>
</g>
<mask id="mask50_40_566" style="mask-type:luminance" maskUnits="userSpaceOnUse" x="30" y="133" width="36" height="82">
<path d="M30.2031 133.849H65.6823V214.849H30.2031V133.849Z" fill="white"/>
</mask>
<g mask="url(#mask50_40_566)">
<mask id="mask51_40_566" style="mask-type:luminance" maskUnits="userSpaceOnUse" x="2" y="16" width="445" height="406">
<path d="M278.177 391.432C292.255 380.135 288.021 375.354 322.401 345.125C352.938 318.276 441.859 324.156 446.386 202.698C452.172 47.2341 281.698 -25.2138 131.552 42.0414C80.9949 64.6872 48.0418 99.9789 30.1199 130.234C2.19803 177.375 -11.3176 249.031 20.4012 318.859C48.9012 381.593 113.427 422.593 181.172 421.067C211.964 420.375 248.656 415.114 278.177 391.432Z" fill="white"/>
</mask>
<g mask="url(#mask51_40_566)">
<path d="M42.7711 214.718C41.0575 213.609 39.469 212.281 38.0419 210.781C36.6044 209.296 35.3544 207.614 34.2815 205.823C33.219 204.02 32.37 202.067 31.7659 200.062C31.1461 198.062 30.7242 195.984 30.5054 193.885C30.2919 191.786 30.2867 189.661 30.4794 187.557C30.6721 185.453 31.0731 183.375 31.6044 181.338C31.745 180.833 31.8804 180.328 32.0367 179.823L32.2763 179.073C32.3544 178.823 32.4534 178.562 32.5471 178.307C32.9065 177.276 33.3752 176.296 33.87 175.343C34.8909 173.453 36.0784 171.734 37.2086 170.057C38.3544 168.385 39.4534 166.724 40.4377 165C40.6929 164.578 40.9273 164.14 41.1617 163.703L41.5159 163.052L41.8492 162.385C42.0731 161.948 42.2971 161.505 42.5002 161.052L42.8075 160.375L42.969 160.041C43.0159 159.927 43.0523 159.823 43.094 159.713C43.8023 158.01 44.1929 156.052 44.6617 154.057C44.8961 153.057 45.1356 152.041 45.4273 151.026C45.5575 150.526 45.745 150.02 45.9065 149.52C46.0575 149.015 46.2711 148.52 46.469 148.026C47.2763 146.052 48.3648 144.187 49.6721 142.51C50.3804 141.718 51.0367 140.885 51.8336 140.187L52.4065 139.645C52.594 139.463 52.7867 139.286 52.995 139.13L54.2294 138.156C54.6304 137.817 55.0731 137.546 55.5054 137.26L56.8023 136.401C57.6877 135.864 58.5992 135.354 59.5627 134.948C60.5263 134.541 61.5523 134.234 62.594 134.13C63.6409 134.026 64.6513 134.187 65.6565 133.994C65.1773 134.171 64.6617 134.255 64.1565 134.323C63.6461 134.385 63.1461 134.448 62.6617 134.562C61.6929 134.776 60.7815 135.177 59.9169 135.666C59.0575 136.161 58.2294 136.724 57.4325 137.328L56.2606 138.27C55.87 138.588 55.4742 138.89 55.1252 139.244L54.0419 140.265C53.8544 140.432 53.6877 140.614 53.5263 140.802L53.0315 141.349C52.3388 142.057 51.7867 142.869 51.1877 143.64C50.0992 145.265 49.2242 147 48.5836 148.833C47.9325 150.666 47.5263 152.593 47.1461 154.578C46.7659 156.562 46.4221 158.64 45.6304 160.734C45.5836 160.859 45.5367 160.994 45.4898 161.125L45.3336 161.484L45.0159 162.203C44.8127 162.682 44.5836 163.151 44.3544 163.625L44.0159 164.333L43.6513 165.026C43.4117 165.494 43.1721 165.958 42.9065 166.411C41.8856 168.234 40.7398 169.984 39.594 171.677C38.4325 173.369 37.3023 175.005 36.37 176.692C35.9117 177.541 35.4846 178.395 35.1565 179.286C35.0731 179.51 34.9846 179.724 34.9065 179.953L34.6721 180.661C34.5211 181.13 34.3752 181.599 34.2294 182.073C33.6773 183.968 33.2606 185.89 32.995 187.838C32.7502 189.786 32.6617 191.75 32.7554 193.713C32.8544 195.682 33.1356 197.64 33.5836 199.567C34.0263 201.5 34.6669 203.364 35.5211 205.161C36.3648 206.958 37.4221 208.666 38.6461 210.265C39.2502 211.073 39.9065 211.838 40.5992 212.583C41.2815 213.333 42.0106 214.036 42.7711 214.718Z" fill="#1D1538"/>
</g>
</g>
<mask id="mask52_40_566" style="mask-type:luminance" maskUnits="userSpaceOnUse" x="54" y="139" width="41" height="56">
<path d="M54.6455 139.109H94.3278V194.865H54.6455V139.109Z" fill="white"/>
</mask>
<g mask="url(#mask52_40_566)">
<mask id="mask53_40_566" style="mask-type:luminance" maskUnits="userSpaceOnUse" x="2" y="16" width="445" height="406">
<path d="M278.177 391.432C292.255 380.135 288.02 375.354 322.401 345.125C352.937 318.276 441.859 324.156 446.385 202.698C452.172 47.2343 281.698 -25.2136 131.552 42.0416C80.9944 64.6874 48.0413 99.9791 30.1194 130.234C2.19754 177.375 -11.3181 249.031 20.4007 318.859C48.9007 381.594 113.427 422.594 181.172 421.068C211.963 420.375 248.656 415.115 278.177 391.432Z" fill="white"/>
</mask>
<g mask="url(#mask53_40_566)">
<path d="M92.2602 149.364C94.4789 154.693 93.9998 157.849 93.5362 160.078C93.3175 161.114 92.8591 162.672 93.0258 164.922C93.1196 166.224 93.38 167.109 93.5362 167.729C94.3071 170.849 94.1769 173.708 93.7914 175.635C93.0258 179.463 88.1821 191.198 84.3591 193.489C82.7862 194.437 81.2602 194.677 80.0258 194.766C77.1873 194.979 74.8383 194.297 73.3956 193.745C64.38 190.323 60.3644 180.656 59.8904 179.463C59.031 177.318 58.6769 175.635 58.3591 174.104C56.9269 167.187 51.8539 159.359 57.0831 149.411C58.6091 146.51 67.281 135.338 83.5571 140.891C87.3904 142.198 90.5362 145.219 92.2602 149.364Z" fill="#F79556"/>
</g>
</g>
<mask id="mask54_40_566" style="mask-type:luminance" maskUnits="userSpaceOnUse" x="51" y="137" width="22" height="33">
<path d="M51.75 137.531H72.25V169.333H51.75V137.531Z" fill="white"/>
</mask>
<g mask="url(#mask54_40_566)">
<mask id="mask55_40_566" style="mask-type:luminance" maskUnits="userSpaceOnUse" x="2" y="16" width="445" height="406">
<path d="M278.177 391.432C292.255 380.135 288.021 375.354 322.401 345.125C352.938 318.276 441.859 324.156 446.386 202.698C452.172 47.2343 281.698 -25.2136 131.552 42.0416C80.9949 64.6874 48.0418 99.9791 30.1199 130.234C2.19803 177.375 -11.3176 249.031 20.4012 318.859C48.9012 381.594 113.427 422.594 181.172 421.068C211.964 420.375 248.656 415.115 278.177 391.432Z" fill="white"/>
</mask>
<g mask="url(#mask55_40_566)">
<path d="M67.5888 137.63C67.5888 137.63 67.8336 137.682 68.0784 137.781C69.6252 138.406 71.2555 141.073 71.9221 144.516C72.2502 146.219 72.3075 147.479 72.1773 149.109C71.5627 156.833 62.219 157.875 59.943 165.432C58.0159 171.818 55.5055 168.641 54.5888 166.198C50.6409 155.677 48.9638 147.323 63.4898 138.396C64.4065 137.833 66.4846 137.391 67.5888 137.63Z" fill="#1D1538"/>
</g>
</g>
<mask id="mask56_40_566" style="mask-type:luminance" maskUnits="userSpaceOnUse" x="68" y="135" width="29" height="30">
<path d="M68.3071 135.688H96.953V164.62H68.3071V135.688Z" fill="white"/>
</mask>
<g mask="url(#mask56_40_566)">
<mask id="mask57_40_566" style="mask-type:luminance" maskUnits="userSpaceOnUse" x="2" y="16" width="445" height="406">
<path d="M278.177 391.432C292.255 380.135 288.021 375.354 322.401 345.125C352.937 318.276 441.859 324.156 446.385 202.698C452.172 47.2343 281.698 -25.2136 131.552 42.0416C80.9947 64.6874 48.0415 99.9791 30.1197 130.234C2.19779 177.375 -11.3178 249.031 20.4009 318.859C48.9009 381.594 113.427 422.594 181.172 421.068C211.963 420.375 248.656 415.115 278.177 391.432Z" fill="white"/>
</mask>
<g mask="url(#mask57_40_566)">
<path d="M70.6457 136.865C72.1874 136.177 81.7968 132.646 91.802 142.984C97.4009 148.766 96.8176 157.156 96.6457 160.333C96.5155 162.812 94.8853 164.391 94.5989 164.411C94.0728 164.453 97.5155 155.292 78.8228 150.172C73.5155 148.724 71.5884 145.198 71.1561 144.771C69.677 143.318 67.5936 140.359 68.6093 138.396C69.0259 137.594 69.8124 137.24 70.6457 136.865Z" fill="#1D1538"/>
</g>
</g>
<mask id="mask58_40_566" style="mask-type:luminance" maskUnits="userSpaceOnUse" x="52" y="163" width="11" height="17">
<path d="M52.2759 163.302H62.7915V179.343H52.2759V163.302Z" fill="white"/>
</mask>
<g mask="url(#mask58_40_566)">
<mask id="mask59_40_566" style="mask-type:luminance" maskUnits="userSpaceOnUse" x="2" y="16" width="445" height="406">
<path d="M278.177 391.432C292.255 380.135 288.021 375.354 322.401 345.125C352.937 318.276 441.859 324.156 446.385 202.698C452.172 47.2341 281.698 -25.2138 131.552 42.0414C80.9947 64.6872 48.0415 99.9789 30.1197 130.234C2.19779 177.375 -11.3178 249.031 20.4009 318.859C48.9009 381.593 113.427 422.593 181.172 421.067C211.963 420.375 248.656 415.114 278.177 391.432Z" fill="white"/>
</mask>
<g mask="url(#mask59_40_566)">
<path d="M59.5831 165.182C59.1561 164.802 57.1925 163.036 55.4581 163.672C53.8019 164.281 52.7811 166.109 52.5154 167.599C51.9634 170.703 53.0519 175.557 55.755 177.88C56.2967 178.349 57.3696 179.244 58.6977 179.088C59.9477 178.948 60.755 177.948 61.0571 177.578C63.4529 174.619 63.0154 168.26 59.5831 165.182Z" fill="#F79556"/>
</g>
</g>
<mask id="mask60_40_566" style="mask-type:luminance" maskUnits="userSpaceOnUse" x="75" y="184" width="12" height="5">
<path d="M75.6665 184.078H86.9686V188.552H75.6665V184.078Z" fill="white"/>
</mask>
<g mask="url(#mask60_40_566)">
<mask id="mask61_40_566" style="mask-type:luminance" maskUnits="userSpaceOnUse" x="2" y="16" width="445" height="406">
<path d="M278.177 391.432C292.255 380.135 288.021 375.354 322.401 345.125C352.937 318.276 441.859 324.156 446.385 202.698C452.172 47.2343 281.698 -25.2136 131.552 42.0416C80.9947 64.6874 48.0415 99.9791 30.1197 130.234C2.19779 177.375 -11.3178 249.031 20.4009 318.859C48.9009 381.594 113.427 422.594 181.172 421.068C211.963 420.375 248.656 415.115 278.177 391.432Z" fill="white"/>
</mask>
<g mask="url(#mask61_40_566)">
<path d="M75.9323 185.13C75.7969 184.948 75.9063 184.688 76.1303 184.651C77.099 184.495 79.4584 184.156 82.1719 184.156C84.0313 184.156 85.8073 184.458 86.5469 184.599C86.7448 184.641 86.849 184.849 86.7657 185.026C86.349 185.964 84.9271 188.427 81.6094 188.396C78.6251 188.37 76.6303 186.073 75.9323 185.13Z" fill="#D65B5B"/>
</g>
</g>
<mask id="mask62_40_566" style="mask-type:luminance" maskUnits="userSpaceOnUse" x="86" y="159" width="12" height="5">
<path d="M86.4424 159.62H97.7445V163.302H86.4424V159.62Z" fill="white"/>
</mask>
<g mask="url(#mask62_40_566)">
<mask id="mask63_40_566" style="mask-type:luminance" maskUnits="userSpaceOnUse" x="2" y="16" width="445" height="406">
<path d="M278.177 391.433C292.255 380.136 288.02 375.354 322.401 345.125C352.937 318.276 441.859 324.157 446.385 202.698C452.172 47.2347 281.698 -25.2132 131.552 42.042C80.9944 64.6878 48.0413 99.9795 30.1194 130.235C2.19754 177.375 -11.3181 249.032 20.4007 318.86C48.9007 381.594 113.427 422.594 181.172 421.068C211.963 420.375 248.656 415.115 278.177 391.433Z" fill="white"/>
</mask>
<g mask="url(#mask63_40_566)">
<path d="M86.7026 163.12C86.8745 162.552 87.187 162.068 87.5568 161.646C87.9266 161.214 88.3693 160.849 88.8537 160.547C89.8328 159.927 91.0516 159.834 92.1766 159.86C92.4631 159.87 92.7443 159.87 93.0256 159.917L93.4422 159.969C93.5881 159.995 93.7391 160.032 93.8849 160.063C94.4683 160.235 94.9839 160.521 95.4318 160.855C96.3224 161.526 96.9578 162.381 97.6037 163.146L97.4891 163.302C97.0256 163.026 96.6297 162.698 96.2131 162.417C95.7964 162.131 95.3693 161.875 94.9318 161.693C94.4995 161.495 94.0568 161.365 93.6349 161.339L93.3172 161.329L92.9683 161.344C92.7391 161.344 92.5047 161.386 92.2808 161.417C92.0516 161.448 91.8276 161.516 91.6089 161.573C91.3901 161.662 91.1766 161.724 90.9683 161.823C90.5464 161.995 90.1349 162.172 89.6974 162.308L88.3485 162.771C87.8797 162.933 87.3953 163.099 86.8433 163.256L86.7026 163.12Z" fill="#1D1538"/>
</g>
</g>
<mask id="mask64_40_566" style="mask-type:luminance" maskUnits="userSpaceOnUse" x="64" y="158" width="16" height="6">
<path d="M64.8906 158.667H79.0833V163.568H64.8906V158.667Z" fill="white"/>
</mask>
<g mask="url(#mask64_40_566)">
<mask id="mask65_40_566" style="mask-type:luminance" maskUnits="userSpaceOnUse" x="2" y="16" width="445" height="406">
<path d="M278.177 391.433C292.255 380.136 288.021 375.354 322.401 345.125C352.938 318.276 441.859 324.157 446.386 202.698C452.172 47.2347 281.698 -25.2132 131.552 42.042C80.9949 64.6878 48.0418 99.9795 30.1199 130.235C2.19803 177.375 -11.3176 249.032 20.4012 318.86C48.9012 381.594 113.427 422.594 181.172 421.068C211.964 420.375 248.656 415.115 278.177 391.433Z" fill="white"/>
</mask>
<g mask="url(#mask65_40_566)">
<path d="M65.0156 161.438C65.9948 160.578 67.1562 159.932 68.4062 159.438C69.6615 158.959 71.0417 158.729 72.4479 158.776C72.7969 158.776 73.1458 158.823 73.5052 158.834C73.8594 158.875 74.2083 158.927 74.5677 158.979C75.276 159.12 75.9479 159.401 76.5365 159.818C77.7083 160.641 78.6458 161.797 78.9531 163.235L78.7604 163.396C77.4219 162.906 76.375 162.427 75.3229 162.031C74.8021 161.828 74.3073 161.61 73.8073 161.365C73.5521 161.25 73.2969 161.13 73.0365 161.021C72.7656 160.938 72.4948 160.839 72.2188 160.781C71.6615 160.672 71.0833 160.584 70.5 160.584C69.9115 160.552 69.3177 160.589 68.7188 160.667C67.5104 160.797 66.3125 161.156 65.151 161.651L65.0156 161.438Z" fill="#1D1538"/>
</g>
</g>
<mask id="mask66_40_566" style="mask-type:luminance" maskUnits="userSpaceOnUse" x="69" y="165" width="8" height="4">
<path d="M69.9531 165.333H76.7188V168.562H69.9531V165.333Z" fill="white"/>
</mask>
<g mask="url(#mask66_40_566)">
<mask id="mask67_40_566" style="mask-type:luminance" maskUnits="userSpaceOnUse" x="2" y="16" width="445" height="406">
<path d="M278.177 391.432C292.255 380.135 288.021 375.354 322.401 345.125C352.938 318.276 441.859 324.156 446.386 202.698C452.172 47.2341 281.698 -25.2138 131.552 42.0414C80.9949 64.6872 48.0418 99.9789 30.1199 130.234C2.19803 177.375 -11.3176 249.031 20.4012 318.859C48.9012 381.593 113.427 422.593 181.172 421.067C211.964 420.375 248.656 415.114 278.177 391.432Z" fill="white"/>
</mask>
<g mask="url(#mask67_40_566)">
<path d="M69.9637 167.593C70.0054 167.927 71.12 168.802 74.1043 168.442C75.4325 168.281 76.7137 167.791 76.6356 167.125C76.5627 166.489 75.5679 165.427 74.4064 165.375C72.3752 165.281 69.8856 166.927 69.9637 167.593Z" fill="#E6E6E6"/>
</g>
</g>
<mask id="mask68_40_566" style="mask-type:luminance" maskUnits="userSpaceOnUse" x="71" y="165" width="5" height="5">
<path d="M71.9893 165.406H75.6663V169.333H71.9893V165.406Z" fill="white"/>
</mask>
<g mask="url(#mask68_40_566)">
<mask id="mask69_40_566" style="mask-type:luminance" maskUnits="userSpaceOnUse" x="2" y="16" width="445" height="406">
<path d="M278.177 391.432C292.255 380.135 288.02 375.354 322.401 345.125C352.937 318.276 441.859 324.156 446.385 202.698C452.172 47.2343 281.698 -25.2136 131.552 42.0416C80.9944 64.6874 48.0413 99.9791 30.1194 130.234C2.19754 177.375 -11.3181 249.031 20.4007 318.859C48.9007 381.594 113.427 422.594 181.172 421.068C211.963 420.375 248.656 415.115 278.177 391.432Z" fill="white"/>
</mask>
<g mask="url(#mask69_40_566)">
<path d="M72.1818 166.568C72.7287 164.755 75.9162 165.109 75.4839 167.536C75.0464 169.969 71.3016 169.479 72.1818 166.568Z" fill="#1D1538"/>
</g>
</g>
<mask id="mask70_40_566" style="mask-type:luminance" maskUnits="userSpaceOnUse" x="66" y="165" width="12" height="3">
<path d="M66.9946 165.146H77.2446V168H66.9946V165.146Z" fill="white"/>
</mask>
<g mask="url(#mask70_40_566)">
<mask id="mask71_40_566" style="mask-type:luminance" maskUnits="userSpaceOnUse" x="2" y="16" width="445" height="406">
<path d="M278.177 391.432C292.255 380.135 288.021 375.354 322.401 345.125C352.937 318.276 441.859 324.156 446.385 202.698C452.172 47.2341 281.698 -25.2138 131.552 42.0414C80.9947 64.6872 48.0415 99.9789 30.1197 130.234C2.19779 177.375 -11.3178 249.031 20.4009 318.859C48.9009 381.593 113.427 422.593 181.172 421.067C211.963 420.375 248.656 415.114 278.177 391.432Z" fill="white"/>
</mask>
<g mask="url(#mask71_40_566)">
<path d="M76.9946 167.593C76.6144 167.276 76.255 167.026 75.8853 166.89C75.5207 166.75 75.1717 166.713 74.8071 166.724C74.0832 166.744 73.2967 166.958 72.4686 167.172C71.6405 167.39 70.7655 167.63 69.8175 167.744C69.3384 167.802 68.8384 167.828 68.3175 167.734C68.0623 167.692 67.7967 167.609 67.5623 167.479C67.3228 167.338 67.1353 167.13 67.0415 166.906C67.2811 166.989 67.4894 167.01 67.6925 166.989C67.8957 166.958 68.0832 166.916 68.2811 166.843C68.6665 166.713 69.0519 166.536 69.453 166.359C70.2498 166.015 71.0884 165.656 72.0103 165.411C72.9269 165.182 73.9582 165.02 75.0363 165.312C75.5623 165.463 76.0832 165.765 76.4321 166.187C76.7811 166.604 76.9686 167.104 76.9946 167.593Z" fill="#1D1538"/>
</g>
</g>
<mask id="mask72_40_566" style="mask-type:luminance" maskUnits="userSpaceOnUse" x="87" y="165" width="6" height="4">
<path d="M87.4946 165.672H92.2238V168.828H87.4946V165.672Z" fill="white"/>
</mask>
<g mask="url(#mask72_40_566)">
<mask id="mask73_40_566" style="mask-type:luminance" maskUnits="userSpaceOnUse" x="2" y="16" width="445" height="406">
<path d="M278.177 391.432C292.255 380.135 288.021 375.354 322.401 345.125C352.937 318.276 441.859 324.156 446.385 202.698C452.172 47.2343 281.698 -25.2136 131.552 42.0416C80.9947 64.6874 48.0415 99.9791 30.1197 130.234C2.19779 177.375 -11.3178 249.031 20.4009 318.859C48.9009 381.594 113.427 422.594 181.172 421.068C211.963 420.375 248.656 415.115 278.177 391.432Z" fill="white"/>
</mask>
<g mask="url(#mask73_40_566)">
<path d="M87.5833 167.755C87.6198 168.052 88.4896 168.854 90.7708 168.578C91.7864 168.458 92.2187 167.896 92.1458 167.302C92.0781 166.729 91.8437 165.901 90.9531 165.833C89.3958 165.719 87.5156 167.156 87.5833 167.755Z" fill="#E6E6E6"/>
</g>
</g>
<mask id="mask74_40_566" style="mask-type:luminance" maskUnits="userSpaceOnUse" x="89" y="165" width="4" height="5">
<path d="M89.0728 165.933H92.4894V169.089H89.0728V165.933Z" fill="white"/>
</mask>
<g mask="url(#mask74_40_566)">
<mask id="mask75_40_566" style="mask-type:luminance" maskUnits="userSpaceOnUse" x="2" y="16" width="445" height="406">
<path d="M278.177 391.433C292.255 380.136 288.021 375.354 322.401 345.125C352.937 318.276 441.859 324.157 446.385 202.698C452.172 47.2347 281.698 -25.2132 131.552 42.042C80.9947 64.6878 48.0415 99.9795 30.1197 130.235C2.19779 177.375 -11.3178 249.032 20.4009 318.86C48.9009 381.594 113.427 422.594 181.172 421.068C211.963 420.375 248.656 415.115 278.177 391.433Z" fill="white"/>
</mask>
<g mask="url(#mask75_40_566)">
<path d="M89.4219 166.964C89.8855 165.433 92.5678 165.729 92.2032 167.776C91.8386 169.823 88.6823 169.417 89.4219 166.964Z" fill="#1D1538"/>
</g>
</g>
<mask id="mask76_40_566" style="mask-type:luminance" maskUnits="userSpaceOnUse" x="85" y="165" width="9" height="4">
<path d="M85.9531 165.333H93.8021V168.302H85.9531V165.333Z" fill="white"/>
</mask>
<g mask="url(#mask76_40_566)">
<mask id="mask77_40_566" style="mask-type:luminance" maskUnits="userSpaceOnUse" x="2" y="16" width="445" height="406">
<path d="M278.177 391.432C292.255 380.135 288.021 375.354 322.401 345.125C352.938 318.276 441.859 324.156 446.386 202.698C452.172 47.2341 281.698 -25.2138 131.552 42.0414C80.9949 64.6872 48.0418 99.9789 30.1199 130.234C2.19803 177.375 -11.3176 249.031 20.4012 318.859C48.9012 381.593 113.427 422.593 181.172 421.067C211.964 420.375 248.656 415.114 278.177 391.432Z" fill="white"/>
</mask>
<g mask="url(#mask77_40_566)">
<path d="M93.6771 167.406C93.3229 167.245 93.0208 167.078 92.7188 166.974C92.4167 166.87 92.1406 166.817 91.8854 166.823C91.3854 166.817 90.901 166.989 90.3229 167.229C89.7448 167.458 89.1146 167.76 88.3646 167.937C87.9896 168.021 87.5781 168.078 87.151 168.005C86.724 167.927 86.3229 167.687 86.1406 167.343C86.5313 167.39 86.8333 167.323 87.1042 167.203C87.3698 167.088 87.625 166.922 87.8906 166.75C88.4219 166.406 89 166.01 89.7083 165.724C90.0625 165.583 90.4531 165.463 90.8802 165.416C91.3073 165.375 91.7708 165.416 92.1927 165.583C92.6094 165.75 92.9583 166.031 93.2031 166.349C93.4479 166.672 93.6042 167.031 93.6771 167.406Z" fill="#1D1538"/>
</g>
</g>
<mask id="mask78_40_566" style="mask-type:luminance" maskUnits="userSpaceOnUse" x="64" y="298" width="54" height="17">
<path d="M64.6299 298.479H117.718V314.261H64.6299V298.479Z" fill="white"/>
</mask>
<g mask="url(#mask78_40_566)">
<mask id="mask79_40_566" style="mask-type:luminance" maskUnits="userSpaceOnUse" x="2" y="16" width="445" height="406">
<path d="M278.177 391.433C292.255 380.136 288.02 375.354 322.401 345.125C352.937 318.276 441.859 324.157 446.385 202.698C452.172 47.2347 281.698 -25.2132 131.552 42.042C80.9944 64.6878 48.0413 99.9795 30.1194 130.235C2.19754 177.375 -11.3181 249.032 20.4007 318.86C48.9007 381.594 113.427 422.594 181.172 421.068C211.963 420.375 248.656 415.115 278.177 391.433Z" fill="white"/>
</mask>
<g mask="url(#mask79_40_566)">
<path d="M64.7079 305.558C64.9215 306.922 69.3746 302.933 83.4527 307.209C114.333 316.589 117.088 313.834 117.088 313.834L117.64 301.693C117.64 301.693 98.3434 293.964 69.6663 302.797C65.2652 304.151 64.635 305.12 64.7079 305.558Z" fill="#FCCC44"/>
</g>
</g>
<mask id="mask80_40_566" style="mask-type:luminance" maskUnits="userSpaceOnUse" x="40" y="276" width="119" height="27">
<path d="M40.1875 276.651H158.714V302.162H40.1875V276.651Z" fill="white"/>
</mask>
<g mask="url(#mask80_40_566)">
<mask id="mask81_40_566" style="mask-type:luminance" maskUnits="userSpaceOnUse" x="2" y="16" width="445" height="406">
<path d="M278.177 391.433C292.255 380.136 288.021 375.354 322.401 345.125C352.938 318.276 441.859 324.157 446.386 202.698C452.172 47.2347 281.698 -25.2132 131.552 42.042C80.9949 64.6878 48.0418 99.9795 30.1199 130.235C2.19803 177.375 -11.3176 249.032 20.4012 318.86C48.9012 381.594 113.427 422.594 181.172 421.068C211.964 420.375 248.656 415.115 278.177 391.433Z" fill="white"/>
</mask>
<g mask="url(#mask81_40_566)">
<path d="M62.5002 281.828C75.6305 281.662 77.0732 282.615 85.1096 282.381C91.8648 282.183 98.8857 281.974 107.162 279.62C109.849 278.855 114.703 277.292 121.5 276.86C123.115 276.761 125.266 276.636 128.115 276.86C135.99 277.49 137.495 279.886 141.901 280.172C142.344 280.198 143.776 280.271 144.656 281.276C144.74 281.365 145.464 282.214 145.209 282.933C144.88 283.87 143.084 283.995 142.453 284.037C138.276 284.323 134.735 282.933 131.979 282.381C131.63 282.313 129.854 281.901 129.771 282.381C129.703 282.792 130.917 283.287 134.183 284.589C140.755 287.203 140.906 287.276 142.453 287.901C145.209 289 146.771 289.042 147.417 289C149.479 288.875 151.776 288.276 152.933 287.901C153.401 287.745 155.177 286.792 156.792 286.792C158.443 286.792 159.547 288.448 157.891 289.552C154.964 291.506 149.073 294.516 141.349 294.516C137.396 294.516 137.49 293.964 135.839 295.073C134.74 295.802 133.537 296.177 132.526 296.177C126.464 296.177 120.948 292.313 114.334 291.209C111.677 290.766 109.656 291.047 107.714 291.209C101.808 291.698 97.4742 293.297 95.5836 293.964C89.5367 296.125 84.7502 297.245 75.1825 299.485C59.7555 303.099 54.245 302.167 52.0263 301.693C48.8388 301.016 41.3857 299.427 40.443 295.073C39.5315 290.839 45.2242 286.125 49.2659 284.037C52.844 282.188 56.0575 281.912 62.5002 281.828Z" fill="#F79556"/>
</g>
</g>
<mask id="mask82_40_566" style="mask-type:luminance" maskUnits="userSpaceOnUse" x="30" y="207" width="36" height="101">
<path d="M30.4634 207.75H65.9425V307.422H30.4634V207.75Z" fill="white"/>
</mask>
<g mask="url(#mask82_40_566)">
<mask id="mask83_40_566" style="mask-type:luminance" maskUnits="userSpaceOnUse" x="2" y="16" width="445" height="406">
<path d="M278.177 391.432C292.255 380.135 288.021 375.354 322.401 345.125C352.937 318.276 441.859 324.156 446.385 202.698C452.172 47.2343 281.698 -25.2136 131.552 42.0416C80.9947 64.6874 48.0415 99.9791 30.1197 130.234C2.19779 177.375 -11.3178 249.031 20.4009 318.859C48.9009 381.594 113.427 422.594 181.172 421.068C211.963 420.375 248.656 415.115 278.177 391.432Z" fill="white"/>
</mask>
<g mask="url(#mask83_40_566)">
<path d="M33.2758 231.615C33.406 229.24 33.7238 224.224 36.031 218.37C37.5206 214.604 38.7915 211.521 42.0988 209.542C46.6821 206.797 51.6196 208.307 52.0258 208.437C56.1456 209.771 58.229 212.984 59.1925 214.51C62.2967 219.443 61.9842 224.401 61.9477 229.406C61.7863 253.187 67.9738 262.557 63.0519 269.687C62.5883 270.365 59.8435 274.354 60.8435 276.859C61.9477 279.62 66.281 279.755 65.8071 280.724C65.4946 281.38 64.0727 281.234 63.604 281.276C56.9842 281.828 50.3696 300.588 54.781 302.797C55.7863 303.297 57.3592 302.838 57.5363 303.349C57.7185 303.87 56.0935 304.875 55.8852 305.005C52.5779 307.021 42.1769 309.713 36.031 303.901C33.4425 301.443 32.5935 298.411 32.1717 296.729C28.479 282 32.6196 273.088 32.7238 253.687C32.7394 250.62 32.6821 242.448 33.2758 231.615Z" fill="white"/>
</g>
</g>
<mask id="mask84_40_566" style="mask-type:luminance" maskUnits="userSpaceOnUse" x="59" y="214" width="8" height="67">
<path d="M59.1094 214.323H66.4688V280.86H59.1094V214.323Z" fill="white"/>
</mask>
<g mask="url(#mask84_40_566)">
<mask id="mask85_40_566" style="mask-type:luminance" maskUnits="userSpaceOnUse" x="2" y="16" width="445" height="406">
<path d="M278.177 391.433C292.255 380.136 288.021 375.354 322.401 345.125C352.938 318.276 441.859 324.157 446.386 202.698C452.172 47.2347 281.698 -25.2132 131.552 42.042C80.9949 64.6878 48.0418 99.9795 30.1199 130.235C2.19803 177.375 -11.3176 249.032 20.4012 318.86C48.9012 381.594 113.427 422.594 181.172 421.068C211.964 420.375 248.656 415.115 278.177 391.433Z" fill="white"/>
</mask>
<g mask="url(#mask85_40_566)">
<path d="M59.1929 214.511C60.1304 215.657 60.8908 216.969 61.4585 218.375C62.0366 219.776 62.3908 221.266 62.646 222.761C63.1043 225.776 63.0679 228.745 63.2502 231.641C63.547 237.464 64.1304 243.229 64.9481 249C65.3439 251.891 65.8075 254.782 66.1408 257.761C66.297 259.25 66.4325 260.766 66.4064 262.328C66.4064 263.104 66.3439 263.901 66.2502 264.698C66.1252 265.495 65.9741 266.297 65.7033 267.078C65.4429 267.86 65.1095 268.625 64.672 269.328C64.4741 269.688 64.2189 270.011 63.9897 270.344C63.7814 270.631 63.5731 270.901 63.3752 271.188C62.5835 272.328 61.8752 273.552 61.5262 274.802C61.3543 275.422 61.2866 276.047 61.4325 276.599C61.5887 277.172 61.9689 277.698 62.4689 278.157C62.9689 278.61 63.5939 278.979 64.2345 279.328C64.5522 279.506 64.8856 279.672 65.2085 279.865C65.37 279.969 65.5314 280.068 65.672 280.198C65.7397 280.271 65.8127 280.344 65.8439 280.448C65.8804 280.542 65.8595 280.646 65.8075 280.724C65.8804 280.532 65.7397 280.386 65.5887 280.308C65.4429 280.224 65.271 280.157 65.0991 280.104C64.7554 279.99 64.396 279.896 64.0418 279.787C63.3283 279.568 62.6095 279.308 61.9272 278.896C61.2397 278.49 60.6043 277.87 60.2397 277.063C59.8595 276.224 59.8387 275.323 59.9272 274.506C60.1512 272.86 60.7866 271.412 61.521 270.047C61.7033 269.709 61.9012 269.37 62.1043 269.042C62.2554 268.75 62.4429 268.479 62.5679 268.177C62.8595 267.599 63.0418 266.979 63.2085 266.354C63.5054 265.099 63.5627 263.756 63.4897 262.375C63.4168 260.995 63.245 259.584 63.0262 258.157C62.8127 256.729 62.5835 255.292 62.3387 253.839L61.672 249.459C60.8439 243.584 60.4689 237.604 60.6564 231.662C60.7345 228.677 61.0679 225.761 61.0366 222.907C61.021 220.047 60.4689 217.198 59.1929 214.511Z" fill="#A7D8D1"/>
</g>
</g>
</svg>
