<svg width="154" height="150" viewBox="0 0 154 150" fill="none" xmlns="http://www.w3.org/2000/svg">
<path d="M76.9966 1.09865e-07C119.031 -0.00223438 153.177 34.0803 153.177 76.0315C153.174 106.651 135.037 133.042 108.899 145.087C88.8259 154.339 53.3817 152.006 48.7076 125.188C43.2654 93.9664 66.313 73.2668 79.7526 51.6464C86.7005 40.4739 91.4117 27.7085 81.7689 16.5426C86.3884 18.6397 90.05 21.6051 92.1798 25.2318C99.0884 36.9956 96.9324 43.4961 96.101 50.7495C97.6416 51.2688 100.055 51.6289 102.257 50.0294C102.257 50.0294 99.9961 54.1253 95.861 53.7783C95.7694 56.2768 95.9767 58.9477 96.8582 62.0092C100.649 75.174 110.616 79.9659 109.362 84.9673C108.567 88.1226 102.691 86.2526 103.003 90.5011C103.101 91.8628 103.411 93.1546 103.673 94.2806C104.066 95.891 105.008 95.8321 105.008 96.7486C105.008 97.6629 104.029 98.4048 102.822 98.4048C102.578 98.4048 102.305 98.3677 102.028 98.3088C101.875 98.3022 101.716 98.2913 101.543 98.2717C101.275 98.2411 101.013 98.2215 100.76 98.2149C98.8134 98.1582 99.0338 98.3655 100.895 98.9329C102.34 99.3736 104.079 99.8101 103.989 101.298C103.828 104.048 100.707 102.047 101.231 105.59C102.303 112.857 103.802 118.264 89.546 115.672C82.2926 114.354 75.3076 115.163 68.8879 118.269C63.018 122.487 65.5034 129.352 69.7847 133.183C75.8619 138.626 88.145 140.513 97.3339 138.124C102.089 136.886 108.786 133.506 111.762 131.643C130.199 120.093 142.582 99.6769 142.744 76.4898C142.997 39.8367 113.137 10.0836 76.3965 10.4109C40.5138 10.7338 11.2843 40.1575 11.2538 75.9726C11.2472 84.7207 13.0649 114.395 30.0134 135.85C12.2466 121.932 0.823242 100.316 0.823242 76.0272C0.823242 34.0388 34.9276 0.00218432 76.9966 1.09865e-07Z" fill="white"/>
<path d="M73.826 14.5591C103.983 51.5242 30.5284 64.4292 34.4039 117.339C15.9912 63.4931 86.3797 46.0972 73.826 14.5591Z" fill="white"/>
<path d="M61.7283 13.8826C76.6933 42.093 26.7642 40.9889 22.3825 76.2432C17.3397 38.4773 65.8438 36.2319 61.7283 13.8826Z" fill="white"/>
</svg>
