<svg width="52" height="31" viewBox="0 0 52 31" fill="none" xmlns="http://www.w3.org/2000/svg">
<path d="M52 0.25H0.76001V30.75H52V0.25Z" fill="#FF0000"/>
<path d="M24.0824 13.4348C23.5142 13.0819 22.9116 12.7892 22.2918 12.5481C21.7581 13.3401 21.4482 14.2871 21.4482 15.3115C21.4482 15.8194 21.5256 16.3101 21.672 16.7749C21.9302 16.1809 22.2574 15.6042 22.6534 15.0532C23.0752 14.4506 23.5572 13.9083 24.0824 13.4348ZM22.5673 12.1866C23.2387 12.419 23.8844 12.7203 24.5042 13.0733C24.6419 12.9527 24.7883 12.8494 24.926 12.7461C24.2718 12.3846 23.5745 12.0919 22.86 11.8681C22.7567 11.9714 22.6534 12.0747 22.5673 12.1866ZM23.1699 11.5754C23.9446 11.782 24.685 12.0661 25.3823 12.4362C25.5458 12.3329 25.7094 12.2382 25.8643 12.1435C25.124 11.7648 24.3406 11.4893 23.5314 11.2913C23.4023 11.3774 23.2818 11.4721 23.1699 11.5754ZM23.9016 11.0589C24.7538 11.231 25.5802 11.5065 26.355 11.8853C27.1384 11.5065 27.9648 11.231 28.8084 11.0589C28.0939 10.6371 27.2503 10.396 26.355 10.396C25.4597 10.396 24.6247 10.6371 23.9016 11.0589ZM29.1786 11.2999C28.3694 11.4893 27.586 11.7734 26.8457 12.1435C27.0093 12.2382 27.1642 12.3329 27.3278 12.4362C28.0337 12.0661 28.774 11.782 29.5402 11.5754C29.4283 11.4721 29.3077 11.3774 29.1786 11.2999ZM29.8501 11.8767C29.1356 12.0919 28.4469 12.3846 27.784 12.7461C27.9304 12.8494 28.0767 12.9614 28.2145 13.0733C28.8257 12.7203 29.4713 12.419 30.1428 12.1866C30.0567 12.0747 29.962 11.9714 29.8501 11.8767ZM30.4182 12.5568C29.7984 12.7892 29.2044 13.0819 28.6363 13.4348C29.1614 13.9083 29.6349 14.4506 30.0653 15.0532C30.4527 15.6042 30.7798 16.1809 31.0467 16.7749C31.1844 16.3015 31.2619 15.8194 31.2619 15.3115C31.2619 14.2871 30.952 13.3401 30.4182 12.5568ZM29.9964 15.9313C29.4799 15.0963 28.8601 14.3559 28.1714 13.7275C28.0165 13.8394 27.8529 13.9513 27.7066 14.0632C28.8687 15.1479 29.807 16.5081 30.401 18.092C30.5388 17.8854 30.6679 17.6702 30.7712 17.455C30.556 16.9385 30.2977 16.4306 29.9964 15.9313ZM27.2675 13.6931C27.4225 13.5812 27.5774 13.4693 27.741 13.366C27.6033 13.2454 27.4569 13.1335 27.3106 13.0216C27.147 13.1249 26.9834 13.2282 26.8199 13.3401H26.8285C26.9748 13.452 27.1212 13.5726 27.2675 13.6931ZM26.355 13.0044C26.5186 12.9011 26.6907 12.7978 26.8457 12.7031C26.6821 12.5998 26.5186 12.4965 26.355 12.4018C26.1915 12.4965 26.0365 12.5998 25.8729 12.7031C26.0365 12.7978 26.1915 12.9011 26.355 13.0044ZM25.8902 13.3401C25.7266 13.2282 25.5716 13.1249 25.4081 13.0216C25.2617 13.1335 25.1154 13.2454 24.969 13.3573C25.1326 13.4693 25.2876 13.5726 25.4425 13.6845C25.5889 13.5639 25.7352 13.452 25.8902 13.3401ZM26.355 13.6845C26.2087 13.7964 26.0623 13.9169 25.9074 14.046C26.0623 14.1665 26.2087 14.2957 26.355 14.4248C26.5014 14.2957 26.6477 14.1665 26.8027 14.046C26.6563 13.9255 26.51 13.7964 26.355 13.6845ZM26.355 15.2943C25.7008 16.0002 25.124 16.8094 24.6591 17.7133C24.3406 18.3159 24.091 18.9443 23.9016 19.5727C24.6247 19.9773 25.4597 20.2183 26.355 20.2183C27.2503 20.2183 28.0853 19.9773 28.8084 19.5727C28.6191 18.9443 28.3694 18.3159 28.0509 17.7133C27.586 16.8094 27.0179 16.0002 26.355 15.2943ZM23.5142 18.5569C24.0738 17.1279 24.9002 15.8796 25.916 14.8466C25.7696 14.7089 25.6233 14.5798 25.4683 14.442C24.289 15.587 23.342 17.0074 22.7653 18.6516C22.9288 18.8324 23.101 18.9959 23.2904 19.1509C23.3593 18.9529 23.4367 18.7549 23.5142 18.5569ZM26.7941 14.8466C27.8099 15.8796 28.6363 17.1279 29.2044 18.5569C29.2819 18.7549 29.3508 18.9529 29.4197 19.1509C29.609 18.9959 29.7898 18.8324 29.9534 18.6516C29.368 17.0074 28.4211 15.587 27.2417 14.442C27.0867 14.5798 26.9404 14.7089 26.7941 14.8466ZM22.309 18.092C22.903 16.5081 23.8413 15.1565 25.0121 14.0719C24.8571 13.9513 24.7022 13.8394 24.5386 13.7275C23.8499 14.3645 23.2301 15.1049 22.7136 15.9399C22.4123 16.4306 22.1541 16.9385 21.9388 17.455C22.0421 17.6788 22.1713 17.8854 22.309 18.092ZM26.3808 10C29.411 10 31.8817 12.4707 31.8817 15.5009C31.8817 18.5311 29.411 21.0017 26.3808 21.0017C23.3506 21.0017 20.88 18.5311 20.88 15.5009C20.88 12.4707 23.3506 10 26.3808 10ZM28.8084 8.79483C28.6535 8.97561 28.4813 9.20804 28.3092 9.5782C28.2661 9.48351 28.2661 9.3716 28.2919 9.25108C28.335 8.85509 28.4469 8.61405 28.6535 8.27832C28.7224 8.1578 28.7912 8.05449 28.8257 7.92537C28.9548 7.53798 28.929 7.02147 28.6449 6.61687C28.6879 7.07312 28.5502 7.4519 28.3952 7.68433C28.3694 7.72737 28.3436 7.7532 28.3092 7.78763C28.1456 7.95119 27.9648 8.11475 27.7324 8.49353C27.6033 8.70013 27.4741 8.94978 27.3536 9.34577C27.302 9.25969 27.2847 9.15639 27.2933 9.03587C27.2761 8.63127 27.345 8.38162 27.4913 8.01145C27.543 7.88232 27.5946 7.77041 27.6119 7.63268C27.6721 7.23668 27.5688 6.72878 27.2245 6.37583C27.3364 6.81487 27.2675 7.21086 27.147 7.46912C27.1212 7.51216 27.104 7.54659 27.0781 7.58103C26.9404 7.77041 26.7941 7.9598 26.6133 8.3644C26.5272 8.59683 26.4325 8.8637 26.3808 9.2683C26.312 9.19082 26.2775 9.08752 26.2689 8.967C26.1915 8.57101 26.2173 8.31275 26.3034 7.92537C26.3378 7.79624 26.3722 7.67572 26.3636 7.53798C26.3636 7.13338 26.1828 6.6513 25.7869 6.35001C25.9676 6.77182 25.959 7.17642 25.8815 7.4519C25.8643 7.48633 25.8471 7.52937 25.8299 7.56381C25.7266 7.77902 25.6061 7.98563 25.4942 8.41605C25.4425 8.65709 25.3909 8.94117 25.3995 9.34577C25.3306 9.27691 25.279 9.18221 25.2445 9.0703C25.1068 8.68292 25.0896 8.43327 25.124 8.02867C25.1326 7.89093 25.1412 7.77041 25.124 7.64128C25.0551 7.23668 24.7969 6.78904 24.3664 6.55661C24.6075 6.94399 24.6591 7.3486 24.6247 7.62407C24.6161 7.66711 24.6075 7.71015 24.5989 7.7532C24.53 7.97702 24.4439 8.20084 24.4009 8.64848C24.3837 8.88952 24.3751 9.1736 24.4525 9.5782C24.3664 9.51794 24.3062 9.43186 24.2545 9.32856C24.0565 8.967 24.0049 8.71735 23.9705 8.32136C23.9618 8.18362 23.9532 8.0631 23.9016 7.93398C23.7811 7.54659 23.4539 7.14199 22.9891 6.98704C23.2904 7.32277 23.4109 7.71015 23.4109 7.99423C23.4109 8.03728 23.4109 8.08032 23.4023 8.12336C23.3679 8.35579 23.3248 8.59683 23.3506 9.03587C23.3765 9.2769 23.4109 9.56099 23.5486 9.94837C23.4539 9.90533 23.3765 9.82785 23.3076 9.73316C23.058 9.41464 22.9719 9.1736 22.8772 8.78622C22.8427 8.64848 22.8169 8.53657 22.748 8.40744C22.5673 8.05449 22.1799 7.70155 21.6978 7.61546C22.0421 7.90815 22.2229 8.27832 22.2746 8.55379C22.2832 8.59683 22.2832 8.63987 22.2832 8.68292C22.2918 8.91535 22.2832 9.15639 22.3779 9.59542C22.4381 9.82785 22.5156 10.1033 22.7136 10.4563C22.6189 10.4304 22.5328 10.3702 22.4467 10.2841C22.1454 10.0086 22.0163 9.78481 21.87 9.41464C21.8183 9.28551 21.7667 9.1736 21.6892 9.06169C21.4482 8.74318 21.0177 8.4591 20.5184 8.45049C20.9144 8.68292 21.1469 9.01004 21.2416 9.27691C21.2502 9.31995 21.2588 9.36299 21.2674 9.40603C21.3104 9.63846 21.3362 9.8795 21.4998 10.2927C21.5945 10.5165 21.7236 10.7748 21.9733 11.0933C21.87 11.0847 21.7753 11.033 21.6806 10.9642C21.3449 10.7404 21.1813 10.5337 20.9661 10.198C20.8972 10.0775 20.837 9.9742 20.7337 9.8795C20.4496 9.59542 19.9761 9.38021 19.4854 9.44907C19.9072 9.62125 20.1913 9.91394 20.3291 10.1636C20.3463 10.198 20.3635 10.2411 20.3807 10.2841C20.4582 10.4993 20.5184 10.7317 20.7423 11.1191C20.8714 11.3257 21.0349 11.5582 21.3362 11.8422C21.2329 11.8422 21.1296 11.8078 21.0263 11.7562C20.6562 11.584 20.4668 11.4118 20.2085 11.1105C20.1138 11.0072 20.0364 10.9125 19.9244 10.8264C19.5973 10.594 19.098 10.4563 18.6246 10.6026C19.0722 10.7059 19.3993 10.947 19.5629 11.1708C19.5973 11.2052 19.6145 11.2396 19.6318 11.2827C19.7437 11.4893 19.847 11.7131 20.1311 12.0488C20.286 12.2382 20.484 12.4448 20.8197 12.6773C20.725 12.6945 20.6217 12.6773 20.5012 12.6342C20.1138 12.5309 19.8986 12.3846 19.5973 12.1263C19.494 12.0402 19.3993 11.9628 19.2788 11.8939C18.9173 11.7131 18.4007 11.6615 17.9531 11.8767C18.4093 11.9025 18.7709 12.1005 18.9775 12.2899C19.0033 12.3243 19.0292 12.3501 19.055 12.3932C19.2013 12.574 19.3305 12.7806 19.6662 13.0733C19.847 13.2282 20.0794 13.4004 20.4496 13.5812C20.3549 13.6156 20.243 13.6156 20.1311 13.5898C19.7265 13.5467 19.494 13.4348 19.1497 13.2282C19.0292 13.1593 18.9259 13.0905 18.7967 13.056C18.4093 12.9269 17.9014 12.9527 17.4968 13.2368C17.9445 13.1938 18.3319 13.3315 18.5643 13.4865C18.5987 13.5123 18.6332 13.5381 18.659 13.5726C18.8312 13.7361 18.9947 13.9169 19.3649 14.1493C19.5715 14.2785 19.8298 14.4162 20.2171 14.5281C20.1311 14.5798 20.0278 14.597 19.9072 14.597C19.5026 14.6056 19.253 14.5367 18.8828 14.3904C18.7537 14.3387 18.6418 14.2871 18.504 14.2698C18.1081 14.2096 17.6001 14.3129 17.2472 14.6572C17.6862 14.5453 18.0908 14.6142 18.3405 14.7347C18.3835 14.7605 18.418 14.7778 18.4524 14.8036C18.6418 14.9413 18.8312 15.0877 19.2444 15.2684C19.4682 15.3545 19.7351 15.4492 20.1397 15.5009C20.0622 15.5697 19.9589 15.6042 19.847 15.6128C19.4424 15.6989 19.1927 15.6644 18.7967 15.5783C18.6676 15.5439 18.5471 15.5181 18.4093 15.5181C18.0047 15.5181 17.5227 15.6989 17.23 16.0949C17.6432 15.9141 18.0478 15.9227 18.3233 16.0002C18.3663 16.0174 18.4007 16.0346 18.4438 16.0518C18.6504 16.1551 18.8656 16.2756 19.296 16.3875C19.5285 16.4392 19.8125 16.4908 20.2171 16.4822C20.1483 16.5511 20.0536 16.6028 19.9417 16.6372C19.5629 16.7749 19.3046 16.7921 18.9086 16.7577C18.7709 16.7491 18.6504 16.7405 18.5127 16.7577C18.1167 16.8266 17.669 17.0848 17.4366 17.5239C17.8154 17.2742 18.22 17.2226 18.504 17.257C18.5471 17.2656 18.5815 17.2742 18.6246 17.2828C18.8484 17.3603 19.0722 17.4378 19.5198 17.4808C19.7609 17.498 20.045 17.5067 20.4496 17.4292C20.3893 17.5153 20.3032 17.5755 20.1999 17.6272C19.847 17.8252 19.5887 17.8768 19.1927 17.9113C19.055 17.9285 18.9345 17.9371 18.8053 17.9801C18.418 18.1006 18.022 18.4278 17.8584 18.8926C18.2027 18.5913 18.5901 18.4794 18.8742 18.4708C18.9173 18.4708 18.9603 18.4708 19.0033 18.4794C19.2272 18.5139 19.4682 18.5569 19.9158 18.5311C20.1569 18.5139 20.441 18.4708 20.8197 18.3331C20.7853 18.4278 20.7078 18.5052 20.6045 18.5741C20.286 18.8238 20.045 18.9098 19.6576 19.0045C19.5285 19.039 19.4079 19.0648 19.2874 19.1337C18.9259 19.3144 18.5815 19.7018 18.4954 20.1839C18.7795 19.8396 19.1497 19.6588 19.4252 19.6071C19.4682 19.5985 19.5112 19.5985 19.5543 19.5985C19.7867 19.5899 20.0364 19.5985 20.4668 19.5038C20.6992 19.4436 20.9747 19.3661 21.3362 19.1681C21.3104 19.2628 21.2416 19.3575 21.1555 19.435C20.88 19.7363 20.6562 19.8654 20.286 20.0117C20.1655 20.072 20.0536 20.115 19.9417 20.1925C19.6145 20.4336 19.3305 20.864 19.3219 21.3633C19.5543 20.9673 19.89 20.7348 20.1569 20.6402C20.1999 20.6315 20.2344 20.6229 20.2774 20.6143C20.5098 20.5713 20.7509 20.5455 21.1641 20.3819C21.3879 20.2872 21.6462 20.1581 21.9733 19.917C21.9561 20.0117 21.913 20.1064 21.8355 20.2011C21.6117 20.5369 21.4137 20.7004 21.0694 20.9156C20.9575 20.9845 20.8542 21.0448 20.7509 21.1481C20.4668 21.4321 20.2602 21.9056 20.3291 22.3963C20.4926 21.9745 20.7853 21.6904 21.0349 21.5527C21.078 21.5354 21.1124 21.5182 21.1555 21.501C21.3793 21.4321 21.6117 21.3633 21.9905 21.1395C22.1971 21.0103 22.4295 20.8468 22.7136 20.5455C22.7222 20.6488 22.6878 20.7521 22.6275 20.8554C22.4554 21.2255 22.2832 21.4149 21.9819 21.6732C21.8786 21.7679 21.7839 21.8454 21.7064 21.9573C21.474 22.2844 21.3362 22.7837 21.4826 23.2571C21.5773 22.8095 21.8183 22.4824 22.0508 22.3188C22.0852 22.293 22.1196 22.2672 22.1541 22.25C22.3607 22.138 22.5845 22.0347 22.9288 21.7507C23.1096 21.5957 23.3162 21.3977 23.5486 21.062C23.5659 21.1567 23.5486 21.2686 23.5142 21.3805C23.4023 21.7679 23.2646 21.9831 22.9977 22.2844C22.9116 22.3877 22.8341 22.4824 22.7739 22.6115C22.5931 22.9731 22.5328 23.481 22.748 23.9286C22.7825 23.4724 22.9719 23.1108 23.1699 22.9128C23.1957 22.8784 23.2301 22.8525 23.2646 22.8267C23.4539 22.6804 23.6519 22.5512 23.9446 22.2155C24.0996 22.0347 24.2718 21.8023 24.4525 21.4321C24.487 21.5268 24.487 21.6387 24.4697 21.7507C24.4181 22.1553 24.3148 22.3877 24.1082 22.732C24.0307 22.8525 23.9705 22.9559 23.9274 23.085C23.8069 23.4724 23.8327 23.9889 24.1168 24.3935C24.0738 23.9372 24.2029 23.5498 24.3664 23.3174C24.3923 23.283 24.4181 23.2485 24.4439 23.2227C24.6075 23.0505 24.7883 22.887 25.0293 22.5168C25.1498 22.3102 25.2876 22.052 25.3995 21.6646C25.4511 21.7507 25.4683 21.854 25.4683 21.9745C25.4856 22.3791 25.4167 22.6287 25.2617 22.9989C25.2101 23.128 25.167 23.2399 25.1412 23.3777C25.081 23.7737 25.1843 24.2816 25.5286 24.6345C25.4167 24.1955 25.4856 23.7909 25.6147 23.5412C25.6319 23.4982 25.6491 23.4638 25.6749 23.4293C25.8127 23.2399 25.9676 23.0505 26.1398 22.6373C26.2345 22.4135 26.3292 22.1466 26.3808 21.742C26.4411 21.8195 26.4755 21.9228 26.4928 22.0347C26.5702 22.4393 26.5444 22.689 26.4497 23.085C26.4153 23.2141 26.3895 23.3346 26.3895 23.4724C26.3895 23.877 26.5788 24.359 26.9748 24.6517C26.7941 24.2385 26.7941 23.8339 26.8801 23.5584C26.8887 23.5154 26.906 23.481 26.9232 23.4379C27.0265 23.2313 27.147 23.0161 27.2589 22.5857C27.3106 22.3533 27.3622 22.0692 27.3536 21.6646C27.4311 21.7334 27.4741 21.8281 27.5086 21.94C27.6549 22.3188 27.6635 22.5771 27.6377 22.9817C27.6205 23.1108 27.6119 23.2313 27.6377 23.3691C27.6979 23.7737 27.9562 24.2213 28.3952 24.4537C28.1542 24.0663 28.0939 23.6617 28.137 23.3863C28.137 23.3432 28.1456 23.3002 28.1628 23.2571C28.2317 23.0333 28.3178 22.8095 28.3608 22.3619C28.3694 22.1208 28.378 21.8367 28.3092 21.4321C28.3866 21.4924 28.4555 21.5785 28.5071 21.6818C28.7051 22.0347 28.7568 22.293 28.7912 22.689C28.7998 22.8267 28.8084 22.9472 28.8515 23.0764C28.9806 23.4638 29.2991 23.8597 29.7726 24.0233C29.4713 23.679 29.3508 23.2916 29.3422 23.0075C29.3422 22.9645 29.3422 22.9214 29.3508 22.8784C29.3852 22.6546 29.4369 22.4135 29.4024 21.9659C29.3852 21.7248 29.3422 21.4407 29.213 21.062C29.2991 21.105 29.3766 21.1739 29.4455 21.2772C29.6951 21.5957 29.7898 21.8367 29.8845 22.2241C29.9103 22.3533 29.9448 22.4738 30.005 22.5943C30.1944 22.9559 30.5732 23.3002 31.0639 23.3863C30.7109 23.1022 30.5301 22.732 30.4785 22.4566C30.4699 22.4135 30.4699 22.3705 30.4699 22.3274C30.4699 22.095 30.4785 21.854 30.3838 21.4149C30.3235 21.1825 30.2375 20.907 30.0395 20.5455C30.1428 20.5713 30.2289 20.6402 30.3063 20.7262C30.6076 21.0017 30.7368 21.2255 30.8917 21.5957C30.9434 21.7162 30.9864 21.8281 31.0725 21.94C31.3135 22.2672 31.744 22.5512 32.2346 22.5599C31.8473 22.3274 31.6148 21.9917 31.5201 21.7248C31.5029 21.6818 31.4943 21.6474 31.4857 21.6043C31.4513 21.3719 31.4168 21.1308 31.2533 20.7176C31.1586 20.4938 31.0381 20.2356 30.7884 19.917C30.8917 19.9256 30.9864 19.9687 31.0811 20.0462C31.4168 20.27 31.5804 20.468 31.787 20.8123C31.8559 20.9242 31.9247 21.0361 32.0194 21.1308C32.3035 21.4149 32.777 21.6215 33.2677 21.5527C32.8458 21.3891 32.5618 21.0964 32.4326 20.8468C32.4068 20.8037 32.3896 20.7693 32.381 20.7262C32.3035 20.5024 32.2346 20.27 32.0108 19.8912C31.8817 19.6846 31.7181 19.4522 31.4254 19.1681C31.5201 19.1681 31.6234 19.1939 31.7353 19.2542C32.0969 19.4264 32.2949 19.5985 32.5532 19.8998C32.6392 20.0031 32.7167 20.0978 32.8286 20.1753C33.1557 20.4163 33.655 20.5455 34.1285 20.4077C33.6895 20.3044 33.3624 20.0634 33.1902 19.831C33.1644 19.7965 33.1385 19.7621 33.1213 19.7277C33.0094 19.521 32.9147 19.2972 32.6306 18.9529C32.4671 18.7721 32.2691 18.5655 31.9333 18.3331C32.0366 18.3159 32.1399 18.3331 32.2519 18.3675C32.6392 18.4794 32.8545 18.6258 33.1644 18.884C33.2677 18.9701 33.3624 19.0476 33.4829 19.1078C33.8444 19.2886 34.3523 19.3489 34.8 19.1337C34.3437 19.0992 33.9908 18.9098 33.7842 18.7118C33.7497 18.686 33.7239 18.6516 33.6981 18.6172C33.5604 18.4278 33.4226 18.2298 33.0955 17.9371C32.9061 17.7821 32.6737 17.61 32.3121 17.4292C32.4068 17.3947 32.5101 17.3947 32.6306 17.412C33.0266 17.4636 33.2677 17.5669 33.6034 17.7821C33.7239 17.851 33.8272 17.9113 33.9563 17.9543C34.3437 18.0748 34.8602 18.049 35.2648 17.7649C34.8086 17.808 34.4298 17.6788 34.1974 17.5153C34.1629 17.4894 34.1285 17.4636 34.0941 17.4378C33.9305 17.2742 33.767 17.0934 33.3882 16.8524C33.1816 16.7319 32.9319 16.5942 32.5359 16.4822C32.622 16.4306 32.7339 16.4134 32.8458 16.4134C33.2591 16.3962 33.5087 16.465 33.8703 16.62C33.9994 16.6716 34.1113 16.7147 34.249 16.7405C34.645 16.8008 35.1529 16.6975 35.5059 16.3531C35.0668 16.465 34.6709 16.3962 34.4126 16.267C34.3782 16.2498 34.3351 16.2326 34.3007 16.2068C34.1113 16.069 33.9219 15.9227 33.5173 15.7419C33.2935 15.6558 33.018 15.5611 32.6134 15.5009C32.6909 15.4406 32.7942 15.4062 32.9147 15.389C33.3107 15.3115 33.569 15.3373 33.9563 15.432C34.0855 15.4664 34.206 15.4923 34.3437 15.4923C34.7483 15.4923 35.2304 15.3029 35.5317 14.9155C35.1099 15.0877 34.7053 15.0877 34.4384 15.0016C34.3954 14.993 34.3523 14.9757 34.3179 14.9585C34.1027 14.8552 33.8961 14.7347 33.4657 14.6228C33.2246 14.5711 32.9491 14.5195 32.5359 14.5281C32.6048 14.4506 32.6995 14.4076 32.8114 14.3732C33.1988 14.2268 33.4571 14.2182 33.853 14.244C33.9908 14.2612 34.1113 14.2698 34.249 14.244C34.645 14.1838 35.0927 13.9255 35.3251 13.4865C34.9377 13.7275 34.5417 13.7878 34.2576 13.7533C34.2146 13.7447 34.1716 13.7361 34.1285 13.7189C33.9047 13.65 33.6809 13.5639 33.2418 13.5209C33.0008 13.5123 32.7081 13.5037 32.3121 13.5812C32.3638 13.4951 32.4499 13.4262 32.5618 13.3746C32.9147 13.1766 33.1644 13.1249 33.5604 13.0905C33.6981 13.0819 33.8186 13.0733 33.9477 13.0302C34.3351 12.9011 34.7397 12.5826 34.8947 12.1091C34.5589 12.4104 34.1716 12.5309 33.8875 12.5395C33.8444 12.5395 33.8014 12.5395 33.7583 12.5309C33.5259 12.4965 33.2849 12.4448 32.8458 12.4793C32.6048 12.4965 32.3207 12.5395 31.9333 12.6773C31.9764 12.5826 32.0539 12.5051 32.1486 12.4362C32.4671 12.1866 32.7081 12.0919 33.0955 11.9972C33.2332 11.9714 33.3451 11.9369 33.4743 11.8767C33.8272 11.6873 34.1802 11.3085 34.2662 10.8178C33.9736 11.1708 33.612 11.3516 33.3279 11.4032C33.2849 11.4118 33.2418 11.4118 33.1988 11.4118C32.9664 11.4118 32.7253 11.4032 32.2949 11.4979C32.0539 11.5582 31.7784 11.6442 31.4254 11.8422C31.4513 11.7389 31.5115 11.6529 31.5976 11.5754C31.8731 11.2741 32.0969 11.145 32.4671 10.99C32.5962 10.9383 32.7081 10.8953 32.82 10.8092C33.1385 10.5682 33.4226 10.1378 33.4312 9.64707C33.1988 10.0345 32.8717 10.2669 32.6048 10.3616C32.5618 10.3788 32.5187 10.3874 32.4757 10.396C32.2432 10.4391 32.0022 10.4649 31.589 10.6284C31.3738 10.7231 31.1155 10.8437 30.7884 11.0933C30.797 10.9986 30.8487 10.8953 30.9175 10.8006C31.1414 10.4649 31.348 10.3013 31.6837 10.0947C31.8042 10.0258 31.9075 9.95698 32.0022 9.86228C32.2863 9.5782 32.5015 9.10473 32.4326 8.61405C32.2605 9.03587 31.9678 9.31995 31.7181 9.45768C31.6837 9.4749 31.6407 9.49212 31.6062 9.50073C31.3824 9.5782 31.15 9.64707 30.7626 9.87089C30.556 10 30.3235 10.1636 30.0395 10.4563C30.0395 10.3616 30.0739 10.2583 30.1256 10.155C30.2977 9.78481 30.4699 9.59542 30.7712 9.32856C30.8745 9.24247 30.9692 9.16499 31.0553 9.05308C31.2877 8.72596 31.4254 8.22666 31.2791 7.7532C31.1758 8.19223 30.9348 8.51935 30.7109 8.69152C30.6765 8.71735 30.6421 8.74318 30.599 8.76039C30.3924 8.8723 30.1686 8.967 29.8329 9.25108C29.6435 9.41464 29.4369 9.61264 29.213 9.94837C29.1872 9.85368 29.2044 9.74177 29.2475 9.62985C29.3594 9.24247 29.4971 9.02726 29.7554 8.71735C29.8415 8.61405 29.9276 8.52796 29.9878 8.39884C30.1686 8.03728 30.2202 7.52937 30.005 7.08173C29.9792 7.53798 29.7898 7.89093 29.5918 8.09754C29.5574 8.13197 29.5316 8.1578 29.4971 8.18362C29.3077 8.32136 29.1011 8.45909 28.8084 8.79483Z" fill="#FFFF00"/>
</svg>
