<svg width="648" height="386" viewBox="0 0 648 386" fill="none" xmlns="http://www.w3.org/2000/svg">
<path d="M101.216 8.38316C110.368 1.77171 144.739 54.8244 185.746 49.3822C202.134 47.2078 217.322 36.8644 229.171 28.5946C251.107 13.2948 259.498 -1.36726 263.637 0.75781C276.956 7.60441 241.552 67.5585 183.982 69.4445C130.137 71.2106 88.6027 17.5033 101.216 8.38316Z" fill="#FBB03B" fill-opacity="0.8"/>
<path d="M5.06046 119.801C6.08526 109.667 65.4347 120.411 87.255 90.1456C95.9744 78.0556 98.1251 61.632 99.6583 48.6805C102.5 24.7249 97.307 10.0377 101.425 8.65949C114.65 4.22863 131.325 64.5903 100.379 104.519C72.1779 135.518 40.0015 126.1 31.4135 129.424C20.7013 126.953 4.5119 125.236 5.06046 119.801Z" fill="#ED1E79" fill-opacity="0.8"/>
<path d="M336.43 319.152C336.43 309.131 327.955 301.008 317.501 301.008C307.047 301.008 298.572 309.131 298.572 319.152C298.572 329.173 307.047 337.297 317.501 337.297C327.955 337.297 336.43 329.173 336.43 319.152Z" fill="#FF8A0A" fill-opacity="0.8"/>
<path d="M208.162 363.104C208.162 353.084 199.688 344.96 189.233 344.96C178.779 344.96 170.305 353.084 170.305 363.104C170.305 373.125 178.779 381.249 189.233 381.249C199.688 381.249 208.162 373.125 208.162 363.104Z" fill="#8CC63F" fill-opacity="0.8"/>
<path d="M74.8077 333.127C85.2618 333.127 93.7365 325.003 93.7365 314.982C93.7365 304.961 85.2618 296.838 74.8077 296.838C64.3536 296.838 55.8789 304.961 55.8789 314.982C55.8789 325.003 64.3536 333.127 74.8077 333.127Z" fill="#FF0024"/>
<path d="M45.0373 197.968C45.0373 187.947 36.5625 179.823 26.1085 179.823C15.6545 179.823 7.17969 187.947 7.17969 197.968C7.17969 207.988 15.6545 216.112 26.1085 216.112C36.5625 216.112 45.0373 207.988 45.0373 197.968Z" fill="#1B1464" fill-opacity="0.8"/>
<path d="M336.895 59.1268C336.895 49.106 328.42 40.9824 317.966 40.9824C307.512 40.9824 299.037 49.106 299.037 59.1268C299.037 69.1476 307.512 77.2708 317.966 77.2708C328.42 77.2708 336.895 69.1476 336.895 59.1268Z" fill="#29ABE2" fill-opacity="0.8"/>
<path d="M83.5158 76.8456C83.5158 66.8248 75.041 58.7012 64.587 58.7012C54.133 58.7012 45.6582 66.8248 45.6582 76.8456C45.6582 86.8663 54.133 94.9899 64.587 94.9899C75.041 94.9899 83.5158 86.8663 83.5158 76.8456Z" fill="#ED1E79" fill-opacity="0.8"/>
<path d="M199.041 22.2997C199.041 12.2789 190.566 4.15527 180.112 4.15527C169.658 4.15527 161.184 12.2789 161.184 22.2997C161.184 32.3204 169.658 40.444 180.112 40.444C190.566 40.444 199.041 32.3204 199.041 22.2997Z" fill="#FBB03B" fill-opacity="0.8"/>
<path d="M95.106 175.488V254.337H85.5579V175.488H95.106Z" fill="#009245"/>
<path d="M125.646 218.763V254.337H116.56V195.2H125.338V204.44H126.108C127.494 201.437 129.599 199.025 132.422 197.202C135.246 195.354 138.89 194.43 143.357 194.43C147.361 194.43 150.864 195.252 153.867 196.894C156.87 198.511 159.206 200.975 160.874 204.286C162.543 207.572 163.377 211.73 163.377 216.76V254.337H154.291V217.376C154.291 212.731 153.084 209.112 150.672 206.519C148.259 203.901 144.948 202.592 140.739 202.592C137.838 202.592 135.246 203.221 132.961 204.479C130.703 205.737 128.919 207.572 127.61 209.984C126.301 212.397 125.646 215.323 125.646 218.763Z" fill="#009245"/>
<path d="M185.896 251.209V172.36H202.567V207.126H203.606L231.981 172.36H251.963L222.702 207.665L252.309 251.209H232.366L210.767 218.792L202.567 228.802V251.209H185.896ZM282.715 252.364C276.735 252.364 271.563 251.093 267.199 248.552C262.862 245.986 259.512 242.418 257.151 237.849C254.789 233.255 253.609 227.929 253.609 221.872C253.609 215.763 254.789 210.424 257.151 205.855C259.512 201.261 262.862 197.693 267.199 195.152C271.563 192.586 276.735 191.302 282.715 191.302C288.695 191.302 293.855 192.586 298.192 195.152C302.556 197.693 305.918 201.261 308.279 205.855C310.641 210.424 311.821 215.763 311.821 221.872C311.821 227.929 310.641 233.255 308.279 237.849C305.918 242.418 302.556 245.986 298.192 248.552C293.855 251.093 288.695 252.364 282.715 252.364ZM282.792 239.659C285.513 239.659 287.784 238.889 289.607 237.349C291.429 235.783 292.802 233.653 293.726 230.958C294.676 228.263 295.151 225.196 295.151 221.756C295.151 218.317 294.676 215.25 293.726 212.555C292.802 209.86 291.429 207.729 289.607 206.163C287.784 204.598 285.513 203.815 282.792 203.815C280.046 203.815 277.736 204.598 275.862 206.163C274.014 207.729 272.615 209.86 271.665 212.555C270.741 215.25 270.279 218.317 270.279 221.756C270.279 225.196 270.741 228.263 271.665 230.958C272.615 233.653 274.014 235.783 275.862 237.349C277.736 238.889 280.046 239.659 282.792 239.659Z" fill="#FF0024"/>
<path d="M381.596 225.754C383.824 227.306 379.612 247.284 363.404 254.723C353.426 259.303 340.888 258.208 331.752 251.428C318.693 241.726 316.62 223.373 322.218 212.715C324.846 207.731 329.646 203.48 331.509 204.384C333.803 205.499 329.269 213.214 332.152 222.279C334.424 229.43 340.866 235.998 348.681 237.91C354.823 239.419 360.044 237.613 364.102 236.21C375.731 232.194 380.077 224.702 381.596 225.754Z" fill="#FF0024"/>
<path d="M309.291 153.961C307.096 157.414 334.036 167.552 337.682 189.485C339.157 198.391 335.909 203.534 340.532 212.014C341.43 213.651 346.895 223.172 356.64 224.989C367.538 227.008 372.615 217.2 380.087 219.846C387.249 222.396 384.289 232.853 394.853 245.308C399.477 250.759 406.538 256.465 408.756 255.073C410.951 253.702 406.66 246.465 402.071 231.046C395.929 210.388 397.027 202.333 390.419 198.922C386.395 196.85 380.131 197.221 374.932 197.53C366.606 198.029 366.396 197.859 364.267 197.232C358.325 195.489 354.611 183.418 349.422 175.681C345.465 169.784 340.809 166.564 336.197 163.376C325.122 155.714 310.854 151.495 309.291 153.961Z" fill="#FF0024"/>
<path d="M363.057 188.168C367.636 189.283 374.321 184.353 377.769 180.984C394.065 165.055 382.78 140.326 381.017 140.443C379.399 140.549 386.095 161.527 373.445 167.244C362.525 172.174 343.103 163.067 341.85 164.991C341.152 166.064 347.748 167.966 353.302 173.535C360.497 180.761 358.379 187.02 363.057 188.168Z" fill="#FF0024"/>
<path d="M341.773 157.121C352.227 157.121 360.701 148.997 360.701 138.976C360.701 128.956 352.227 120.832 341.773 120.832C331.318 120.832 322.844 128.956 322.844 138.976C322.844 148.997 331.318 157.121 341.773 157.121Z" fill="#FF0024"/>
<path d="M264.33 0.716801C275.789 0.697568 270.041 62.9049 306.241 82.1564C320.708 89.85 339.332 90.3214 353.987 90.5282C381.112 90.9198 397.007 84.0253 398.985 88.1067C405.347 101.248 339.48 128.812 292.262 97.1832C248.099 67.6032 251.443 3.54116 264.33 0.716801Z" fill="#54BCE8" fill-opacity="0.8"/>
<path d="M6.60168 270.702C0.0954683 261.917 56.8391 232.104 52.8921 193.726C51.3149 178.389 41.1733 163.835 33.052 152.472C18.0279 131.437 3.09835 123.03 5.48754 119.266C13.1844 107.153 74.1855 142.545 73.7289 196.188C73.3041 246.361 15.577 282.811 6.60168 270.702Z" fill="#484383" fill-opacity="0.8"/>
<path d="M111.531 384.361C103.363 378.054 123.483 323.685 93.9047 297.083C82.0845 286.452 64.2172 281.773 50.1114 278.248C24.0052 271.714 6.70616 274.688 5.94067 270.341C3.48447 256.349 74.8885 244.987 111.637 285.91C146.009 324.182 125.84 384.195 111.531 384.361Z" fill="#FF0024" fill-opacity="0.8"/>
<path d="M263.445 377.223C254.999 383.84 222.117 330.866 183.909 336.351C168.64 338.542 154.613 348.894 143.673 357.171C123.419 372.484 115.802 387.144 111.906 385.025C99.3681 378.199 131.533 318.251 185.259 316.301C235.508 314.476 275.087 368.095 263.445 377.223Z" fill="#A3D265" fill-opacity="0.8"/>
<path d="M391.555 296.155C387.309 306.099 335.033 275.071 301.842 296.572C284.945 305.75 277.193 319.723 272.624 333.678C262.176 357.037 266.374 377.301 261.923 377.356C247.596 377.525 247.014 309.203 293.367 281.131C336.718 254.874 397.403 282.443 391.555 296.155Z" fill="#FFA23B" fill-opacity="0.8"/>
<path d="M210.317 15.3178C215.726 16.1132 217.186 20.2734 220.324 19.54C224.903 18.4702 226.456 8.49913 225.479 8.08762C224.885 7.84085 223.945 11.3453 221.035 11.9839C217.66 12.725 215.846 8.69616 211.865 8.14602C205.113 7.21303 197.819 17.0698 198.769 18.2568C199.471 19.1415 203.976 14.3863 210.317 15.3178Z" fill="#FCC062"/>
<path d="M11.6434 224.332C10.8571 229.523 14.5811 232.076 12.9332 234.739C10.5285 238.624 0.126345 237.136 0.00103615 236.12C-0.0716505 235.503 3.69935 235.665 5.18677 233.184C6.91156 230.306 3.42148 227.467 4.03553 223.656C5.077 217.193 17.0415 213.386 17.9486 214.604C18.6262 215.506 12.566 218.246 11.6434 224.332Z" fill="#484383"/>
<path d="M218.663 368.856C222.914 372.16 221.984 376.458 225.079 377.343C229.595 378.634 236.186 370.779 235.559 369.95C235.176 369.45 232.52 372.021 229.671 371.164C226.368 370.17 226.923 365.815 223.776 363.414C218.438 359.341 206.952 364.322 207.147 365.807C207.287 366.91 213.68 364.984 218.663 368.856Z" fill="#A3D265"/>
<path d="M410.291 255.806V197.276H418.979V206.421H419.742C420.961 203.297 422.93 200.87 425.648 199.143C428.366 197.39 431.631 196.514 435.441 196.514C439.303 196.514 442.516 197.39 445.082 199.143C447.673 200.87 449.693 203.297 451.141 206.421H451.75C453.249 203.398 455.497 200.998 458.495 199.219C461.493 197.416 465.087 196.514 469.279 196.514C474.512 196.514 478.793 198.152 482.121 201.429C485.449 204.681 487.112 209.749 487.112 216.633V255.806H478.12V216.633C478.12 212.315 476.938 209.228 474.576 207.374C472.213 205.519 469.431 204.592 466.231 204.592C462.115 204.592 458.927 205.837 456.666 208.326C454.405 210.791 453.275 213.915 453.275 217.7V255.806H444.129V215.719C444.129 212.391 443.05 209.711 440.89 207.679C438.731 205.621 435.949 204.592 432.545 204.592C430.208 204.592 428.023 205.215 425.991 206.459C423.984 207.704 422.358 209.431 421.113 211.642C419.894 213.826 419.284 216.354 419.284 219.225V255.806H410.291Z" fill="#FF0024"/>
<path d="M311.662 136.277C306.253 137.072 304.793 141.232 301.655 140.499C297.077 139.429 295.523 129.458 296.5 129.047C297.094 128.8 298.034 132.304 300.944 132.943C304.319 133.684 306.133 129.655 310.114 129.105C316.867 128.172 324.16 138.029 323.21 139.216C322.508 140.101 318.003 135.345 311.662 136.277Z" fill="#FF0024"/>
</svg>
