<svg width="136" height="120" viewBox="0 0 136 120" fill="none" xmlns="http://www.w3.org/2000/svg">
<path d="M41.0442 30C44.6188 30 48.0471 31.2643 50.5747 33.5147C53.1024 35.7652 54.5224 38.8174 54.5224 42V72C54.5224 75.1826 53.1024 78.2348 50.5747 80.4853C48.0471 82.7357 44.6188 84 41.0442 84C37.4695 84 34.0413 82.7357 31.5136 80.4853C28.9859 78.2348 27.5659 75.1826 27.5659 72V42C27.5659 38.8174 28.9859 35.7652 31.5136 33.5147C34.0413 31.2643 37.4695 30 41.0442 30ZM81.4789 72C81.4789 89.82 66.9224 104.64 47.7833 107.52V120H34.305V107.52C15.1659 104.64 0.609375 89.82 0.609375 72H14.0876C14.0876 78.3652 16.9277 84.4697 21.983 88.9706C27.0383 93.4714 33.8948 96 41.0442 96C48.1935 96 55.05 93.4714 60.1053 88.9706C65.1606 84.4697 68.0007 78.3652 68.0007 72H81.4789ZM131.416 44.46L102.842 69.96L109.649 48H81.4789C77.9043 48 74.476 46.7357 71.9484 44.4853C69.4207 42.2348 68.0007 39.1826 68.0007 36V12C68.0007 8.8174 69.4207 5.76515 71.9484 3.51472C74.476 1.26428 77.9043 0 81.4789 0H121.914C125.488 0 128.917 1.26428 131.444 3.51472C133.972 5.76515 135.392 8.8174 135.392 12V36C135.392 39.3 133.909 42.3 131.416 44.46Z" fill="white"/>
</svg>
